<svg width="56" height="56" viewBox="0 0 56 56" fill="none" xmlns="http://www.w3.org/2000/svg">
<path d="M43.5556 0H12.4444C5.57157 0 0 5.57157 0 12.4444V43.5556C0 50.4284 5.57157 56 12.4444 56H43.5556C50.4284 56 56 50.4284 56 43.5556V12.4444C56 5.57157 50.4284 0 43.5556 0Z" fill="#22C55E"/>
<path d="M40.2421 22.6679C40.3523 22.7033 40.4213 22.7835 40.5007 22.8636C40.5155 22.8784 40.5303 22.8931 40.5455 22.9083C40.6517 23.0151 40.7527 23.1255 40.8517 23.2389C40.911 23.3047 40.973 23.3668 41.0361 23.429C41.1454 23.5377 41.2427 23.6525 41.3391 23.7727C41.3972 23.8432 41.4579 23.9099 41.5202 23.9767C41.673 24.1427 41.8105 24.3198 41.9492 24.4976C41.9936 24.5544 42.0385 24.6108 42.0835 24.6671C42.217 24.8342 42.349 25.0009 42.4694 25.1779C42.5121 25.2395 42.5563 25.2998 42.6011 25.3599C42.9487 25.8274 43.2687 26.3186 43.5482 26.83C43.5793 26.887 43.6108 26.9437 43.6428 27.0003C43.873 27.407 44.0799 27.8242 44.2686 28.2517C44.2905 28.3009 44.3128 28.3498 44.3354 28.3986C44.449 28.6451 44.5498 28.8958 44.6485 29.1485C44.6577 29.172 44.6669 29.1954 44.6764 29.2196C44.7907 29.5116 44.8997 29.804 44.9931 30.1034C45.014 30.1697 45.0358 30.2357 45.0576 30.3017C45.234 30.8399 45.3718 31.3876 45.5008 31.9389C45.5064 31.9628 45.5121 31.9867 45.5178 32.0114C45.7712 33.118 46.0161 34.405 45.7625 35.5282L45.7463 35.6032C45.6201 36.1767 45.4108 36.6849 45.0231 37.1309C44.9948 37.1662 44.9667 37.2017 44.9388 37.2373C44.348 37.973 43.4558 38.3811 42.531 38.4916C41.5333 38.5873 40.492 38.3032 39.713 37.6659L39.6517 37.6135C39.6008 37.5701 39.5486 37.53 39.4952 37.4899C38.9036 37.0139 38.5604 36.2962 38.355 35.5831C38.3497 35.5652 38.3444 35.5473 38.339 35.5288C38.3018 35.3974 38.2789 35.2672 38.2616 35.1318C38.2585 35.1091 38.2555 35.0865 38.2525 35.0632C38.2301 34.8899 38.2118 34.7162 38.194 34.5424C38.1252 33.8677 38.0236 33.2091 37.7822 32.571C37.7595 32.5102 37.7382 32.4493 37.7177 32.3877C37.5044 31.7511 37.2173 31.1504 36.8837 30.5687C36.8695 30.5438 36.8695 30.5438 36.855 30.5185C36.5836 30.0441 36.2827 29.5868 35.9164 29.1793L35.8729 29.1301L35.8348 29.0889C35.8004 29.0264 35.8133 28.9903 35.83 28.9219C35.8636 28.8727 35.8636 28.8727 35.907 28.826L35.9541 28.7748L36.0037 28.7226L36.053 28.6689C36.1743 28.5387 36.1744 28.5387 36.2302 28.5363L36.245 28.4946C36.2843 28.4178 36.337 28.3646 36.3963 28.302C36.5218 28.168 36.6456 28.0336 36.741 27.8759L36.79 27.8738L36.857 27.7236L36.906 27.7215L36.9239 27.6781C36.952 27.6187 36.985 27.5678 37.0227 27.5139L37.0603 27.4598L37.089 27.419C37.1624 27.4477 37.2084 27.4768 37.2605 27.5357C37.2735 27.5504 37.2866 27.5651 37.3001 27.5803C37.3209 27.6043 37.3209 27.6043 37.3421 27.6287C37.3567 27.6455 37.3713 27.6622 37.3864 27.6794C37.6313 27.962 37.858 28.2552 38.0668 28.5654C38.1141 28.6353 38.1644 28.702 38.2171 28.7681C38.3261 28.908 38.417 29.0588 38.5086 29.2104C38.5478 29.275 38.5876 29.3392 38.6274 29.4035C38.7934 29.6737 38.9442 29.9455 39.0776 30.2332C39.1243 30.3338 39.1753 30.4313 39.2282 30.5287C39.4194 30.8919 39.5497 31.2847 39.6802 31.6728C39.6885 31.6973 39.6968 31.7218 39.7053 31.7471C39.7963 32.0165 39.8862 32.2843 39.9497 32.5618C39.9677 32.6401 39.9886 32.7172 40.01 32.7947C40.1587 33.3674 40.2474 33.9582 40.3056 34.5466C40.3222 34.7132 40.3452 34.8748 40.3874 35.037C40.3927 35.0576 40.398 35.0782 40.4034 35.0994C40.467 35.3403 40.559 35.5312 40.7167 35.7249L40.7512 35.7685C40.863 35.8986 41.0033 35.9858 41.1491 36.074L41.2032 36.107C41.5003 36.2711 41.7882 36.3024 42.1216 36.289C42.1503 36.2879 42.179 36.2868 42.2085 36.2856C42.6474 36.26 43.0257 36.0841 43.3445 35.7814C43.6809 35.3519 43.767 34.9092 43.7368 34.3764C43.7358 34.3554 43.7347 34.3344 43.7336 34.3128C43.6871 33.4068 43.5439 32.4554 43.2468 31.596C43.1965 31.4496 43.1571 31.3005 43.1169 31.151C43.0432 30.8809 42.9589 30.6178 42.8612 30.3556L42.8312 30.2745C42.609 29.6766 42.365 29.0913 42.0694 28.5255C42.0496 28.4872 42.0298 28.4489 42.0101 28.4106C41.8798 28.1597 41.7405 27.915 41.5964 27.6718C41.5639 27.6164 41.5321 27.5608 41.5004 27.505C41.1821 26.9459 40.805 26.4301 40.4095 25.9239L40.3533 25.8518C40.0389 25.4523 39.695 25.075 39.3456 24.7061C39.3127 24.6712 39.28 24.636 39.2473 24.6008L39.1987 24.5521C39.1695 24.5061 39.1695 24.5061 39.1686 24.4469C39.1933 24.3677 39.2305 24.3139 39.2793 24.2467C39.3616 24.1311 39.4379 24.0134 39.5106 23.8915C39.5831 23.7702 39.6567 23.6499 39.7325 23.5306C39.8444 23.3536 39.9479 23.1725 40.0507 22.9902C40.061 22.9718 40.0714 22.9535 40.0821 22.9345C40.1027 22.898 40.1233 22.8614 40.1438 22.8248C40.2161 22.6963 40.2161 22.6963 40.2421 22.6679Z" fill="white"/>
<path d="M39.3036 15.8144C39.5755 15.897 39.8398 15.9895 40.0973 16.1101C40.1829 16.1467 40.2696 16.1771 40.3576 16.2075C40.4774 16.2493 40.5961 16.2941 40.7145 16.3398L40.7897 16.3675L40.8612 16.3954C40.8931 16.4075 40.8931 16.4075 40.9256 16.4199C40.9755 16.4526 40.9755 16.4526 41.0005 16.5082C41.0065 16.5889 40.9896 16.6372 40.9594 16.7121C40.944 16.7515 40.944 16.7515 40.9282 16.7917C40.9122 16.8321 40.9122 16.8321 40.8958 16.8732C40.8771 16.9242 40.8586 16.9752 40.8403 17.0263L40.785 17.1786L40.7571 17.256C40.7188 17.3612 40.6807 17.4657 40.6338 17.5675C40.5714 17.7034 40.5211 17.8442 40.4685 17.9841C40.3619 18.2674 40.2501 18.5464 40.1225 18.821C40.1001 18.8711 40.0779 18.9214 40.0557 18.9716C39.9838 19.1346 39.9088 19.2957 39.8313 19.4561C39.7779 19.5669 39.7271 19.6787 39.6774 19.7913C39.3724 20.4792 39.0282 21.1496 38.6585 21.805C38.6466 21.8261 38.6347 21.8472 38.6225 21.8689C38.0968 22.8025 37.5413 23.7091 36.9519 24.6036C36.924 24.6458 36.8962 24.6881 36.8685 24.7304C36.5743 25.1771 36.2674 25.6159 35.9492 26.0459C35.9382 26.0609 35.9271 26.0758 35.9157 26.0913C35.851 26.1786 35.7863 26.2658 35.7214 26.3529C35.6779 26.4115 35.6345 26.4702 35.5913 26.529C35.4805 26.6796 35.3636 26.8233 35.2427 26.9657C35.1805 27.0393 35.1202 27.1142 35.0602 27.1897C34.8639 27.4355 34.659 27.6745 34.4554 27.9142C34.4309 27.9431 34.4063 27.972 34.3818 28.0009C34.3701 28.0148 34.3583 28.0287 34.3461 28.043C34.286 28.1141 34.2273 28.186 34.1708 28.2601C34.1112 28.3348 34.1112 28.3348 34.0536 28.3848C33.9841 28.446 33.9316 28.5136 33.8746 28.5863C33.8021 28.6766 33.7272 28.7665 33.6429 28.846L33.594 28.8482L33.5493 28.9483L33.5003 28.9504C33.4946 28.965 33.4889 28.9797 33.483 28.9947C33.4537 29.0545 33.421 29.0946 33.3759 29.1435L33.3277 29.196L33.2773 29.2501L33.2285 29.3032C33.1335 29.4061 33.0353 29.5044 32.9334 29.6005C32.8725 29.6588 32.8178 29.7218 32.7627 29.7855C32.7287 29.8185 32.7287 29.8185 32.6797 29.8207L32.6584 29.8952C32.6251 29.9319 32.6251 29.9319 32.5805 29.9722C32.4958 30.0507 32.4133 30.1312 32.3319 30.2132C32.3075 30.2377 32.283 30.2622 32.2586 30.2867C32.2467 30.2987 32.2347 30.3107 32.2224 30.323C31.9219 30.6241 31.607 30.9085 31.2903 31.1924C31.251 31.2277 31.2117 31.2631 31.1725 31.2986C31.0505 31.4085 30.9264 31.5153 30.8002 31.6204C30.6954 31.7082 30.5934 31.7989 30.4917 31.8903C30.343 32.0234 30.1904 32.1499 30.034 32.2738C29.9394 32.3487 29.8463 32.4255 29.7533 32.5023C29.5965 32.6315 29.4378 32.7577 29.2772 32.8821C29.2298 32.9188 29.1826 32.9557 29.1353 32.9926C28.9329 33.1503 28.7282 33.3044 28.5205 33.4549C28.4693 33.4921 28.4184 33.5295 28.3675 33.5669C27.9496 33.874 27.5264 34.1734 27.0925 34.4577C27.0344 34.496 26.9762 34.5343 26.9181 34.5727C26.9046 34.5816 26.8911 34.5905 26.8771 34.5997C26.8065 34.6463 26.7362 34.6933 26.6665 34.7411C26.4747 34.8726 26.2792 34.9955 26.0801 35.1155C26.0219 35.1507 25.9636 35.186 25.9054 35.2213C25.8911 35.23 25.8767 35.2387 25.8619 35.2477C25.7611 35.309 25.6612 35.3717 25.5617 35.435C25.4107 35.5309 25.257 35.6217 25.1018 35.7105C25.0759 35.7254 25.05 35.7402 25.0233 35.7556C24.8363 35.8628 24.6484 35.9685 24.4595 36.0725C24.4022 36.1042 24.3449 36.136 24.2877 36.1678C24.2574 36.1847 24.2271 36.2016 24.1967 36.2184C24.0901 36.2776 23.9837 36.3373 23.8776 36.3972C23.5661 36.5726 23.2534 36.74 22.9294 36.8915C22.7803 36.962 22.6322 37.0349 22.484 37.1073C22.084 37.3027 21.6805 37.4898 21.2757 37.6747C21.23 37.6955 21.1844 37.7164 21.1389 37.7374C20.8301 37.8794 20.513 37.9994 20.1951 38.1194C20.069 38.1671 19.9432 38.2155 19.8175 38.2642C19.7602 38.2863 19.7029 38.3085 19.6456 38.3306C19.609 38.3447 19.5725 38.3588 19.5361 38.373C19.2877 38.4696 19.0374 38.5563 18.7835 38.6372C18.7265 38.6554 18.6698 38.6744 18.6132 38.6937C17.9993 38.9024 17.3806 39.0939 16.7523 39.2541C16.7305 39.2597 16.7087 39.2653 16.6863 39.2711C16.5468 39.3067 16.407 39.3408 16.2668 39.3736L16.1997 39.3894C15.4464 39.565 14.6157 39.6966 13.8456 39.5534C13.8239 39.5495 13.8022 39.5455 13.7799 39.5415C13.2674 39.4454 12.769 39.2703 12.3473 38.9566L12.2972 38.9343L12.2951 38.8853L12.251 38.8675C12.1527 38.8204 12.0743 38.7477 11.9915 38.6778L11.942 38.6363C11.5414 38.2858 11.2565 37.8304 11.0498 37.3451C11.0428 37.3291 11.0358 37.3131 11.0286 37.2966C10.8166 36.8041 10.7928 36.2541 10.7732 35.7255C10.7721 35.6968 10.7709 35.668 10.7697 35.6384C10.7511 35.1773 10.7524 34.7247 10.792 34.2648C10.7956 34.2176 10.7992 34.1703 10.8027 34.1231C10.8771 33.195 11.0082 32.2528 11.2601 31.3552C11.2786 31.2874 11.2958 31.2193 11.3131 31.1511C11.3969 30.821 11.489 30.4955 11.5945 30.1717C11.616 30.1053 11.6369 30.0386 11.6576 29.9719C11.6677 29.9395 11.6677 29.9396 11.678 29.9065C11.6907 29.8661 11.7032 29.8256 11.7157 29.785C11.747 29.6857 11.7836 29.5993 11.8347 29.5081C11.8483 29.468 11.8608 29.4276 11.8723 29.3868C11.9227 29.2206 11.9901 29.0629 12.0579 28.9032C12.0828 28.8438 12.1064 28.7838 12.13 28.7238C12.2439 28.4405 12.3742 28.1639 12.5028 27.887C12.5138 27.8632 12.5247 27.8394 12.5361 27.8149C12.6088 27.6589 12.6876 27.5075 12.7709 27.3569C12.7888 27.3237 12.8066 27.2905 12.8244 27.2573C13.0813 26.7827 13.3627 26.3187 13.6626 25.8702C13.6832 25.839 13.7039 25.8077 13.7245 25.7765C13.847 25.5916 13.9724 25.4089 14.1007 25.228C14.1329 25.1818 14.1634 25.1345 14.1925 25.0863L14.2415 25.0842L14.2582 25.042C14.3594 24.8328 14.5382 24.6504 14.6882 24.4737C14.7467 24.4048 14.8045 24.3354 14.862 24.2657L14.9082 24.2096C14.9371 24.1741 14.9659 24.1384 14.994 24.1023C15.1074 23.9576 15.2294 23.8213 15.3534 23.6858C15.3889 23.647 15.4242 23.6081 15.4594 23.5691C15.482 23.5444 15.5046 23.5197 15.5272 23.495C15.5474 23.4728 15.5677 23.4505 15.5886 23.4276C15.6389 23.3789 15.6389 23.3789 15.6879 23.3768L15.7326 23.2767L15.7815 23.2745L15.7794 23.2256C15.8105 23.1913 15.8105 23.1913 15.8558 23.1501C15.9191 23.0917 15.9811 23.0325 16.0414 22.971C16.054 22.9582 16.0666 22.9454 16.0795 22.9321C16.1047 22.9064 16.1298 22.8806 16.1548 22.8547C16.2444 22.7635 16.2444 22.7635 16.2988 22.7611L16.2967 22.7121C16.345 22.6672 16.3936 22.6249 16.4444 22.583C16.475 22.5572 16.5056 22.5314 16.5362 22.5055L16.583 22.466C16.6475 22.4107 16.7098 22.3533 16.7722 22.2956C16.9089 22.1705 17.0503 22.0524 17.195 21.9367C17.2109 21.924 17.2267 21.9113 17.243 21.8982C17.6947 21.537 18.1545 21.1873 18.6388 20.8708C18.7275 20.8128 18.8146 20.7532 18.9009 20.6918C19.6112 20.1907 20.4371 19.7667 21.2373 19.4292C21.3071 19.3997 21.3767 19.3695 21.4462 19.3392C22.221 19.0031 23.0124 18.7393 23.8285 18.5242C23.9068 18.5034 23.9848 18.482 24.0628 18.4603C24.6101 18.3092 25.1657 18.2192 25.7264 18.1351C25.7513 18.1313 25.7762 18.1276 25.8018 18.1237C26.3853 18.036 26.9656 17.9935 27.5547 17.9675C27.5819 17.9663 27.5819 17.9663 27.6097 17.965C28.1702 17.9401 28.7268 17.9262 29.287 17.9654C29.3402 17.9691 29.3934 17.9727 29.4467 17.9762C29.653 17.99 29.8591 18.0061 30.0651 18.0241C30.1392 18.0305 30.2133 18.0364 30.2875 18.0421C31.071 18.1058 31.8626 18.27 32.6232 18.4629C32.6594 18.472 32.6594 18.472 32.6963 18.4813C32.9109 18.5362 33.1234 18.5972 33.3357 18.6601C33.3618 18.6678 33.3618 18.6678 33.3884 18.6757C33.5941 18.7366 33.7994 18.7983 34.0027 18.867C34.0193 18.8726 34.0359 18.8782 34.0531 18.8839C34.1514 18.918 34.2454 18.9585 34.3401 19.0016C34.419 19.036 34.5001 19.0635 34.5815 19.0916C35.004 19.2414 35.4117 19.4277 35.8147 19.6233L35.8826 19.6562C35.9515 19.6896 36.0202 19.7232 36.089 19.757C36.1102 19.7673 36.1314 19.7777 36.1533 19.7884C36.1831 19.8031 36.1831 19.8031 36.2135 19.8181C36.2397 19.831 36.2397 19.831 36.2664 19.8442C36.3195 19.8729 36.3683 19.9055 36.4175 19.9404C36.3735 20.0718 36.3142 20.193 36.2531 20.3172C36.2411 20.3416 36.2291 20.3661 36.2167 20.3913C36.106 20.6149 35.9877 20.834 35.8676 21.0527C35.7998 21.177 35.7334 21.3021 35.6669 21.4271C35.6539 21.4515 35.6409 21.4759 35.6275 21.5011C35.5972 21.558 35.5669 21.615 35.5366 21.672C35.3638 21.6391 35.21 21.5532 35.0569 21.4692C34.4682 21.1562 33.8191 20.9323 33.1884 20.7199C33.1648 20.7119 33.1412 20.7039 33.1169 20.6957C32.8006 20.5887 32.4845 20.4927 32.1596 20.4155C32.0899 20.3987 32.0203 20.3811 31.9507 20.3633C31.6395 20.2845 31.3282 20.2195 31.0118 20.1654C30.9619 20.1566 30.9122 20.1465 30.8625 20.1362C30.5898 20.0798 30.3149 20.0422 30.0382 20.0116C30.0213 20.0097 30.0045 20.0079 29.9871 20.0059C29.3659 19.9374 28.7453 19.905 28.1208 19.9321C28.0816 19.9337 28.0424 19.9354 28.0032 19.937C27.9215 19.9405 27.8399 19.944 27.7582 19.9476C27.6758 19.9512 27.5934 19.9546 27.511 19.9579C27.0432 19.9765 26.5816 20.0023 26.1181 20.0731C26.0863 20.0776 26.0544 20.0821 26.0216 20.0867C25.9444 20.0976 25.8675 20.1092 25.7905 20.1212C25.7636 20.1254 25.7367 20.1297 25.709 20.134C25.5162 20.165 25.3245 20.2002 25.1332 20.239C25.1092 20.2438 25.0852 20.2487 25.0604 20.2536C24.9146 20.2841 24.773 20.3228 24.6305 20.3663C24.5325 20.3954 24.4334 20.4182 24.3339 20.4412C24.0657 20.5054 23.805 20.589 23.5437 20.6768L23.4872 20.6955C23.2138 20.7863 22.9442 20.8877 22.6748 20.9899C22.6368 21.0043 22.5988 21.0187 22.5607 21.033C22.3443 21.1146 22.1345 21.2019 21.9271 21.3045C21.8411 21.3466 21.7543 21.3828 21.6655 21.4186C21.4956 21.4887 21.3371 21.5738 21.1781 21.6655C21.1155 21.7014 21.0523 21.7342 20.9874 21.7657C20.8375 21.8395 20.6936 21.9238 20.5489 22.0073L20.4645 22.0556C20.301 22.1497 20.1419 22.248 19.9859 22.3541C19.9505 22.3778 19.9151 22.4015 19.8797 22.4252C19.8263 22.4611 19.773 22.4971 19.7197 22.5331C19.638 22.5883 19.5564 22.6434 19.4738 22.6971C19.3126 22.8031 19.1635 22.9184 19.0157 23.0418C18.9004 23.138 18.7828 23.2303 18.6635 23.3214C18.3964 23.5263 18.1455 23.7468 17.8996 23.9766C17.8349 24.0369 17.7685 24.0952 17.7017 24.1534C17.5554 24.2835 17.4204 24.4242 17.2844 24.5649C17.215 24.6368 17.1446 24.7074 17.0734 24.7775C16.9713 24.878 16.8768 24.9791 16.7897 25.0928C16.7355 25.1602 16.677 25.2233 16.6181 25.2866C16.5309 25.3807 16.4475 25.4763 16.3686 25.5775C16.2994 25.6649 16.2267 25.7495 16.1545 25.8344C16.0758 25.9329 16.004 26.0355 15.9317 26.1387C15.9053 26.1758 15.8789 26.2129 15.8524 26.25C15.3201 26.9977 14.8468 27.761 14.4367 28.5828C14.4111 28.634 14.3854 28.6852 14.3596 28.7364C14.0851 29.2824 13.8243 29.8485 13.6706 30.442C13.6416 30.5501 13.6032 30.6528 13.5633 30.7573C13.5221 30.873 13.4904 30.991 13.4583 31.1094C13.4381 31.1818 13.4137 31.2519 13.388 31.3225C13.3386 31.4617 13.3043 31.6029 13.2717 31.7469C13.2655 31.7737 13.2593 31.8006 13.2529 31.8283C13.1992 32.0646 13.1528 32.3021 13.1087 32.5404C13.0959 32.6083 13.0815 32.6759 13.0669 32.7435C12.9731 33.2092 12.9312 33.6776 12.8938 34.1505C12.8848 34.2638 12.8747 34.3768 12.8633 34.4899C12.83 34.8433 12.8364 35.1928 12.8495 35.5471C12.8505 35.5818 12.8505 35.5818 12.8516 35.6173C12.8706 36.1916 12.9776 36.7313 13.373 37.1696C13.8065 37.5619 14.3286 37.6026 14.8872 37.577C15.1963 37.5611 15.4894 37.508 15.7891 37.4316C15.8054 37.4275 15.8217 37.4233 15.8386 37.419C16.7246 37.1924 17.5955 36.9202 18.4601 36.6224C18.5204 36.6017 18.5809 36.5813 18.6415 36.5611C19.2931 36.3409 19.9301 36.0722 20.562 35.8011C20.6644 35.7573 20.7674 35.7152 20.8707 35.6737C21.1199 35.5728 21.3608 35.4548 21.5999 35.3321C21.71 35.2756 21.8204 35.2205 21.9327 35.1686C22.3146 34.9904 22.686 34.792 23.0567 34.5918C23.1567 34.5378 23.2568 34.4842 23.3573 34.4314C23.6176 34.2944 23.8747 34.1526 24.1299 34.0064C24.1442 33.9983 24.1584 33.9902 24.1731 33.9818C24.3595 33.8752 24.5423 33.7641 24.7233 33.6487C24.8591 33.5624 24.9973 33.4801 25.1359 33.3982C25.3125 33.2936 25.4861 33.1855 25.6578 33.073C25.6837 33.0561 25.6837 33.0561 25.7102 33.0388C25.9741 32.8666 26.2339 32.6898 26.4896 32.5056C26.5572 32.4571 26.6252 32.4089 26.6932 32.3608C26.8823 32.2268 27.0699 32.0909 27.2565 31.9535C27.3057 31.9174 27.3549 31.8814 27.4042 31.8454C27.6753 31.647 27.9444 31.4469 28.2028 31.232C28.3186 31.1357 28.4364 31.0422 28.555 30.9493C28.8388 30.7263 29.1122 30.4909 29.3831 30.2524C29.4319 30.2097 29.4813 30.1677 29.531 30.1259C29.7807 29.9141 30.0234 29.6942 30.2631 29.4712L30.3307 29.4084L30.369 29.3719C30.4669 29.2798 30.4669 29.2798 30.5212 29.2774L30.5191 29.2284C30.5518 29.1924 30.5518 29.1924 30.5984 29.1498C30.6994 29.0564 30.7964 28.9596 30.8931 28.8617C30.9427 28.8173 30.9427 28.8173 30.9917 28.8151L30.9895 28.7661C31.0206 28.7319 31.0206 28.7319 31.066 28.6907C31.1528 28.6101 31.237 28.5275 31.3204 28.4434C31.4077 28.3556 31.4955 28.2687 31.5873 28.1857C31.6291 28.1454 31.668 28.1027 31.7071 28.0598C31.7444 28.0189 31.7819 27.9782 31.8194 27.9376C31.897 27.8533 31.9745 27.7689 32.052 27.6845C32.0853 27.6483 32.1186 27.6122 32.1519 27.576C32.2004 27.5233 32.2489 27.4706 32.2973 27.4178C32.312 27.402 32.3267 27.3861 32.3418 27.3697C32.4302 27.2731 32.5138 27.1739 32.5946 27.0708C32.6466 27.0058 32.7026 26.9458 32.7595 26.8851C32.8488 26.789 32.9332 26.6907 33.0139 26.5873C33.0508 26.5415 33.0897 26.499 33.1302 26.4563C33.1989 26.3829 33.2584 26.3052 33.3179 26.2242C33.3807 26.1386 33.4443 26.0579 33.5173 25.9808C33.6078 25.8847 33.6854 25.7818 33.7634 25.6754C33.824 25.5935 33.8861 25.5131 33.9487 25.4328C34.0387 25.3171 34.1262 25.1998 34.2121 25.0809C34.2566 25.0206 34.3024 24.9615 34.3487 24.9025C34.4741 24.7428 34.5917 24.5787 34.707 24.4115C34.778 24.3088 34.8503 24.2076 34.9257 24.108C35.0328 23.9663 35.1328 23.8203 35.2317 23.6728L35.276 23.607C35.3815 23.4487 35.4843 23.2888 35.5868 23.1286C35.6399 23.0457 35.693 22.9629 35.7473 22.8808C35.9209 22.6176 36.0827 22.3475 36.2451 22.0774C36.2916 22 36.3383 21.9228 36.3851 21.8455C36.4036 21.8149 36.4222 21.7843 36.4407 21.7537C36.4803 21.6881 36.52 21.6227 36.5602 21.5575C36.713 21.3089 36.8533 21.0534 36.995 20.7984C37.0126 20.7666 37.0303 20.7349 37.048 20.7032C37.0774 20.6505 37.1067 20.5977 37.1359 20.545C37.1629 20.4966 37.1899 20.4483 37.2172 20.4001C37.537 19.8324 37.8268 19.2492 38.1066 18.6609C38.1194 18.6341 38.1194 18.6341 38.1324 18.6066C38.2953 18.2643 38.4525 17.9199 38.5959 17.5688C38.6293 17.4877 38.6637 17.407 38.6985 17.3264C38.8003 17.0904 38.8996 16.8549 38.9846 16.6123C39.0369 16.4633 39.0966 16.3179 39.158 16.1724C39.1952 16.0839 39.2306 15.9948 39.2652 15.9053C39.2772 15.8747 39.2902 15.8444 39.3036 15.8144Z" fill="white"/>
<path d="M26.8496 23.5575C28.0053 23.3734 29.2399 23.4503 30.3877 23.6465C30.4651 23.6597 30.5426 23.6724 30.6201 23.6849C30.9111 23.7333 31.1906 23.8041 31.4728 23.8894C31.536 23.9081 31.5994 23.9256 31.663 23.9426C32.1131 24.064 32.5537 24.2218 32.9766 24.4183C33.0994 24.4752 33.2243 24.5207 33.353 24.5623C33.4071 24.5871 33.4071 24.5871 33.4348 24.6595C33.4043 24.7122 33.4043 24.7122 33.357 24.7733L33.3047 24.8418L33.2496 24.9129C33.2163 24.9578 33.183 25.0027 33.1497 25.0477C33.0612 25.1659 32.971 25.2828 32.8804 25.3994C32.814 25.485 32.7487 25.5714 32.6842 25.6585C32.5968 25.776 32.5068 25.8913 32.4158 26.0061C32.4026 26.0228 32.3894 26.0394 32.3758 26.0566C32.3277 26.117 32.2801 26.1767 32.2279 26.2336C32.1105 26.2307 32.0039 26.1772 31.8969 26.1331C31.6861 26.0485 31.474 25.9745 31.2568 25.9082C31.2409 25.9033 31.2251 25.8983 31.2088 25.8933C31.0765 25.8525 30.9433 25.8159 30.8095 25.7806L30.7281 25.7589C29.9318 25.5505 29.1165 25.433 28.2923 25.4493C28.2637 25.4498 28.2637 25.4498 28.2346 25.4503C27.6323 25.4609 27.0506 25.508 26.4599 25.6278L26.3777 25.6441C25.7126 25.7775 25.0382 25.9823 24.4275 26.2813C24.3885 26.299 24.3494 26.3166 24.3102 26.334L24.2533 26.3599C24.2168 26.3765 24.1802 26.393 24.1435 26.4092C23.8746 26.5283 23.6217 26.6639 23.3715 26.8184C23.3411 26.837 23.3411 26.837 23.3102 26.8561C23.0186 27.0362 22.7328 27.2217 22.4596 27.4288C22.3943 27.4746 22.3943 27.4746 22.3453 27.4768L22.3474 27.5258C22.3057 27.5622 22.3057 27.5622 22.2466 27.6053C21.9047 27.8614 21.5579 28.14 21.2765 28.463C21.2348 28.5096 21.1904 28.5514 21.1445 28.5937C21.0467 28.6848 20.9654 28.7867 20.8832 28.8918L20.8392 28.9414L20.7902 28.9435C20.7841 28.9584 20.778 28.9732 20.7717 28.9885C20.7468 29.041 20.7205 29.0802 20.684 29.1252C20.6719 29.1404 20.6597 29.1555 20.6471 29.1712C20.6276 29.1953 20.6276 29.1953 20.6076 29.2199C20.58 29.2545 20.5523 29.289 20.5247 29.3236C20.4863 29.3714 20.4479 29.4192 20.4093 29.4668C20.1407 29.7982 19.9112 30.1627 19.7069 30.5368C19.699 30.5512 19.691 30.5656 19.6829 30.5804C19.4423 31.0171 19.2293 31.4684 19.0549 31.9357C19.0347 31.989 19.0135 32.0418 18.9922 32.0946C18.7315 32.7505 18.5644 33.4808 18.4757 34.1793C18.4385 34.4542 18.3356 34.6145 18.1273 34.8018C17.8184 35.0213 17.4366 35.0943 17.0743 35.18C17.0201 35.193 16.9663 35.2069 16.9125 35.2211L16.8188 35.2457L16.7383 35.2672C16.6278 35.2882 16.5191 35.292 16.4069 35.2944C16.4142 34.3896 16.486 33.4694 16.7341 32.5953C16.7525 32.5288 16.7697 32.462 16.7869 32.3952C16.8458 32.1675 16.9158 31.9446 16.9909 31.7218C16.997 31.7035 17.0031 31.6852 17.0094 31.6663C17.1675 31.1954 17.3394 30.7354 17.5584 30.2891C17.5817 30.2413 17.6046 30.1933 17.6271 30.1452C17.7101 29.9694 17.8017 29.8018 17.9007 29.6346C17.9255 29.5916 17.9503 29.5485 17.9751 29.5054C18.0021 29.4588 18.0291 29.4122 18.0561 29.3656C18.0692 29.3426 18.0823 29.3197 18.0958 29.2961C18.1145 29.2641 18.1145 29.2641 18.1335 29.2315C18.1446 29.2122 18.1558 29.1929 18.1673 29.1729C18.1773 29.1591 18.1873 29.1452 18.1976 29.1309L18.2466 29.1287L18.2633 29.0744C18.2918 28.9999 18.3271 28.9422 18.372 28.8763L18.4221 28.8024L18.4743 28.7261L18.5227 28.6531C18.6407 28.4766 18.7679 28.3098 18.9002 28.1439C18.9592 28.071 18.9592 28.071 19.0003 28.0061L19.0298 27.9657L19.0788 27.9635L19.0935 27.9228C19.1334 27.8438 19.1882 27.7805 19.2457 27.7139C19.2641 27.6925 19.2641 27.6924 19.2828 27.6705C19.4727 27.4499 19.6657 27.2294 19.88 27.032C19.922 26.992 19.9602 26.9499 19.9985 26.9065C20.0601 26.8409 20.0601 26.8409 20.109 26.8388L20.1069 26.7898C20.1884 26.7126 20.1884 26.7126 20.2506 26.7099L20.2484 26.6609C20.2832 26.6265 20.2832 26.6265 20.3341 26.5851C20.4146 26.5186 20.4943 26.4513 20.573 26.3826C21.1124 25.9131 21.6921 25.5097 22.3003 25.135C22.3381 25.1116 22.376 25.0882 22.4137 25.0646C23.0537 24.6648 23.7662 24.3724 24.4748 24.1198C24.5422 24.0957 24.6094 24.071 24.6765 24.0461C25.3033 23.8195 25.9755 23.6959 26.6323 23.5929C26.7048 23.5816 26.7772 23.5696 26.8496 23.5575Z" fill="white"/>
</svg>
