<svg width="28" height="28" viewBox="0 0 28 28" fill="none" xmlns="http://www.w3.org/2000/svg">
<path d="M21.7778 0H6.22222C2.78578 0 0 2.78578 0 6.22222V21.7778C0 25.2142 2.78578 28 6.22222 28H21.7778C25.2142 28 28 25.2142 28 21.7778V6.22222C28 2.78578 25.2142 0 21.7778 0Z" fill="#0C0C0E"/>
<path d="M22.1413 10.1783C22.2146 10.2019 22.2605 10.2552 22.3132 10.3085C22.3231 10.3183 22.3329 10.3281 22.3431 10.3382C22.4137 10.4092 22.4808 10.4827 22.5467 10.558C22.5861 10.6018 22.6274 10.6431 22.6693 10.6845C22.742 10.7568 22.8067 10.8331 22.8708 10.913C22.9095 10.9599 22.9498 11.0043 22.9913 11.0487C23.0929 11.1591 23.1843 11.2769 23.2765 11.3951C23.3061 11.4329 23.3359 11.4704 23.3659 11.5078C23.4547 11.619 23.5424 11.7298 23.6225 11.8475C23.6509 11.8885 23.6803 11.9286 23.7101 11.9685C23.9413 12.2795 24.1541 12.6061 24.3399 12.9462C24.3606 12.9841 24.3816 13.0219 24.4029 13.0594C24.5559 13.3299 24.6935 13.6074 24.819 13.8917C24.8336 13.9244 24.8484 13.9569 24.8634 13.9894C24.939 14.1533 25.006 14.32 25.0716 14.4881C25.0777 14.5037 25.0839 14.5193 25.0902 14.5354C25.1662 14.7296 25.2387 14.924 25.3008 15.1231C25.3147 15.1672 25.3292 15.2111 25.3437 15.255C25.461 15.6129 25.5527 15.9772 25.6385 16.3438C25.6422 16.3597 25.6459 16.3756 25.6498 16.3919C25.8183 17.1279 25.9812 17.9838 25.8125 18.7307L25.8017 18.7806C25.7178 19.162 25.5786 19.4999 25.3208 19.7966C25.302 19.8201 25.2833 19.8437 25.2647 19.8674C24.8718 20.3566 24.2785 20.628 23.6635 20.7014C23 20.7651 22.3075 20.5762 21.7894 20.1524L21.7487 20.1175C21.7148 20.0887 21.6801 20.062 21.6446 20.0353C21.2512 19.7188 21.0229 19.2415 20.8863 18.7673C20.8828 18.7553 20.8793 18.7434 20.8757 18.7311C20.8509 18.6437 20.8357 18.5571 20.8242 18.4671C20.8222 18.452 20.8202 18.437 20.8181 18.4215C20.8032 18.3062 20.7911 18.1907 20.7793 18.0752C20.7335 17.6264 20.6659 17.1885 20.5054 16.7641C20.4903 16.7237 20.4761 16.6832 20.4625 16.6422C20.3206 16.2189 20.1297 15.8194 19.9079 15.4325C19.8984 15.416 19.8984 15.416 19.8888 15.3991C19.7083 15.0837 19.5082 14.7796 19.2646 14.5085L19.2356 14.4758L19.2103 14.4484C19.1875 14.4068 19.196 14.3829 19.2071 14.3374C19.2295 14.3047 19.2295 14.3046 19.2583 14.2736L19.2897 14.2396L19.3227 14.2048L19.3554 14.1691C19.4361 14.0826 19.4361 14.0826 19.4733 14.0809L19.4831 14.0532C19.5092 14.0022 19.5443 13.9667 19.5837 13.9252C19.6672 13.836 19.7496 13.7466 19.813 13.6418L19.8456 13.6404L19.8901 13.5405L19.9227 13.5391L19.9346 13.5102C19.9533 13.4707 19.9752 13.4369 20.0003 13.4011L20.0253 13.365L20.0444 13.3379C20.0932 13.357 20.1238 13.3763 20.1584 13.4155C20.1671 13.4253 20.1758 13.4351 20.1848 13.4452C20.1986 13.4611 20.1986 13.4611 20.2127 13.4774C20.2224 13.4885 20.2322 13.4996 20.2422 13.5111C20.4051 13.699 20.5558 13.894 20.6947 14.1003C20.7261 14.1468 20.7596 14.1912 20.7946 14.2351C20.8671 14.3282 20.9275 14.4284 20.9885 14.5292C21.0146 14.5722 21.041 14.6149 21.0674 14.6576C21.1779 14.8374 21.2781 15.0181 21.3669 15.2094C21.3979 15.2763 21.4319 15.3411 21.467 15.4059C21.5942 15.6475 21.6808 15.9087 21.7676 16.1668C21.7731 16.1831 21.7786 16.1994 21.7843 16.2162C21.8448 16.3954 21.9046 16.5735 21.9468 16.758C21.9588 16.8101 21.9727 16.8613 21.9869 16.9129C22.0858 17.2937 22.1448 17.6867 22.1835 18.078C22.1946 18.1887 22.2099 18.2962 22.238 18.4041C22.2414 18.4178 22.2449 18.4314 22.2485 18.4455C22.2909 18.6057 22.352 18.7327 22.4569 18.8616L22.4799 18.8905C22.5542 18.9771 22.6475 19.0351 22.7445 19.0937L22.7805 19.1156C22.978 19.2248 23.1695 19.2456 23.3912 19.2367C23.4103 19.2359 23.4294 19.2352 23.449 19.2344C23.7409 19.2174 23.9925 19.1004 24.2045 18.8991C24.4281 18.6135 24.4854 18.3191 24.4654 17.9647C24.4647 17.9508 24.464 17.9369 24.4632 17.9225C24.4323 17.3199 24.3371 16.6872 24.1395 16.1158C24.106 16.0184 24.0798 15.9192 24.0531 15.8198C24.0041 15.6402 23.948 15.4652 23.883 15.2908L23.8631 15.2369C23.7153 14.8392 23.5531 14.45 23.3565 14.0738C23.3433 14.0483 23.3302 14.0228 23.317 13.9974C23.2304 13.8305 23.1377 13.6677 23.0419 13.506C23.0203 13.4692 22.9991 13.4322 22.9781 13.3951C22.7664 13.0233 22.5156 12.6803 22.2526 12.3436L22.2152 12.2957C22.0062 12.03 21.7775 11.7791 21.5451 11.5337C21.5232 11.5105 21.5014 11.4872 21.4797 11.4638L21.4474 11.4313C21.428 11.4008 21.428 11.4008 21.4274 11.3614C21.4438 11.3087 21.4685 11.2729 21.501 11.2283C21.5557 11.1514 21.6065 11.0731 21.6548 10.9921C21.703 10.9114 21.752 10.8313 21.8024 10.752C21.8768 10.6343 21.9456 10.5139 22.014 10.3926C22.0209 10.3804 22.0278 10.3682 22.0349 10.3556C22.0486 10.3313 22.0623 10.307 22.0759 10.2826C22.124 10.1972 22.124 10.1972 22.1413 10.1783Z" fill="url(#paint0_linear_466_1047)"/>
<path d="M21.5172 5.62056C21.698 5.67549 21.8738 5.73699 22.045 5.81724C22.102 5.84158 22.1596 5.86178 22.2181 5.88196C22.2978 5.90977 22.3767 5.93955 22.4554 5.97L22.5055 5.98842L22.553 6.00696C22.5742 6.01502 22.5742 6.01502 22.5959 6.02324C22.629 6.04499 22.629 6.04499 22.6456 6.08198C22.6496 6.13564 22.6384 6.16772 22.6183 6.21755C22.608 6.24377 22.608 6.24377 22.5976 6.27051C22.5869 6.29734 22.5869 6.29734 22.576 6.32471C22.5636 6.3586 22.5513 6.39254 22.5391 6.42652L22.5023 6.52782L22.4838 6.57925C22.4583 6.64923 22.433 6.71875 22.4018 6.78642C22.3603 6.8768 22.3268 6.97041 22.2919 7.06346C22.221 7.25187 22.1466 7.43743 22.0617 7.62001C22.0468 7.65335 22.0321 7.68677 22.0174 7.72019C21.9695 7.82855 21.9196 7.93573 21.8681 8.04237C21.8326 8.11609 21.7988 8.19044 21.7657 8.26528C21.5629 8.7228 21.334 9.16863 21.0882 9.60446C21.0803 9.61849 21.0724 9.63253 21.0642 9.64698C20.7146 10.2679 20.3452 10.8707 19.9532 11.4656C19.9347 11.4937 19.9162 11.5218 19.8977 11.5499C19.7021 11.847 19.498 12.1388 19.2864 12.4248C19.2791 12.4347 19.2717 12.4447 19.2641 12.4549C19.2211 12.513 19.1781 12.571 19.1349 12.6289C19.106 12.6679 19.0771 12.7069 19.0484 12.7461C18.9747 12.8462 18.897 12.9417 18.8166 13.0364C18.7752 13.0854 18.7351 13.1352 18.6952 13.1854C18.5646 13.3489 18.4284 13.5078 18.293 13.6672C18.2767 13.6864 18.2604 13.7057 18.2441 13.7249C18.2362 13.7341 18.2284 13.7433 18.2203 13.7529C18.1803 13.8002 18.1413 13.848 18.1038 13.8973C18.0641 13.9469 18.0641 13.9469 18.0258 13.9802C17.9796 14.0209 17.9447 14.0659 17.9068 14.1142C17.8585 14.1742 17.8087 14.234 17.7527 14.2869L17.7201 14.2884L17.6904 14.3549L17.6578 14.3564C17.654 14.3661 17.6502 14.3758 17.6463 14.3858C17.6268 14.4256 17.6051 14.4522 17.5751 14.4847L17.5431 14.5196L17.5095 14.5556L17.4771 14.591C17.4139 14.6594 17.3486 14.7248 17.2808 14.7887C17.2403 14.8274 17.204 14.8693 17.1673 14.9117C17.1447 14.9337 17.1447 14.9337 17.1121 14.9351L17.098 14.9847C17.0758 15.0091 17.0758 15.0091 17.0462 15.0359C16.9898 15.0881 16.935 15.1416 16.8808 15.1961C16.8646 15.2124 16.8483 15.2287 16.8321 15.245C16.8241 15.253 16.8162 15.2609 16.808 15.2691C16.6082 15.4694 16.3987 15.6585 16.1881 15.8473C16.162 15.8708 16.1359 15.8943 16.1098 15.9179C16.0287 15.991 15.9461 16.0621 15.8622 16.132C15.7925 16.1903 15.7247 16.2507 15.657 16.3114C15.5581 16.3999 15.4566 16.4841 15.3526 16.5665C15.2897 16.6163 15.2278 16.6673 15.166 16.7185C15.0617 16.8043 14.9562 16.8883 14.8494 16.971C14.8179 16.9954 14.7864 17.0199 14.755 17.0445C14.6204 17.1494 14.4843 17.2518 14.3461 17.352C14.3121 17.3767 14.2782 17.4015 14.2444 17.4264C13.9665 17.6307 13.685 17.8298 13.3965 18.0188C13.3578 18.0443 13.3192 18.0698 13.2805 18.0953C13.2715 18.1012 13.2625 18.1072 13.2532 18.1133C13.2063 18.1443 13.1596 18.1755 13.1132 18.2073C12.9856 18.2947 12.8556 18.3765 12.7232 18.4563C12.6845 18.4797 12.6458 18.5032 12.6071 18.5267C12.5975 18.5324 12.5879 18.5382 12.5781 18.5442C12.511 18.5849 12.4447 18.6266 12.3785 18.6687C12.278 18.7325 12.1759 18.7929 12.0726 18.852C12.0554 18.8619 12.0382 18.8717 12.0204 18.8819C11.896 18.9533 11.7711 19.0236 11.6455 19.0927C11.6073 19.1138 11.5693 19.1349 11.5312 19.1561C11.5111 19.1673 11.4909 19.1785 11.4707 19.1897C11.3998 19.2291 11.3291 19.2688 11.2585 19.3087C11.0513 19.4253 10.8434 19.5366 10.6279 19.6373C10.5287 19.6842 10.4303 19.7327 10.3317 19.7809C10.0657 19.9108 9.79739 20.0353 9.52814 20.1582C9.49781 20.1721 9.46748 20.186 9.43719 20.1999C9.23182 20.2944 9.02094 20.3741 8.80956 20.4539C8.7257 20.4856 8.64204 20.5179 8.55843 20.5502C8.52032 20.565 8.4822 20.5797 8.44408 20.5944C8.4198 20.6038 8.39553 20.6132 8.37127 20.6226C8.20609 20.6868 8.03967 20.7445 7.87081 20.7983C7.83291 20.8104 7.7952 20.823 7.75752 20.8359C7.34929 20.9746 6.93784 21.102 6.51999 21.2086C6.5055 21.2123 6.49101 21.216 6.47608 21.2199C6.38332 21.2436 6.29034 21.2662 6.19713 21.288L6.1525 21.2985C5.65155 21.4153 5.09912 21.5028 4.58697 21.4076C4.57254 21.405 4.55812 21.4024 4.54325 21.3997C4.20243 21.3358 3.87099 21.2193 3.59053 21.0107L3.55725 20.9959L3.55582 20.9633L3.52649 20.9514C3.46118 20.9201 3.40902 20.8718 3.35396 20.8253L3.321 20.7977C3.05465 20.5646 2.86518 20.2617 2.72767 19.939C2.72301 19.9284 2.71836 19.9177 2.71357 19.9068C2.57261 19.5793 2.55678 19.2135 2.54377 18.862C2.54299 18.8428 2.54221 18.8237 2.5414 18.804C2.52907 18.4974 2.52994 18.1964 2.55624 17.8905C2.55863 17.8591 2.56101 17.8277 2.56338 17.7963C2.61282 17.1791 2.70001 16.5525 2.86753 15.9556C2.87982 15.9105 2.89132 15.8652 2.9028 15.8199C2.95851 15.6004 3.01978 15.3839 3.08996 15.1686C3.10424 15.1243 3.11812 15.08 3.1319 15.0357C3.13862 15.0141 3.13863 15.0141 3.14548 14.9922C3.15389 14.9653 3.16223 14.9383 3.17052 14.9114C3.19135 14.8453 3.2157 14.7879 3.24967 14.7272C3.25873 14.7006 3.26705 14.6737 3.27469 14.6466C3.30821 14.536 3.35302 14.4312 3.39807 14.325C3.41466 14.2854 3.43036 14.2455 3.44606 14.2056C3.52181 14.0172 3.60848 13.8333 3.69395 13.6492C3.70126 13.6333 3.70856 13.6175 3.7161 13.6012C3.76448 13.4975 3.8169 13.3968 3.87225 13.2966C3.88414 13.2746 3.89601 13.2525 3.90785 13.2304C4.07868 12.9148 4.2658 12.6062 4.46526 12.3079C4.47899 12.2871 4.49272 12.2664 4.50644 12.2456C4.58792 12.1226 4.67127 12.0012 4.75662 11.8808C4.77803 11.8501 4.79832 11.8186 4.81769 11.7866L4.85026 11.7852L4.86134 11.7572C4.92863 11.618 5.04756 11.4967 5.14733 11.3792C5.1862 11.3334 5.22466 11.2872 5.26288 11.2409L5.29362 11.2036C5.31285 11.1799 5.33199 11.1562 5.35071 11.1322C5.42613 11.036 5.5072 10.9453 5.58972 10.8553C5.61331 10.8295 5.63676 10.8036 5.66021 10.7776C5.67521 10.7612 5.69023 10.7448 5.70525 10.7284C5.71874 10.7136 5.73223 10.6988 5.74613 10.6835C5.77956 10.6512 5.77956 10.6512 5.81213 10.6497L5.84185 10.5832L5.87442 10.5817L5.87299 10.5492C5.89366 10.5264 5.89366 10.5264 5.92382 10.499C5.96589 10.4601 6.00714 10.4208 6.04722 10.3799C6.05559 10.3714 6.06396 10.3628 6.07259 10.354C6.08932 10.3369 6.106 10.3198 6.12263 10.3025C6.18225 10.2419 6.18226 10.2419 6.21842 10.2403L6.21699 10.2077C6.2491 10.1779 6.28144 10.1497 6.31521 10.1218C6.3356 10.1047 6.35596 10.0875 6.37631 10.0703L6.40742 10.0441C6.45032 10.0073 6.49173 9.96911 6.53323 9.93076C6.62413 9.84752 6.71818 9.76897 6.81443 9.69202C6.82496 9.68359 6.83549 9.67516 6.84634 9.66647C7.14669 9.42624 7.45252 9.19369 7.77459 8.98317C7.83354 8.94461 7.89147 8.90498 7.94888 8.86414C8.42124 8.53091 8.9705 8.24893 9.50262 8.02453C9.54906 8.00487 9.59531 7.9848 9.64154 7.96467C10.1568 7.74116 10.6831 7.56567 11.2259 7.42262C11.2779 7.4088 11.3298 7.39458 11.3817 7.38016C11.7456 7.27966 12.1151 7.21982 12.488 7.16387C12.5046 7.16137 12.5211 7.15888 12.5382 7.1563C12.9262 7.09801 13.3121 7.06974 13.7038 7.05242C13.722 7.05161 13.722 7.0516 13.7405 7.05078C14.1132 7.03422 14.4833 7.02495 14.8559 7.05105C14.8913 7.05352 14.9267 7.05587 14.9621 7.0582C15.0993 7.06736 15.2363 7.07807 15.3733 7.09007C15.4226 7.09434 15.4719 7.09826 15.5212 7.10203C16.0423 7.14441 16.5687 7.25361 17.0745 7.38186C17.0986 7.38793 17.0986 7.38794 17.1232 7.39413C17.2658 7.43066 17.4072 7.47118 17.5484 7.51303C17.5657 7.51816 17.5657 7.51815 17.5834 7.52338C17.7202 7.56391 17.8568 7.60496 17.9919 7.65063C18.003 7.65435 18.014 7.65806 18.0254 7.66189C18.0909 7.68456 18.1534 7.71147 18.2163 7.74011C18.2688 7.76303 18.3227 7.78129 18.3768 7.79998C18.6578 7.89961 18.929 8.02349 19.197 8.15358L19.2421 8.17544C19.2879 8.19769 19.3336 8.22005 19.3794 8.24247C19.3935 8.24937 19.4076 8.25627 19.4222 8.26338C19.442 8.27316 19.442 8.27315 19.4622 8.28313C19.4796 8.29171 19.4796 8.29171 19.4973 8.30046C19.5327 8.31958 19.5651 8.34124 19.5979 8.36444C19.5686 8.45183 19.5291 8.53244 19.4885 8.61502C19.4805 8.63128 19.4725 8.64754 19.4643 8.6643C19.3907 8.81303 19.312 8.9587 19.2322 9.10414C19.1871 9.18682 19.1429 9.26999 19.0987 9.35313C19.09 9.36937 19.0814 9.38561 19.0725 9.40234C19.0523 9.44023 19.0321 9.47812 19.012 9.51603C18.8971 9.49413 18.7948 9.43702 18.693 9.38112C18.3015 9.17299 17.8698 9.02411 17.4504 8.88287C17.4347 8.87755 17.419 8.87222 17.4029 8.86673C17.1925 8.79557 16.9823 8.73176 16.7663 8.68042C16.7198 8.66924 16.6736 8.65752 16.6273 8.64572C16.4203 8.59332 16.2133 8.55004 16.0029 8.51411C15.9697 8.50822 15.9367 8.50149 15.9036 8.49466C15.7222 8.45717 15.5394 8.43213 15.3554 8.41182C15.3442 8.41057 15.333 8.40933 15.3215 8.40804C14.9084 8.36246 14.4956 8.34092 14.0804 8.35894C14.0543 8.36003 14.0282 8.36112 14.0021 8.36221C13.9478 8.36449 13.8935 8.36683 13.8392 8.36923C13.7844 8.37163 13.7296 8.37392 13.6748 8.3761C13.3637 8.3885 13.0567 8.40561 12.7485 8.45273C12.7273 8.45571 12.7061 8.45868 12.6843 8.46176C12.633 8.469 12.5818 8.4767 12.5306 8.48472C12.5127 8.48752 12.4948 8.49032 12.4764 8.49321C12.3482 8.51381 12.2207 8.53725 12.0935 8.56304C12.0775 8.56625 12.0616 8.56947 12.0451 8.57278C11.9481 8.59305 11.8539 8.61878 11.7592 8.64772C11.694 8.66703 11.6281 8.6822 11.562 8.69751C11.3836 8.74023 11.2102 8.79578 11.0365 8.85416L10.9989 8.86661C10.817 8.92702 10.6377 8.99441 10.4586 9.06239C10.4333 9.07198 10.408 9.08154 10.3827 9.09107C10.2388 9.14535 10.0993 9.20342 9.96136 9.27165C9.9042 9.29962 9.84643 9.32372 9.78741 9.34747C9.67443 9.39413 9.56903 9.45072 9.46323 9.51173C9.42164 9.53557 9.37957 9.5574 9.33645 9.57835C9.23673 9.62741 9.14102 9.68348 9.04481 9.73901L8.98869 9.77111C8.87997 9.83372 8.77418 9.89905 8.67045 9.9696C8.6469 9.98538 8.62335 10.0012 8.5998 10.0169C8.56431 10.0408 8.52884 10.0647 8.49339 10.0887C8.43908 10.1254 8.38477 10.162 8.32983 10.1977C8.22268 10.2682 8.12349 10.3449 8.0252 10.427C7.94855 10.4909 7.87036 10.5524 7.79102 10.6129C7.61339 10.7492 7.44651 10.8958 7.28301 11.0486C7.23993 11.0888 7.19577 11.1275 7.15138 11.1662C7.05405 11.2527 6.9643 11.3463 6.87388 11.4399C6.82771 11.4877 6.78088 11.5347 6.73351 11.5812C6.66563 11.6481 6.60279 11.7153 6.54489 11.7909C6.50884 11.8358 6.46993 11.8777 6.43078 11.9198C6.37277 11.9824 6.31729 12.046 6.26481 12.1133C6.2188 12.1714 6.17046 12.2276 6.12245 12.2841C6.07011 12.3496 6.02237 12.4179 5.97428 12.4865C5.95673 12.5112 5.93915 12.5358 5.92156 12.5605C5.56753 13.0577 5.25281 13.5653 4.98005 14.1118C4.96303 14.1459 4.94595 14.18 4.92879 14.214C4.74621 14.5771 4.5728 14.9536 4.47062 15.3483C4.4513 15.4202 4.42577 15.4885 4.39925 15.558C4.37184 15.6349 4.35076 15.7134 4.3294 15.7921C4.31595 15.8402 4.29974 15.8869 4.28265 15.9338C4.24981 16.0264 4.22701 16.1203 4.20528 16.2161C4.20117 16.2339 4.19706 16.2518 4.19282 16.2702C4.1571 16.4274 4.12623 16.5853 4.09692 16.7438C4.08837 16.7889 4.07879 16.8339 4.06914 16.8788C4.00671 17.1886 3.97886 17.5 3.954 17.8146C3.94802 17.8899 3.94128 17.965 3.9337 18.0402C3.91158 18.2753 3.91581 18.5077 3.92451 18.7433C3.92523 18.7664 3.92522 18.7664 3.92595 18.79C3.93854 19.1719 4.0097 19.5309 4.27268 19.8223C4.56095 20.0832 4.90819 20.1102 5.27963 20.0932C5.4852 20.0827 5.68011 20.0474 5.87941 19.9966C5.89028 19.9938 5.90114 19.991 5.91233 19.9882C6.50155 19.8375 7.08074 19.6565 7.65569 19.4584C7.69585 19.4446 7.73608 19.4311 7.77633 19.4176C8.20971 19.2712 8.63334 19.0925 9.05354 18.9122C9.12162 18.8831 9.19011 18.8551 9.25884 18.8275C9.42453 18.7604 9.58476 18.6819 9.74374 18.6003C9.81698 18.5627 9.8904 18.5261 9.96512 18.4916C10.2191 18.3731 10.4661 18.2411 10.7126 18.108C10.7791 18.0721 10.8457 18.0365 10.9125 18.0013C11.0856 17.9102 11.2566 17.8159 11.4263 17.7187C11.4358 17.7133 11.4453 17.7079 11.455 17.7023C11.579 17.6314 11.7005 17.5576 11.8209 17.4808C11.9112 17.4234 12.0031 17.3687 12.0953 17.3142C12.2127 17.2447 12.3282 17.1728 12.4423 17.098C12.4596 17.0867 12.4596 17.0867 12.4772 17.0752C12.6527 16.9607 12.8255 16.8431 12.9955 16.7207C13.0405 16.6883 13.0857 16.6564 13.1309 16.6243C13.2567 16.5352 13.3814 16.4448 13.5056 16.3535C13.5382 16.3294 13.571 16.3055 13.6038 16.2816C13.7841 16.1496 13.963 16.0165 14.1348 15.8736C14.2119 15.8096 14.2902 15.7474 14.3691 15.6856C14.5578 15.5373 14.7396 15.3808 14.9198 15.2222C14.9523 15.1938 14.9851 15.1659 15.0181 15.1381C15.1842 14.9972 15.3456 14.851 15.505 14.7027L15.55 14.6609L15.5754 14.6366C15.6405 14.5754 15.6405 14.5754 15.6767 14.5738L15.6752 14.5412C15.697 14.5173 15.697 14.5173 15.728 14.4889C15.7952 14.4268 15.8597 14.3624 15.924 14.2973C15.957 14.2678 15.957 14.2678 15.9895 14.2664L15.9881 14.2338C16.0088 14.211 16.0088 14.211 16.0389 14.1836C16.0967 14.13 16.1527 14.0751 16.2081 14.0192C16.2662 13.9607 16.3246 13.903 16.3857 13.8478C16.4134 13.821 16.4393 13.7926 16.4653 13.7641C16.4901 13.7369 16.515 13.7098 16.54 13.6828C16.5916 13.6267 16.6432 13.5706 16.6947 13.5145C16.7168 13.4904 16.739 13.4664 16.7611 13.4423C16.7934 13.4073 16.8256 13.3722 16.8578 13.3371C16.8676 13.3266 16.8773 13.316 16.8874 13.3051C16.9462 13.2409 17.0017 13.1749 17.0555 13.1064C17.0901 13.0632 17.1273 13.0232 17.1652 12.9828C17.2246 12.919 17.2807 12.8536 17.3343 12.7848C17.3589 12.7543 17.3848 12.7261 17.4117 12.6977C17.4574 12.6489 17.497 12.5972 17.5365 12.5433C17.5783 12.4864 17.6206 12.4328 17.6691 12.3815C17.7293 12.3176 17.7809 12.2491 17.8328 12.1784C17.8731 12.1239 17.9144 12.0705 17.956 12.0171C18.0159 11.9401 18.0741 11.8621 18.1312 11.783C18.1608 11.7429 18.1912 11.7036 18.222 11.6644C18.3054 11.5582 18.3836 11.449 18.4603 11.3379C18.5076 11.2696 18.5556 11.2022 18.6058 11.136C18.677 11.0418 18.7435 10.9447 18.8093 10.8466L18.8387 10.8028C18.9089 10.6976 18.9773 10.5912 19.0454 10.4847C19.0807 10.4296 19.1161 10.3745 19.1522 10.3199C19.2676 10.1449 19.3752 9.96526 19.4832 9.78561C19.5141 9.73416 19.5452 9.68277 19.5763 9.63142C19.5886 9.61106 19.6009 9.59071 19.6132 9.57033C19.6396 9.52674 19.666 9.48324 19.6928 9.43989C19.7943 9.27457 19.8876 9.1046 19.9819 8.93502C19.9936 8.91391 20.0054 8.89281 20.0171 8.87171C20.0367 8.83666 20.0562 8.8016 20.0756 8.76652C20.0935 8.73436 20.1115 8.70225 20.1297 8.6702C20.3423 8.29262 20.535 7.9048 20.7211 7.51359C20.7296 7.49572 20.7296 7.49572 20.7383 7.47748C20.8466 7.24979 20.9512 7.02077 21.0465 6.78729C21.0687 6.73332 21.0916 6.67968 21.1148 6.6261C21.1825 6.46912 21.2485 6.31254 21.305 6.15117C21.3398 6.05208 21.3795 5.95541 21.4203 5.85866C21.4451 5.79979 21.4686 5.74056 21.4916 5.68102C21.4996 5.66065 21.5082 5.64053 21.5172 5.62056Z" fill="url(#paint1_linear_466_1047)"/>
<path d="M13.2349 10.7699C14.0035 10.6475 14.8246 10.6986 15.5878 10.8291C15.6393 10.8379 15.6909 10.8463 15.7424 10.8546C15.9359 10.8868 16.1218 10.9339 16.3095 10.9907C16.3515 11.0031 16.3937 11.0147 16.436 11.026C16.7353 11.1067 17.0283 11.2117 17.3096 11.3424C17.3912 11.3802 17.4743 11.4104 17.5599 11.4381C17.5958 11.4546 17.5958 11.4546 17.6143 11.5027C17.594 11.5378 17.594 11.5378 17.5625 11.5784L17.5277 11.624L17.4911 11.6713C17.4689 11.7012 17.4468 11.731 17.4247 11.7609C17.3658 11.8395 17.3058 11.9173 17.2456 11.9948C17.2014 12.0518 17.158 12.1092 17.1151 12.1671C17.057 12.2453 16.9971 12.322 16.9366 12.3983C16.9278 12.4094 16.919 12.4205 16.91 12.4319C16.878 12.4721 16.8464 12.5117 16.8117 12.5496C16.7336 12.5477 16.6627 12.5121 16.5915 12.4828C16.4513 12.4265 16.3103 12.3773 16.1658 12.3332C16.1553 12.3299 16.1447 12.3266 16.1339 12.3233C16.0459 12.2962 15.9574 12.2718 15.8684 12.2483L15.8143 12.2339C15.2847 12.0953 14.7425 12.0172 14.1944 12.028C14.1754 12.0284 14.1754 12.0284 14.156 12.0287C13.7554 12.0357 13.3686 12.0671 12.9758 12.1468L12.9211 12.1576C12.4788 12.2463 12.0303 12.3825 11.6242 12.5813C11.5982 12.5931 11.5722 12.6048 11.5462 12.6164L11.5084 12.6336C11.4841 12.6446 11.4598 12.6556 11.4354 12.6664C11.2565 12.7456 11.0883 12.8358 10.9219 12.9385C10.9017 12.9509 10.9017 12.9509 10.8811 12.9636C10.6873 13.0833 10.4972 13.2067 10.3155 13.3444C10.272 13.3749 10.272 13.3749 10.2395 13.3763L10.2409 13.4089C10.2131 13.4331 10.2131 13.4331 10.1739 13.4618C9.94645 13.6321 9.71587 13.8174 9.52873 14.0322C9.50096 14.0632 9.47147 14.091 9.44088 14.1191C9.3759 14.1797 9.32182 14.2475 9.26716 14.3174L9.23788 14.3503L9.20531 14.3518C9.20125 14.3616 9.19719 14.3715 9.19301 14.3817C9.17642 14.4166 9.15893 14.4427 9.1347 14.4726C9.1266 14.4827 9.1185 14.4928 9.11016 14.5032C9.09713 14.5192 9.09714 14.5192 9.08385 14.5356C9.06548 14.5586 9.04711 14.5815 9.02875 14.6045C9.00323 14.6363 8.97768 14.6681 8.95198 14.6998C8.77334 14.9201 8.62076 15.1626 8.48487 15.4114C8.4796 15.4209 8.47432 15.4305 8.46888 15.4403C8.30889 15.7307 8.16726 16.0309 8.05128 16.3416C8.03785 16.377 8.02378 16.4122 8.00956 16.4473C7.83619 16.8835 7.72506 17.3691 7.66613 17.8337C7.64135 18.0165 7.5729 18.1231 7.43443 18.2477C7.22899 18.3936 6.97504 18.4422 6.7341 18.4991C6.69812 18.5078 6.66231 18.517 6.62653 18.5265L6.56421 18.5428L6.51066 18.5572C6.43717 18.5711 6.36493 18.5737 6.29028 18.5752C6.29517 17.9736 6.34291 17.3616 6.50791 16.7803C6.52015 16.7361 6.53156 16.6916 6.54297 16.6472C6.58215 16.4958 6.62873 16.3475 6.67865 16.1994C6.68272 16.1872 6.68681 16.175 6.69101 16.1625C6.79614 15.8493 6.91041 15.5434 7.05607 15.2466C7.07159 15.2148 7.08676 15.1829 7.10178 15.1509C7.15698 15.034 7.21789 14.9225 7.28372 14.8113C7.30022 14.7827 7.3167 14.7541 7.33317 14.7254C7.35112 14.6944 7.36907 14.6634 7.38703 14.6324C7.39576 14.6172 7.40449 14.6019 7.41348 14.5862C7.42587 14.565 7.42587 14.565 7.43851 14.5433C7.44594 14.5304 7.45336 14.5176 7.46101 14.5043C7.46765 14.4951 7.4743 14.4859 7.48115 14.4763L7.51372 14.4749L7.52482 14.4388C7.5438 14.3893 7.5673 14.3509 7.59712 14.3071L7.63047 14.2579L7.66515 14.2072L7.69737 14.1586C7.77584 14.0413 7.86041 13.9303 7.94838 13.82C7.98761 13.7715 7.98762 13.7715 8.01498 13.7283L8.03458 13.7015L8.06715 13.7001L8.07693 13.673C8.10347 13.6204 8.13996 13.5783 8.17817 13.534C8.19038 13.5198 8.19038 13.5198 8.20283 13.5052C8.32913 13.3585 8.45748 13.2118 8.59999 13.0805C8.6279 13.054 8.6533 13.0259 8.67881 12.9971C8.71973 12.9535 8.71973 12.9535 8.75231 12.952L8.75088 12.9195C8.80511 12.8681 8.80511 12.8681 8.84645 12.8663L8.84502 12.8338C8.86811 12.8109 8.86811 12.8109 8.90196 12.7833C8.95555 12.7391 9.00854 12.6944 9.06088 12.6487C9.41959 12.3364 9.80509 12.0682 10.2095 11.819C10.2347 11.8034 10.2599 11.7879 10.285 11.7722C10.7106 11.5063 11.1844 11.3119 11.6556 11.1439C11.7005 11.1278 11.7451 11.1114 11.7898 11.0949C12.2066 10.9441 12.6536 10.862 13.0905 10.7935C13.1387 10.7859 13.1868 10.778 13.2349 10.7699Z" fill="url(#paint2_linear_466_1047)"/>
<defs>
<linearGradient id="paint0_linear_466_1047" x1="2.10711" y1="8.91881" x2="24.2118" y2="18.1202" gradientUnits="userSpaceOnUse">
<stop/>
<stop offset="0.475962" stop-color="#28C35F"/>
<stop offset="1" stop-color="#FF5335"/>
</linearGradient>
<linearGradient id="paint1_linear_466_1047" x1="2.10711" y1="8.91881" x2="24.2118" y2="18.1202" gradientUnits="userSpaceOnUse">
<stop/>
<stop offset="0.475962" stop-color="#28C35F"/>
<stop offset="1" stop-color="#FF5335"/>
</linearGradient>
<linearGradient id="paint2_linear_466_1047" x1="2.10711" y1="8.91881" x2="24.2118" y2="18.1202" gradientUnits="userSpaceOnUse">
<stop/>
<stop offset="0.475962" stop-color="#28C35F"/>
<stop offset="1" stop-color="#FF5335"/>
</linearGradient>
</defs>
</svg>
