<svg width="32" height="32" viewBox="0 0 32 32" fill="none" xmlns="http://www.w3.org/2000/svg">
<path d="M24.8889 0H7.11111C3.18375 0 0 3.18375 0 7.11111V24.8889C0 28.8162 3.18375 32 7.11111 32H24.8889C28.8162 32 32 28.8162 32 24.8889V7.11111C32 3.18375 28.8162 0 24.8889 0Z" fill="#0C0C0E"/>
<path d="M25.3043 11.629C25.388 11.6559 25.4405 11.7168 25.5008 11.7777C25.512 11.789 25.5233 11.8002 25.5349 11.8117C25.6155 11.8929 25.6923 11.9768 25.7676 12.063C25.8127 12.113 25.8598 12.1602 25.9077 12.2075C25.9908 12.2901 26.0648 12.3773 26.138 12.4687C26.1822 12.5223 26.2283 12.573 26.2757 12.6237C26.3918 12.7499 26.4963 12.8845 26.6017 13.0196C26.6355 13.0628 26.6695 13.1056 26.7038 13.1484C26.8053 13.2755 26.9055 13.4022 26.9971 13.5367C27.0295 13.5835 27.0631 13.6293 27.0972 13.675C27.3614 14.0303 27.6046 14.4037 27.817 14.7923C27.8407 14.8357 27.8646 14.8788 27.8889 14.9217C28.0639 15.2309 28.2211 15.548 28.3645 15.8728C28.3812 15.9102 28.3981 15.9474 28.4153 15.9845C28.5016 16.1718 28.5782 16.3624 28.6532 16.5545C28.6602 16.5723 28.6672 16.5901 28.6744 16.6085C28.7613 16.8305 28.8441 17.0526 28.9151 17.2802C28.9311 17.3306 28.9476 17.3807 28.9642 17.4309C29.0983 17.84 29.203 18.2563 29.301 18.6753C29.3053 18.6934 29.3096 18.7116 29.314 18.7303C29.5065 19.5714 29.6927 20.5495 29.4999 21.4032L29.4876 21.4602C29.3917 21.8961 29.2327 22.2823 28.9379 22.6213C28.9165 22.6482 28.8951 22.6751 28.8739 22.7022C28.4248 23.2613 27.7468 23.5715 27.0439 23.6554C26.2856 23.7282 25.4942 23.5123 24.9021 23.0279L24.8556 22.9881C24.8169 22.9551 24.7772 22.9247 24.7366 22.8942C24.287 22.5324 24.0261 21.9869 23.87 21.445C23.866 21.4313 23.862 21.4177 23.8579 21.4036C23.8296 21.3038 23.8121 21.2048 23.799 21.1019C23.7967 21.0847 23.7944 21.0675 23.7921 21.0498C23.7751 20.918 23.7611 20.7861 23.7477 20.654C23.6953 20.1411 23.6181 19.6406 23.4347 19.1557C23.4174 19.1094 23.4012 19.0632 23.3856 19.0164C23.2235 18.5325 23.0054 18.0759 22.7518 17.6338C22.741 17.6149 22.741 17.6149 22.73 17.5957C22.5237 17.2351 22.295 16.8876 22.0166 16.5778L21.9835 16.5405L21.9546 16.5092C21.9284 16.4616 21.9382 16.4342 21.9509 16.3822C21.9765 16.3448 21.9765 16.3448 22.0094 16.3093L22.0453 16.2704L22.083 16.2307L22.1204 16.1899C22.2126 16.091 22.2127 16.091 22.2551 16.0891L22.2663 16.0575C22.2962 15.9991 22.3362 15.9586 22.3813 15.9111C22.4767 15.8093 22.5708 15.7071 22.6434 15.5873L22.6806 15.5856L22.7315 15.4715L22.7687 15.4699L22.7823 15.4369C22.8037 15.3917 22.8288 15.3531 22.8574 15.3121L22.886 15.271L22.9078 15.24C22.9636 15.2618 22.9985 15.2839 23.0381 15.3287C23.0481 15.3399 23.058 15.351 23.0683 15.3626C23.084 15.3808 23.084 15.3808 23.1002 15.3994C23.1113 15.4121 23.1224 15.4248 23.1339 15.4379C23.32 15.6527 23.4923 15.8755 23.651 16.1113C23.687 16.1644 23.7251 16.2151 23.7652 16.2653C23.8481 16.3717 23.9171 16.4863 23.9867 16.6015C24.0166 16.6506 24.0468 16.6994 24.077 16.7482C24.2032 16.9536 24.3178 17.1602 24.4192 17.3789C24.4547 17.4553 24.4935 17.5294 24.5337 17.6034C24.679 17.8795 24.778 18.178 24.8772 18.473C24.8835 18.4916 24.8898 18.5103 24.8963 18.5294C24.9655 18.7342 25.0338 18.9378 25.082 19.1486C25.0957 19.2082 25.1116 19.2668 25.1279 19.3257C25.2409 19.7609 25.3083 20.21 25.3525 20.6572C25.3651 20.7838 25.3826 20.9066 25.4147 21.0299C25.4187 21.0455 25.4227 21.0612 25.4268 21.0773C25.4752 21.2604 25.5451 21.4055 25.6649 21.5527L25.6912 21.5858C25.7762 21.6847 25.8828 21.751 25.9936 21.818L26.0348 21.8431C26.2605 21.9678 26.4793 21.9916 26.7327 21.9814C26.7545 21.9806 26.7763 21.9797 26.7988 21.9789C27.1324 21.9594 27.4199 21.8257 27.6622 21.5957C27.9178 21.2692 27.9833 20.9327 27.9603 20.5278C27.9595 20.5119 27.9587 20.4959 27.9579 20.4795C27.9226 19.7909 27.8138 19.0678 27.5879 18.4147C27.5497 18.3034 27.5197 18.19 27.4892 18.0764C27.4332 17.8711 27.3691 17.6712 27.2948 17.4719L27.272 17.4102C27.1031 16.9558 26.9177 16.511 26.693 16.081C26.678 16.0519 26.663 16.0228 26.648 15.9937C26.549 15.8029 26.4431 15.6169 26.3335 15.4321C26.3089 15.39 26.2847 15.3478 26.2606 15.3054C26.0187 14.8804 25.7321 14.4884 25.4315 14.1037L25.3888 14.0489C25.1498 13.7452 24.8885 13.4585 24.6229 13.1781C24.5979 13.1516 24.573 13.1248 24.5482 13.0981L24.5112 13.061C24.4891 13.0261 24.4891 13.0261 24.4884 12.9811C24.5072 12.9209 24.5354 12.88 24.5725 12.829C24.635 12.7411 24.6931 12.6516 24.7483 12.559C24.8034 12.4668 24.8593 12.3753 24.917 12.2847C25.002 12.1502 25.0806 12.0126 25.1588 11.874C25.1666 11.86 25.1745 11.846 25.1827 11.8317C25.1983 11.8039 25.214 11.7761 25.2296 11.7482C25.2845 11.6506 25.2845 11.6506 25.3043 11.629Z" fill="url(#paint0_linear_467_1063)"/>
<path d="M24.591 6.42014C24.7976 6.48292 24.9985 6.55322 25.1942 6.64493C25.2593 6.67275 25.3251 6.69583 25.392 6.71889C25.4831 6.75067 25.5733 6.78471 25.6633 6.81951L25.7205 6.84056L25.7748 6.86175C25.799 6.87096 25.799 6.87096 25.8238 6.88036C25.8617 6.90522 25.8617 6.90521 25.8807 6.94748C25.8852 7.00881 25.8724 7.04547 25.8494 7.10243C25.8377 7.13238 25.8377 7.13239 25.8257 7.16295C25.8135 7.19361 25.8135 7.19361 25.8011 7.22489C25.7869 7.26362 25.7728 7.30241 25.7589 7.34125L25.7169 7.45702L25.6957 7.51579C25.6666 7.59577 25.6376 7.67522 25.602 7.75257C25.5546 7.85585 25.5163 7.96284 25.4764 8.06918C25.3953 8.28451 25.3104 8.49657 25.2133 8.70523C25.1963 8.74334 25.1795 8.78154 25.1626 8.81973C25.1079 8.94357 25.0509 9.06606 24.992 9.18794C24.9515 9.27219 24.9128 9.35716 24.8751 9.44269C24.6433 9.96557 24.3816 10.4751 24.1007 10.9732C24.0916 10.9892 24.0826 11.0053 24.0733 11.0218C23.6737 11.7313 23.2516 12.4203 22.8036 13.1002C22.7824 13.1323 22.7613 13.1644 22.7402 13.1965C22.5166 13.5361 22.2834 13.8696 22.0416 14.1964C22.0331 14.2078 22.0247 14.2191 22.0161 14.2309C21.9669 14.2972 21.9177 14.3635 21.8684 14.4297C21.8353 14.4742 21.8024 14.5188 21.7696 14.5636C21.6853 14.678 21.5965 14.7872 21.5046 14.8954C21.4573 14.9514 21.4115 15.0083 21.3659 15.0657C21.2166 15.2525 21.061 15.4341 20.9062 15.6163C20.8876 15.6383 20.8689 15.6603 20.8503 15.6822C20.8413 15.6928 20.8324 15.7033 20.8232 15.7142C20.7774 15.7683 20.7329 15.8229 20.6899 15.8792C20.6446 15.936 20.6446 15.936 20.6009 15.9741C20.548 16.0205 20.5081 16.0719 20.4648 16.1272C20.4097 16.1958 20.3528 16.2641 20.2887 16.3246L20.2515 16.3262L20.2175 16.4023L20.1803 16.4039C20.176 16.415 20.1716 16.4261 20.1671 16.4376C20.1449 16.483 20.12 16.5135 20.0858 16.5506L20.0491 16.5905L20.0108 16.6316L19.9738 16.6721C19.9015 16.7503 19.8269 16.825 19.7494 16.898C19.7032 16.9423 19.6616 16.9902 19.6197 17.0386C19.5939 17.0637 19.5939 17.0637 19.5566 17.0653L19.5405 17.122C19.5151 17.1499 19.5151 17.1499 19.4813 17.1805C19.4168 17.2402 19.3542 17.3013 19.2923 17.3636C19.2737 17.3823 19.2552 17.4009 19.2366 17.4195C19.2275 17.4286 19.2184 17.4377 19.2091 17.4471C18.9807 17.6759 18.7414 17.8921 18.5007 18.1078C18.4708 18.1347 18.4409 18.1616 18.4111 18.1886C18.3184 18.2721 18.224 18.3533 18.1282 18.4332C18.0485 18.4999 17.971 18.5689 17.8937 18.6383C17.7807 18.7394 17.6647 18.8356 17.5458 18.9298C17.4739 18.9867 17.4032 19.045 17.3325 19.1035C17.2133 19.2016 17.0927 19.2976 16.9706 19.3921C16.9346 19.42 16.8987 19.448 16.8628 19.476C16.7089 19.5959 16.5534 19.713 16.3955 19.8275C16.3566 19.8557 16.3179 19.8841 16.2792 19.9126C15.9616 20.146 15.6399 20.3735 15.3102 20.5896C15.266 20.6187 15.2218 20.6478 15.1777 20.677C15.1674 20.6838 15.1571 20.6905 15.1465 20.6975C15.0928 20.7329 15.0394 20.7686 14.9864 20.805C14.8407 20.9049 14.692 20.9983 14.5408 21.0896C14.4965 21.1163 14.4522 21.1431 14.408 21.17C14.3971 21.1766 14.3862 21.1832 14.3749 21.19C14.2983 21.2366 14.2224 21.2842 14.1468 21.3324C14.032 21.4053 13.9152 21.4742 13.7972 21.5418C13.7775 21.5531 13.7578 21.5644 13.7376 21.576C13.5954 21.6575 13.4526 21.7379 13.3091 21.8169C13.2655 21.8409 13.222 21.8651 13.1785 21.8894C13.1554 21.9022 13.1324 21.915 13.1093 21.9278C13.0283 21.9727 12.9475 22.0181 12.8667 22.0637C12.63 22.197 12.3924 22.3242 12.1461 22.4393C12.0328 22.4929 11.9203 22.5483 11.8076 22.6034C11.5036 22.7518 11.1969 22.8941 10.8892 23.0346C10.8546 23.0504 10.8199 23.0663 10.7853 23.0823C10.5506 23.1902 10.3096 23.2814 10.068 23.3726C9.97216 23.4088 9.87655 23.4456 9.781 23.4826C9.73743 23.4995 9.69387 23.5163 9.6503 23.5331C9.62256 23.5438 9.59482 23.5546 9.56709 23.5654C9.37832 23.6387 9.18813 23.7047 8.99514 23.7661C8.95183 23.78 8.90873 23.7944 8.86567 23.8091C8.39912 23.9677 7.92889 24.1132 7.45135 24.235C7.43479 24.2393 7.41823 24.2435 7.40116 24.2479C7.29515 24.275 7.1889 24.3009 7.08237 24.3258L7.03135 24.3378C6.45884 24.4713 5.8275 24.5713 5.24218 24.4625C5.22569 24.4595 5.2092 24.4565 5.19222 24.4534C4.80271 24.3804 4.42392 24.2473 4.1034 24.0089L4.06535 23.9919L4.06372 23.9547L4.0302 23.9412C3.95556 23.9053 3.89595 23.8501 3.83303 23.797L3.79536 23.7654C3.49096 23.4991 3.27442 23.1529 3.11726 22.7841C3.11195 22.7719 3.10663 22.7598 3.10115 22.7472C2.94006 22.373 2.92196 21.9549 2.9071 21.5532C2.90621 21.5313 2.90531 21.5095 2.90439 21.4869C2.8903 21.1365 2.89129 20.7925 2.92134 20.443C2.92408 20.4071 2.9268 20.3712 2.92951 20.3353C2.98601 19.6299 3.08565 18.9138 3.2771 18.2316C3.29115 18.1801 3.30429 18.1283 3.31741 18.0765C3.38108 17.8256 3.4511 17.5782 3.53131 17.3321C3.54763 17.2816 3.5635 17.231 3.57924 17.1803C3.58692 17.1557 3.58693 17.1557 3.59477 17.1306C3.60437 17.0998 3.61391 17.069 3.62339 17.0382C3.64719 16.9628 3.67502 16.8971 3.71384 16.8278C3.72419 16.7973 3.7337 16.7666 3.74244 16.7356C3.78074 16.6093 3.83195 16.4894 3.88344 16.368C3.9024 16.3228 3.92034 16.2773 3.93828 16.2317C4.02485 16.0163 4.1239 15.8061 4.22158 15.5957C4.22994 15.5776 4.23829 15.5595 4.2469 15.5409C4.30219 15.4223 4.3621 15.3073 4.42536 15.1928C4.43895 15.1676 4.45251 15.1423 4.46604 15.1171C4.66128 14.7564 4.87514 14.4038 5.10308 14.0628C5.11878 14.0391 5.13447 14.0154 5.15015 13.9916C5.24326 13.8511 5.33852 13.7123 5.43607 13.5747C5.46054 13.5397 5.48372 13.5037 5.50586 13.4671L5.54309 13.4654L5.55574 13.4334C5.63264 13.2744 5.76857 13.1358 5.88259 13.0015C5.92702 12.9491 5.97097 12.8964 6.01465 12.8433L6.04978 12.8007C6.07175 12.7737 6.09363 12.7466 6.11502 12.7192C6.20122 12.6092 6.29387 12.5056 6.38819 12.4027C6.41514 12.3732 6.44195 12.3436 6.46874 12.314C6.48589 12.2952 6.50305 12.2764 6.52021 12.2576C6.53563 12.2407 6.55105 12.2238 6.56694 12.2064C6.60514 12.1694 6.60514 12.1694 6.64237 12.1678L6.67633 12.0917L6.71355 12.0901L6.71192 12.0529C6.73554 12.0268 6.73554 12.0268 6.77001 11.9955C6.81809 11.9511 6.86523 11.9061 6.91104 11.8594C6.92061 11.8496 6.93017 11.8399 6.94003 11.8298C6.95916 11.8103 6.97822 11.7907 6.99722 11.771C7.06536 11.7017 7.06537 11.7017 7.1067 11.6999L7.10507 11.6626C7.14176 11.6285 7.17872 11.5964 7.21731 11.5645C7.24061 11.5449 7.26389 11.5253 7.28714 11.5056L7.3227 11.4756C7.37173 11.4336 7.41905 11.3899 7.46648 11.3461C7.57037 11.251 7.67785 11.1612 7.78785 11.0732C7.79988 11.0636 7.81192 11.054 7.82432 11.044C8.16758 10.7695 8.5171 10.5037 8.88518 10.2631C8.95255 10.2191 9.01876 10.1738 9.08436 10.1271C9.62421 9.74626 10.2519 9.424 10.8601 9.16754C10.9131 9.14508 10.966 9.12214 11.0188 9.09913C11.6077 8.84369 12.2092 8.64313 12.8295 8.47965C12.889 8.46385 12.9483 8.4476 13.0076 8.43112C13.4235 8.31627 13.8458 8.24788 14.2719 8.18393C14.2908 8.18108 14.3098 8.17823 14.3293 8.17528C14.7727 8.10867 15.2137 8.07636 15.6615 8.05656C15.6822 8.05563 15.6822 8.05563 15.7033 8.05468C16.1293 8.03576 16.5523 8.02517 16.9781 8.05499C17.0185 8.05782 17.059 8.0605 17.0994 8.06316C17.2562 8.07364 17.4129 8.08588 17.5694 8.09959C17.6258 8.10447 17.6821 8.10895 17.7385 8.11326C18.334 8.1617 18.9356 8.28649 19.5137 8.43306C19.5412 8.44 19.5412 8.44001 19.5692 8.44709C19.7323 8.48883 19.8939 8.53515 20.0552 8.58297C20.075 8.58883 20.0751 8.58882 20.0953 8.5948C20.2516 8.64113 20.4077 8.68803 20.5621 8.74023C20.5748 8.74448 20.5874 8.74872 20.6004 8.7531C20.6752 8.77901 20.7466 8.80976 20.8185 8.84249C20.8785 8.86868 20.9402 8.88955 21.002 8.91091C21.3232 9.02478 21.633 9.16635 21.9393 9.31503L21.9909 9.34001C22.0432 9.36544 22.0955 9.39099 22.1478 9.41661C22.1639 9.4245 22.18 9.43239 22.1967 9.44051C22.2193 9.45169 22.2193 9.45169 22.2424 9.46309C22.2623 9.47289 22.2623 9.47289 22.2826 9.48289C22.323 9.50474 22.36 9.5295 22.3975 9.55601C22.364 9.65589 22.3189 9.74801 22.2725 9.84238C22.2634 9.86097 22.2543 9.87956 22.2449 9.8987C22.1607 10.0687 22.0708 10.2352 21.9795 10.4014C21.928 10.4959 21.8775 10.5909 21.827 10.6859C21.8171 10.7045 21.8072 10.7231 21.797 10.7422C21.774 10.7855 21.7509 10.8288 21.7279 10.8721C21.5966 10.8471 21.4797 10.7818 21.3633 10.7179C20.916 10.4801 20.4226 10.3099 19.9432 10.1485C19.9253 10.1424 19.9074 10.1363 19.8889 10.1301C19.6485 10.0487 19.4082 9.97581 19.1614 9.91714C19.1083 9.90435 19.0555 9.89096 19.0026 9.87748C18.766 9.81759 18.5295 9.76812 18.289 9.72707C18.251 9.72033 18.2132 9.71265 18.1755 9.70484C17.9682 9.66199 17.7593 9.63337 17.549 9.61015C17.5362 9.60873 17.5234 9.60731 17.5102 9.60585C17.0381 9.55374 16.5664 9.52914 16.0918 9.54972C16.062 9.55097 16.0321 9.55222 16.0023 9.55346C15.9403 9.55607 15.8782 9.55875 15.8162 9.56148C15.7535 9.56423 15.6909 9.56685 15.6283 9.56934C15.2727 9.58351 14.9219 9.60306 14.5696 9.65691C14.5454 9.66032 14.5212 9.66372 14.4962 9.66723C14.4376 9.6755 14.3791 9.6843 14.3207 9.69347C14.3002 9.69668 14.2798 9.69988 14.2587 9.70318C14.1122 9.72672 13.9665 9.75351 13.8211 9.78298C13.8028 9.78665 13.7846 9.79033 13.7658 9.79411C13.6549 9.81728 13.5473 9.84668 13.439 9.87976C13.3645 9.90183 13.2892 9.91917 13.2136 9.93667C13.0098 9.98549 12.8116 10.049 12.613 10.1157L12.5701 10.1299C12.3623 10.199 12.1573 10.276 11.9526 10.3537C11.9237 10.3646 11.8948 10.3756 11.8659 10.3864C11.7014 10.4485 11.542 10.5148 11.3843 10.5928C11.319 10.6248 11.253 10.6523 11.1855 10.6795C11.0564 10.7328 10.936 10.7975 10.8151 10.8672C10.7675 10.8944 10.7194 10.9194 10.6702 10.9433C10.5562 10.9994 10.4468 11.0635 10.3369 11.127L10.2727 11.1636C10.1485 11.2352 10.0276 11.3098 9.90901 11.3905C9.88211 11.4085 9.85519 11.4265 9.82827 11.4446C9.78771 11.4719 9.74718 11.4992 9.70667 11.5266C9.6446 11.5685 9.58252 11.6104 9.51973 11.6512C9.39727 11.7317 9.28392 11.8194 9.17159 11.9132C9.08399 11.9863 8.99462 12.0565 8.90395 12.1257C8.70095 12.2814 8.51023 12.449 8.32337 12.6236C8.27414 12.6695 8.22367 12.7138 8.17293 12.758C8.0617 12.8569 7.95912 12.9638 7.85579 13.0708C7.80302 13.1254 7.74951 13.1791 7.69537 13.2324C7.61779 13.3087 7.54598 13.3856 7.47981 13.472C7.43861 13.5232 7.39414 13.5712 7.34939 13.6193C7.28309 13.6908 7.21969 13.7635 7.15972 13.8404C7.10713 13.9069 7.05188 13.9711 6.99702 14.0356C6.9372 14.1105 6.88264 14.1885 6.82767 14.2669C6.80762 14.2951 6.78753 14.3233 6.76743 14.3515C6.36282 14.9198 6.00314 15.4999 5.69142 16.1245C5.67197 16.1634 5.65244 16.2024 5.63284 16.2413C5.42417 16.6562 5.22598 17.0865 5.10921 17.5375C5.08713 17.6197 5.05796 17.6978 5.02765 17.7772C4.99631 17.8651 4.97223 17.9548 4.94782 18.0448C4.93244 18.0998 4.91391 18.1531 4.89438 18.2067C4.85685 18.3126 4.83079 18.4199 4.80597 18.5293C4.80127 18.5497 4.79657 18.5701 4.79173 18.5912C4.7509 18.7708 4.71562 18.9513 4.68212 19.1324C4.67236 19.184 4.66141 19.2354 4.65037 19.2867C4.57903 19.6407 4.5472 19.9967 4.51879 20.3561C4.51195 20.4422 4.50425 20.5281 4.49559 20.614C4.47031 20.8827 4.47514 21.1483 4.48508 21.4175C4.4859 21.444 4.4859 21.444 4.48673 21.4709C4.50112 21.9074 4.58245 22.3176 4.883 22.6507C5.21245 22.9489 5.60929 22.9798 6.03379 22.9604C6.26873 22.9483 6.49149 22.9079 6.71926 22.8499C6.73168 22.8467 6.74409 22.8435 6.75688 22.8403C7.43027 22.6681 8.09221 22.4612 8.74929 22.2348C8.79519 22.2191 8.84116 22.2036 8.88716 22.1882C9.38246 22.0209 9.8666 21.8166 10.3468 21.6106C10.4246 21.5773 10.5029 21.5453 10.5815 21.5138C10.7708 21.4371 10.9539 21.3474 11.1356 21.2541C11.2193 21.2112 11.3032 21.1694 11.3886 21.1299C11.6789 20.9945 11.9612 20.8437 12.2429 20.6915C12.3189 20.6505 12.395 20.6098 12.4714 20.5696C12.6692 20.4655 12.8646 20.3577 13.0585 20.2466C13.0694 20.2404 13.0802 20.2343 13.0914 20.2279C13.233 20.1469 13.372 20.0625 13.5095 19.9747C13.6128 19.9091 13.7178 19.8466 13.8231 19.7843C13.9573 19.7048 14.0893 19.6227 14.2198 19.5372C14.2395 19.5243 14.2395 19.5243 14.2596 19.5112C14.4602 19.3803 14.6576 19.2459 14.8519 19.106C14.9034 19.069 14.955 19.0325 15.0067 18.9959C15.1504 18.8941 15.293 18.7907 15.4349 18.6863C15.4722 18.6589 15.5096 18.6315 15.5471 18.6042C15.7531 18.4533 15.9576 18.3013 16.154 18.138C16.2421 18.0648 16.3316 17.9937 16.4217 17.9231C16.6374 17.7536 16.8452 17.5747 17.0511 17.3935C17.0882 17.361 17.1258 17.3291 17.1635 17.2973C17.3533 17.1363 17.5378 16.9692 17.7199 16.7997L17.7713 16.752L17.8004 16.7242C17.8748 16.6542 17.8748 16.6542 17.9161 16.6524L17.9145 16.6152C17.9394 16.5878 17.9394 16.5878 17.9748 16.5554C18.0516 16.4845 18.1253 16.4108 18.1987 16.3365C18.2364 16.3027 18.2364 16.3027 18.2737 16.3011L18.272 16.2638C18.2957 16.2378 18.2957 16.2378 18.3301 16.2065C18.3962 16.1453 18.4602 16.0825 18.5235 16.0185C18.5898 15.9518 18.6566 15.8858 18.7264 15.8227C18.7582 15.792 18.7877 15.7596 18.8174 15.727C18.8458 15.696 18.8743 15.665 18.9028 15.6341C18.9617 15.57 19.0207 15.5059 19.0796 15.4418C19.1049 15.4143 19.1302 15.3868 19.1555 15.3593C19.1924 15.3193 19.2292 15.2792 19.266 15.2391C19.2772 15.227 19.2883 15.215 19.2998 15.2025C19.367 15.1291 19.4305 15.0537 19.492 14.9753C19.5315 14.926 19.574 14.8803 19.6173 14.8342C19.6852 14.7612 19.7493 14.6865 19.8106 14.6078C19.8387 14.573 19.8683 14.5407 19.899 14.5083C19.9512 14.4525 19.9965 14.3935 20.0416 14.3319C20.0894 14.2668 20.1378 14.2055 20.1932 14.1469C20.262 14.0739 20.321 13.9956 20.3803 13.9148C20.4263 13.8526 20.4735 13.7915 20.5211 13.7304C20.5895 13.6425 20.656 13.5533 20.7213 13.463C20.7551 13.4171 20.7899 13.3722 20.8251 13.3274C20.9204 13.206 21.0098 13.0813 21.0975 12.9542C21.1514 12.8761 21.2064 12.7992 21.2637 12.7235C21.3451 12.6158 21.421 12.5049 21.4962 12.3928L21.5299 12.3427C21.6101 12.2225 21.6882 12.1009 21.7661 11.9792C21.8065 11.9162 21.8469 11.8532 21.8881 11.7908C22.02 11.5908 22.143 11.3855 22.2664 11.1802C22.3018 11.1214 22.3373 11.0627 22.3728 11.004C22.3869 10.9807 22.401 10.9575 22.4151 10.9342C22.4452 10.8844 22.4754 10.8346 22.5059 10.7851C22.622 10.5962 22.7287 10.4019 22.8363 10.2081C22.8498 10.184 22.8632 10.1599 22.8767 10.1357C22.899 10.0957 22.9212 10.0556 22.9435 10.0155C22.964 9.97877 22.9845 9.94208 23.0052 9.90545C23.2483 9.47394 23.4685 9.03071 23.6812 8.58362C23.6909 8.56318 23.6909 8.56319 23.7008 8.54234C23.8247 8.28212 23.9441 8.02038 24.0531 7.75356C24.0785 7.69188 24.1047 7.63057 24.1311 7.56933C24.2085 7.38993 24.2839 7.21098 24.3485 7.02656C24.3883 6.91332 24.4337 6.80284 24.4803 6.69226C24.5086 6.62498 24.5355 6.55729 24.5618 6.48924C24.5709 6.46597 24.5808 6.44297 24.591 6.42014Z" fill="url(#paint1_linear_467_1063)"/>
<path d="M15.1255 12.3051C16.0039 12.1652 16.9423 12.2236 17.8146 12.3728C17.8735 12.3828 17.9324 12.3924 17.9913 12.402C18.2124 12.4387 18.4249 12.4926 18.6393 12.5574C18.6874 12.5716 18.7355 12.5849 18.7839 12.5978C19.126 12.6901 19.4608 12.81 19.7823 12.9593C19.8756 13.0026 19.9705 13.0372 20.0683 13.0688C20.1094 13.0876 20.1094 13.0876 20.1305 13.1426C20.1074 13.1827 20.1074 13.1827 20.0714 13.2292L20.0316 13.2812L19.9898 13.3353C19.9644 13.3694 19.9391 13.4035 19.9138 13.4377C19.8466 13.5276 19.778 13.6164 19.7091 13.705C19.6587 13.7701 19.6091 13.8357 19.5601 13.9019C19.4936 13.9913 19.4252 14.0789 19.356 14.1661C19.346 14.1788 19.336 14.1915 19.3256 14.2045C19.2891 14.2505 19.2529 14.2958 19.2133 14.3391C19.124 14.3369 19.043 14.2961 18.9617 14.2627C18.8014 14.1984 18.6402 14.1421 18.4751 14.0917C18.4631 14.088 18.4511 14.0842 18.4387 14.0804C18.3381 14.0494 18.2369 14.0216 18.1352 13.9947L18.0734 13.9783C17.4681 13.8199 16.8485 13.7306 16.2221 13.743C16.2004 13.7433 16.2004 13.7433 16.1782 13.7437C15.7204 13.7518 15.2783 13.7876 14.8294 13.8787L14.7669 13.891C14.2614 13.9924 13.7489 14.1481 13.2847 14.3753C13.2551 14.3888 13.2253 14.4021 13.1956 14.4154L13.1524 14.435C13.1246 14.4476 13.0968 14.4602 13.0689 14.4725C12.8645 14.563 12.6723 14.6661 12.4821 14.7835C12.459 14.7977 12.459 14.7977 12.4355 14.8121C12.2139 14.949 11.9967 15.09 11.7891 15.2474C11.7394 15.2823 11.7394 15.2823 11.7022 15.2839L11.7038 15.3211C11.6721 15.3488 11.6721 15.3488 11.6272 15.3816C11.3673 15.5762 11.1038 15.788 10.8899 16.0335C10.8582 16.0688 10.8245 16.1006 10.7895 16.1328C10.7152 16.202 10.6534 16.2795 10.591 16.3594L10.5575 16.397L10.5203 16.3987C10.5156 16.41 10.511 16.4212 10.5062 16.4328C10.4873 16.4728 10.4673 16.5025 10.4396 16.5368C10.4303 16.5483 10.4211 16.5598 10.4115 16.5717C10.3967 16.59 10.3967 16.59 10.3815 16.6087C10.3605 16.635 10.3395 16.6613 10.3185 16.6875C10.2893 16.7239 10.2601 16.7602 10.2308 16.7964C10.0266 17.0482 9.85222 17.3253 9.69693 17.6096C9.6909 17.6205 9.68487 17.6315 9.67865 17.6427C9.4958 17.9746 9.33395 18.3177 9.20139 18.6728C9.18604 18.7133 9.16996 18.7534 9.15371 18.7936C8.95558 19.2921 8.82856 19.8471 8.76122 20.378C8.7329 20.5869 8.65467 20.7088 8.49642 20.8511C8.26164 21.0179 7.9714 21.0735 7.69604 21.1385C7.65492 21.1485 7.614 21.159 7.57311 21.1698L7.50188 21.1885L7.44068 21.2048C7.35669 21.2208 7.27414 21.2237 7.18882 21.2255C7.19441 20.5379 7.24897 19.8385 7.43754 19.1741C7.45153 19.1236 7.46456 19.0728 7.47761 19.022C7.52239 18.849 7.57562 18.6796 7.63267 18.5102C7.63733 18.4963 7.64199 18.4824 7.64679 18.4681C7.76695 18.1102 7.89754 17.7606 8.06401 17.4213C8.08174 17.385 8.09909 17.3485 8.11625 17.312C8.17934 17.1784 8.24895 17.051 8.32418 16.9239C8.34304 16.8912 8.36188 16.8585 8.3807 16.8257C8.40121 16.7903 8.42173 16.7548 8.44225 16.7194C8.45222 16.702 8.4622 16.6846 8.47248 16.6666C8.48664 16.6423 8.48664 16.6423 8.50108 16.6176C8.50957 16.6029 8.51805 16.5882 8.52679 16.573C8.53439 16.5625 8.54199 16.5519 8.54981 16.541L8.58704 16.5394L8.59972 16.4981C8.62141 16.4415 8.64827 16.3977 8.68236 16.3476L8.72047 16.2914L8.7601 16.2335L8.79693 16.1779C8.8866 16.0438 8.98325 15.917 9.08379 15.7909C9.12863 15.7355 9.12864 15.7355 9.15991 15.6862L9.18231 15.6555L9.21953 15.6539L9.23071 15.6229C9.26103 15.5628 9.30274 15.5148 9.34641 15.4641C9.36036 15.4478 9.36036 15.4478 9.3746 15.4312C9.51894 15.2635 9.66563 15.0959 9.8285 14.9458C9.86038 14.9155 9.88941 14.8834 9.91857 14.8505C9.96534 14.8006 9.96534 14.8006 10.0026 14.799L10.0009 14.7618C10.0629 14.7031 10.0629 14.7031 10.1102 14.701L10.1085 14.6638C10.1349 14.6377 10.1349 14.6377 10.1736 14.6062C10.2348 14.5556 10.2954 14.5045 10.3552 14.4523C10.7652 14.0954 11.2057 13.7889 11.668 13.5041C11.6968 13.4863 11.7255 13.4685 11.7542 13.4506C12.2406 13.1467 12.7821 12.9245 13.3207 12.7325C13.3719 12.7142 13.423 12.6954 13.474 12.6765C13.9504 12.5042 14.4612 12.4104 14.9605 12.3321C15.0156 12.3234 15.0705 12.3143 15.1255 12.3051Z" fill="url(#paint2_linear_467_1063)"/>
<defs>
<linearGradient id="paint0_linear_467_1063" x1="2.40806" y1="10.1896" x2="27.6706" y2="20.7054" gradientUnits="userSpaceOnUse">
<stop/>
<stop offset="0.475962" stop-color="#28C35F"/>
<stop offset="1" stop-color="#FF5335"/>
</linearGradient>
<linearGradient id="paint1_linear_467_1063" x1="2.40806" y1="10.1896" x2="27.6706" y2="20.7054" gradientUnits="userSpaceOnUse">
<stop/>
<stop offset="0.475962" stop-color="#28C35F"/>
<stop offset="1" stop-color="#FF5335"/>
</linearGradient>
<linearGradient id="paint2_linear_467_1063" x1="2.40806" y1="10.1896" x2="27.6706" y2="20.7054" gradientUnits="userSpaceOnUse">
<stop/>
<stop offset="0.475962" stop-color="#28C35F"/>
<stop offset="1" stop-color="#FF5335"/>
</linearGradient>
</defs>
</svg>
