<svg width="64" height="64" viewBox="0 0 64 64" fill="none" xmlns="http://www.w3.org/2000/svg">
<path d="M49.7778 0H14.2222C6.36751 0 0 6.36751 0 14.2222V49.7778C0 57.6325 6.36751 64 14.2222 64H49.7778C57.6325 64 64 57.6325 64 49.7778V14.2222C64 6.36751 57.6325 0 49.7778 0Z" fill="#22C55E"/>
<path d="M45.9916 25.9162C46.1176 25.9567 46.1965 26.0483 46.2871 26.1399C46.304 26.1567 46.321 26.1736 46.3384 26.191C46.4597 26.313 46.5751 26.4392 46.6883 26.5687C46.7561 26.644 46.8269 26.715 46.8991 26.786C47.024 26.9103 47.1352 27.0415 47.2453 27.1789C47.3117 27.2595 47.381 27.3357 47.4523 27.412C47.6269 27.6017 47.7841 27.8041 47.9425 28.0073C47.9933 28.0722 48.0446 28.1366 48.096 28.201C48.2487 28.392 48.3995 28.5825 48.5371 28.7848C48.5858 28.8552 48.6364 28.9241 48.6876 28.9928C49.0849 29.5271 49.4506 30.0885 49.77 30.6729C49.8056 30.7381 49.8415 30.8029 49.8782 30.8675C50.1412 31.3324 50.3776 31.8091 50.5934 32.2977C50.6184 32.3539 50.6438 32.4098 50.6697 32.4656C50.7995 32.7473 50.9146 33.0338 51.0274 33.3226C51.038 33.3494 51.0485 33.3763 51.0593 33.4039C51.19 33.7376 51.3145 34.0717 51.4213 34.414C51.4452 34.4897 51.4701 34.5651 51.495 34.6406C51.6967 35.2557 51.8541 35.8816 52.0015 36.5117C52.008 36.539 52.0144 36.5663 52.021 36.5945C52.3106 37.8592 52.5905 39.3301 52.3006 40.6137L52.2821 40.6994C52.1378 41.3548 51.8987 41.9356 51.4556 42.4454C51.4233 42.4858 51.3912 42.5263 51.3593 42.567C50.684 43.4077 49.6644 43.8742 48.6075 44.0004C47.4673 44.1098 46.2772 43.7852 45.3869 43.0568L45.3169 42.9969C45.2587 42.9473 45.199 42.9015 45.138 42.8556C44.4619 42.3117 44.0697 41.4914 43.8349 40.6765C43.8288 40.656 43.8228 40.6355 43.8166 40.6144C43.7741 40.4642 43.7479 40.3154 43.7281 40.1607C43.7247 40.1348 43.7213 40.1089 43.7177 40.0822C43.6921 39.8842 43.6712 39.6857 43.6509 39.4871C43.5723 38.7159 43.4561 37.9633 43.1803 37.2341C43.1544 37.1645 43.13 37.095 43.1065 37.0246C42.8627 36.297 42.5347 35.6105 42.1534 34.9457C42.1372 34.9173 42.1372 34.9173 42.1207 34.8883C41.8104 34.3462 41.4666 33.8235 41.048 33.3578L40.9982 33.3016L40.9547 33.2545C40.9154 33.183 40.9301 33.1419 40.9492 33.0636C40.9876 33.0074 40.9876 33.0074 41.0372 32.9541L41.0911 32.8956L41.1478 32.8358L41.2041 32.7745C41.3427 32.6257 41.3427 32.6257 41.4066 32.6229L41.4234 32.5753C41.4684 32.4876 41.5286 32.4267 41.5964 32.3552C41.7399 32.2021 41.8814 32.0484 41.9904 31.8683L42.0464 31.8658L42.123 31.6942L42.1789 31.6917L42.1993 31.6422C42.2315 31.5743 42.2692 31.5161 42.3122 31.4545L42.3553 31.3926L42.3881 31.3461C42.472 31.3789 42.5245 31.4121 42.584 31.4794C42.5989 31.4962 42.6139 31.513 42.6293 31.5304C42.6531 31.5578 42.6531 31.5578 42.6773 31.5858C42.694 31.6049 42.7107 31.624 42.728 31.6437C43.0079 31.9666 43.267 32.3017 43.5056 32.6562C43.5596 32.7362 43.6171 32.8124 43.6773 32.8879C43.8019 33.0478 43.9057 33.2201 44.0105 33.3934C44.0553 33.4672 44.1007 33.5406 44.1462 33.614C44.3359 33.9229 44.5082 34.2335 44.6608 34.5623C44.7141 34.6773 44.7724 34.7886 44.8329 34.9C45.0513 35.315 45.2003 35.764 45.3494 36.2076C45.3589 36.2356 45.3684 36.2636 45.3781 36.2924C45.4822 36.6003 45.5849 36.9064 45.6574 37.2235C45.678 37.313 45.7018 37.4011 45.7263 37.4897C45.8963 38.1442 45.9977 38.8194 46.0642 39.4919C46.0832 39.6823 46.1094 39.8669 46.1577 40.0523C46.1637 40.0759 46.1697 40.0994 46.1759 40.1236C46.2487 40.3989 46.3538 40.6171 46.5339 40.8385L46.5735 40.8883C46.7012 41.0371 46.8615 41.1367 47.0281 41.2375L47.09 41.2752C47.4296 41.4627 47.7585 41.4985 48.1396 41.4832C48.1723 41.4819 48.2052 41.4806 48.239 41.4793C48.7405 41.4501 49.1729 41.2491 49.5372 40.9031C49.9216 40.4122 50.0201 39.9063 49.9856 39.2973C49.9843 39.2734 49.9831 39.2494 49.9819 39.2247C49.9287 38.1892 49.7651 37.1019 49.4256 36.1198C49.3681 35.9524 49.323 35.782 49.2771 35.6112C49.1929 35.3025 49.0965 35.0018 48.9848 34.7021L48.9505 34.6095C48.6966 33.9261 48.4178 33.2573 48.0799 32.6107C48.0573 32.5669 48.0347 32.5231 48.0121 32.4793C47.8633 32.1925 47.704 31.9129 47.5393 31.6349C47.5022 31.5717 47.4658 31.5081 47.4297 31.4444C47.0659 30.8054 46.6349 30.2159 46.1829 29.6374L46.1187 29.5549C45.7594 29.0984 45.3664 28.6672 44.9671 28.2456C44.9294 28.2057 44.892 28.1655 44.8547 28.1253L44.7991 28.0696C44.7658 28.017 44.7658 28.017 44.7647 27.9494C44.793 27.8588 44.8354 27.7973 44.8913 27.7206C44.9853 27.5884 45.0725 27.4539 45.1556 27.3147C45.2385 27.176 45.3225 27.0385 45.4092 26.9022C45.537 26.6999 45.6553 26.493 45.7728 26.2846C45.7847 26.2636 45.7965 26.2426 45.8087 26.221C45.8323 26.1792 45.8558 26.1374 45.8793 26.0955C45.9619 25.9487 45.9619 25.9486 45.9916 25.9162Z" fill="white"/>
<path d="M44.919 18.0836C45.2297 18.178 45.5318 18.2837 45.8261 18.4216C45.924 18.4635 46.023 18.4982 46.1236 18.5329C46.2606 18.5806 46.3961 18.6318 46.5315 18.6841L46.6175 18.7158L46.6991 18.7477C46.7356 18.7615 46.7356 18.7615 46.7728 18.7756C46.8298 18.813 46.8298 18.813 46.8583 18.8766C46.8652 18.9688 46.8459 19.0239 46.8114 19.1096C46.7937 19.1546 46.7937 19.1546 46.7757 19.2006C46.7574 19.2467 46.7574 19.2467 46.7387 19.2937C46.7174 19.352 46.6962 19.4103 46.6753 19.4687L46.6121 19.6428L46.5802 19.7312C46.5364 19.8514 46.4929 19.9709 46.4393 20.0872C46.368 20.2425 46.3104 20.4034 46.2504 20.5633C46.1286 20.8871 46.0008 21.206 45.8549 21.5197C45.8293 21.577 45.8039 21.6345 45.7786 21.6919C45.6964 21.8781 45.6107 22.0623 45.5221 22.2456C45.4611 22.3723 45.403 22.5 45.3462 22.6286C44.9977 23.4149 44.6043 24.1811 44.1818 24.93C44.1682 24.9541 44.1546 24.9783 44.1406 25.0031C43.5398 26.0701 42.905 27.1061 42.2313 28.1284C42.1995 28.1767 42.1678 28.225 42.136 28.2733C41.7998 28.7839 41.4491 29.2854 41.0855 29.7768C41.0728 29.7939 41.0602 29.811 41.0471 29.8286C40.9732 29.9284 40.8993 30.0281 40.8251 30.1277C40.7753 30.1946 40.7258 30.2617 40.6765 30.3289C40.5498 30.501 40.4162 30.6652 40.278 30.8279C40.2069 30.9121 40.138 30.9977 40.0694 31.084C39.845 31.3649 39.611 31.638 39.3782 31.912C39.3502 31.945 39.3222 31.978 39.2942 32.011C39.2807 32.0269 39.2672 32.0428 39.2534 32.0591C39.1846 32.1405 39.1176 32.2226 39.053 32.3073C38.9849 32.3927 38.9849 32.3927 38.9191 32.4499C38.8396 32.5198 38.7796 32.597 38.7145 32.6801C38.6316 32.7833 38.546 32.886 38.4497 32.977L38.3937 32.9794L38.3427 33.0938L38.2867 33.0963C38.2801 33.113 38.2736 33.1297 38.2669 33.1468C38.2334 33.2152 38.1961 33.261 38.1445 33.3169L38.0895 33.3768L38.0318 33.4387L37.9761 33.4995C37.8674 33.6171 37.7553 33.7294 37.6388 33.8392C37.5692 33.9058 37.5067 33.9778 37.4437 34.0506C37.4048 34.0884 37.4048 34.0884 37.3489 34.0908L37.3246 34.176C37.2864 34.218 37.2864 34.218 37.2355 34.264C37.1387 34.3538 37.0444 34.4457 36.9514 34.5394C36.9235 34.5674 36.8955 34.5954 36.8676 34.6235C36.8539 34.6371 36.8403 34.6508 36.8263 34.6649C36.4828 35.009 36.1229 35.3341 35.761 35.6585C35.716 35.6988 35.6712 35.7393 35.6263 35.7798C35.4869 35.9055 35.345 36.0276 35.2009 36.1477C35.081 36.248 34.9645 36.3517 34.8482 36.4561C34.6783 36.6082 34.5039 36.7528 34.3252 36.8944C34.217 36.98 34.1107 37.0677 34.0044 37.1556C33.8252 37.3031 33.6438 37.4474 33.4603 37.5895C33.4061 37.6315 33.3521 37.6737 33.2981 37.7158C33.0668 37.8961 32.8329 38.0722 32.5954 38.2443C32.537 38.2867 32.4788 38.3294 32.4206 38.3722C31.943 38.7232 31.4593 39.0654 30.9635 39.3903C30.897 39.434 30.8306 39.4779 30.7642 39.5217C30.7487 39.5319 30.7333 39.5421 30.7173 39.5526C30.6366 39.6058 30.5563 39.6595 30.4766 39.7142C30.2575 39.8645 30.034 40.0049 29.8065 40.1421C29.7399 40.1823 29.6734 40.2226 29.6068 40.263C29.5904 40.2729 29.574 40.2829 29.5571 40.2931C29.4419 40.3631 29.3278 40.4348 29.214 40.5072C29.0414 40.6168 28.8658 40.7205 28.6884 40.822C28.6588 40.839 28.6292 40.856 28.5987 40.8735C28.3849 40.9961 28.1702 41.1169 27.9544 41.2358C27.8888 41.2719 27.8234 41.3083 27.758 41.3447C27.7234 41.364 27.6887 41.3833 27.654 41.4025C27.5321 41.4701 27.4106 41.5383 27.2893 41.6069C26.9333 41.8074 26.5759 41.9986 26.2057 42.1717C26.0352 42.2523 25.866 42.3357 25.6966 42.4184C25.2395 42.6417 24.7784 42.8556 24.3157 43.0668C24.2635 43.0907 24.2114 43.1145 24.1594 43.1385C23.8064 43.3008 23.444 43.4379 23.0808 43.5751C22.9367 43.6296 22.7929 43.6849 22.6492 43.7406C22.5837 43.7659 22.5182 43.7911 22.4527 43.8164C22.411 43.8326 22.3692 43.8487 22.3276 43.8649C22.0437 43.9753 21.7577 44.0744 21.4675 44.1668C21.4024 44.1877 21.3376 44.2094 21.2728 44.2314C20.5713 44.4699 19.8642 44.6888 19.1461 44.8719C19.1212 44.8783 19.0963 44.8847 19.0706 44.8913C18.9112 44.932 18.7515 44.9709 18.5913 45.0084L18.5146 45.0265C17.6537 45.2272 16.7043 45.3776 15.8242 45.2139C15.7994 45.2094 15.7746 45.205 15.749 45.2003C15.1633 45.0906 14.5938 44.8904 14.1118 44.5319L14.0546 44.5064L14.0521 44.4504L14.0017 44.43C13.8895 44.3762 13.7998 44.2932 13.7052 44.2132L13.6486 44.1658C13.1908 43.7653 12.8652 43.2448 12.6289 42.6901C12.6209 42.6718 12.6129 42.6536 12.6047 42.6347C12.3625 42.0719 12.3353 41.4433 12.3129 40.8392C12.3116 40.8064 12.3102 40.7735 12.3088 40.7396C12.2876 40.2127 12.2891 39.6954 12.3343 39.1698C12.3384 39.1158 12.3425 39.0618 12.3466 39.0078C12.4316 37.9472 12.5814 36.8704 12.8693 35.8446C12.8904 35.7671 12.9102 35.6892 12.9299 35.6113C13.0256 35.2341 13.1309 34.8621 13.2515 34.492C13.2761 34.4161 13.2999 34.3399 13.3236 34.2636C13.3352 34.2267 13.3352 34.2267 13.3469 34.189C13.3614 34.1427 13.3757 34.0964 13.39 34.0501C13.4258 33.9366 13.4676 33.8378 13.526 33.7336C13.5416 33.6878 13.5559 33.6416 13.569 33.595C13.6266 33.405 13.7036 33.2248 13.781 33.0423C13.8095 32.9743 13.8365 32.9058 13.8635 32.8372C13.9937 32.5134 14.1426 32.1974 14.2895 31.8809C14.3021 31.8537 14.3146 31.8265 14.3276 31.7985C14.4107 31.6202 14.5008 31.4472 14.5959 31.2751C14.6163 31.2372 14.6367 31.1992 14.6571 31.1612C14.9507 30.6189 15.2722 30.0886 15.615 29.576C15.6386 29.5403 15.6622 29.5046 15.6858 29.4689C15.8258 29.2575 15.969 29.0488 16.1157 28.842C16.1525 28.7893 16.1874 28.7351 16.2207 28.6801L16.2766 28.6777L16.2957 28.6295C16.4113 28.3904 16.6157 28.1819 16.7872 27.98C16.854 27.9012 16.9201 27.8219 16.9857 27.7422L17.0386 27.6781C17.0716 27.6375 17.1045 27.5968 17.1367 27.5555C17.2663 27.3902 17.4056 27.2344 17.5474 27.0796C17.588 27.0352 17.6283 26.9907 17.6686 26.9462C17.6943 26.9179 17.7201 26.8897 17.746 26.8615C17.7691 26.8361 17.7923 26.8106 17.8162 26.7844C17.8737 26.7288 17.8737 26.7288 17.9296 26.7264L17.9807 26.612L18.0367 26.6095L18.0342 26.5535C18.0697 26.5144 18.0697 26.5144 18.1216 26.4673C18.1939 26.4005 18.2648 26.3329 18.3336 26.2626C18.348 26.248 18.3624 26.2333 18.3772 26.2182C18.406 26.1888 18.4347 26.1593 18.4632 26.1297C18.5657 26.0255 18.5657 26.0255 18.6279 26.0228L18.6254 25.9668C18.6806 25.9154 18.7362 25.8671 18.7942 25.8192C18.8292 25.7897 18.8642 25.7602 18.8992 25.7307L18.9527 25.6855C19.0264 25.6223 19.0975 25.5567 19.1689 25.4908C19.3251 25.3477 19.4867 25.2127 19.6521 25.0805C19.6702 25.066 19.6883 25.0515 19.7069 25.0366C20.2231 24.6238 20.7487 24.2241 21.3022 23.8623C21.4035 23.7961 21.503 23.728 21.6017 23.6578C22.4134 23.0851 23.3573 22.6005 24.2718 22.2149C24.3516 22.1811 24.4311 22.1466 24.5105 22.112C25.3961 21.7279 26.3005 21.4263 27.2332 21.1805C27.3227 21.1567 27.4118 21.1323 27.501 21.1075C28.1264 20.9348 28.7614 20.832 29.4022 20.7358C29.4307 20.7315 29.4591 20.7273 29.4885 20.7228C30.1552 20.6227 30.8184 20.5741 31.4917 20.5443C31.5228 20.5429 31.5228 20.5429 31.5546 20.5415C32.1952 20.513 32.8312 20.4971 33.4715 20.5419C33.5323 20.5462 33.5931 20.5502 33.6539 20.5542C33.8898 20.57 34.1253 20.5884 34.3607 20.609C34.4454 20.6164 34.5301 20.6231 34.6149 20.6296C35.5104 20.7024 36.415 20.89 37.2843 21.1105C37.3257 21.1209 37.3257 21.1209 37.3678 21.1315C37.613 21.1943 37.856 21.264 38.0986 21.3359C38.1284 21.3447 38.1284 21.3447 38.1588 21.3537C38.3939 21.4233 38.6286 21.4939 38.8609 21.5723C38.8798 21.5787 38.8988 21.5851 38.9184 21.5917C39.0308 21.6307 39.1383 21.6769 39.2464 21.7261C39.3366 21.7655 39.4293 21.7969 39.5223 21.829C40.0052 22.0002 40.4712 22.2131 40.9318 22.4367L41.0093 22.4742C41.088 22.5125 41.1666 22.5509 41.2452 22.5894C41.2694 22.6013 41.2937 22.6131 41.3187 22.6254C41.3527 22.6422 41.3527 22.6422 41.3875 22.6593C41.4174 22.674 41.4174 22.6741 41.4479 22.6891C41.5086 22.7219 41.5644 22.7592 41.6207 22.799C41.5704 22.9492 41.5025 23.0878 41.4327 23.2297C41.419 23.2576 41.4053 23.2856 41.3912 23.3143C41.2647 23.57 41.1295 23.8203 40.9922 24.0702C40.9147 24.2123 40.8388 24.3553 40.7628 24.4981C40.7479 24.526 40.7331 24.5539 40.7178 24.5827C40.6831 24.6478 40.6485 24.7129 40.6138 24.7781C40.4164 24.7404 40.2406 24.6423 40.0656 24.5462C39.3929 24.1885 38.651 23.9327 37.9302 23.69C37.9033 23.6808 37.8763 23.6717 37.8485 23.6622C37.4871 23.5399 37.1257 23.4303 36.7545 23.3421C36.6747 23.3228 36.5952 23.3027 36.5158 23.2824C36.1601 23.1924 35.8043 23.118 35.4427 23.0563C35.3856 23.0461 35.3288 23.0346 35.2721 23.0228C34.9603 22.9584 34.6462 22.9154 34.3299 22.8805C34.3107 22.8783 34.2915 22.8762 34.2716 22.874C33.5617 22.7956 32.8524 22.7586 32.1387 22.7896C32.0939 22.7915 32.0491 22.7933 32.0043 22.7952C31.9109 22.7991 31.8176 22.8032 31.7243 22.8073C31.6302 22.8114 31.536 22.8153 31.4418 22.8191C30.9071 22.8404 30.3795 22.8698 29.8499 22.9508C29.8135 22.9559 29.7771 22.961 29.7395 22.9663C29.6514 22.9787 29.5634 22.992 29.4755 23.0057C29.4448 23.0106 29.414 23.0154 29.3823 23.0203C29.162 23.0557 28.943 23.096 28.7243 23.1403C28.6968 23.1459 28.6694 23.1514 28.6411 23.1571C28.4744 23.1919 28.3126 23.2361 28.1498 23.2859C28.0378 23.319 27.9246 23.3451 27.8108 23.3714C27.5043 23.4448 27.2064 23.5403 26.9078 23.6406L26.8432 23.662C26.5307 23.7658 26.2225 23.8817 25.9147 23.9985C25.8713 24.015 25.8278 24.0314 25.7843 24.0478C25.537 24.1411 25.2972 24.2408 25.0602 24.3581C24.9619 24.4062 24.8627 24.4476 24.7612 24.4884C24.5671 24.5686 24.3859 24.6658 24.2041 24.7707C24.1326 24.8117 24.0603 24.8492 23.9862 24.8852C23.8149 24.9695 23.6504 25.0658 23.4851 25.1613L23.3886 25.2164C23.2018 25.324 23.02 25.4363 22.8417 25.5575C22.8012 25.5847 22.7608 25.6118 22.7203 25.6389C22.6593 25.6799 22.5984 25.721 22.5374 25.7622C22.4441 25.8252 22.3508 25.8882 22.2563 25.9496C22.0722 26.0707 21.9018 26.2025 21.7328 26.3435C21.6011 26.4534 21.4667 26.559 21.3304 26.6631C21.0251 26.8973 20.7383 27.1493 20.4574 27.4119C20.3833 27.4808 20.3074 27.5474 20.2312 27.6139C20.0639 27.7626 19.9097 27.9234 19.7543 28.0842C19.6749 28.1664 19.5945 28.2471 19.513 28.3272C19.3964 28.442 19.2884 28.5576 19.1889 28.6875C19.127 28.7646 19.0601 28.8367 18.9928 28.909C18.8931 29.0166 18.7978 29.1259 18.7076 29.2415C18.6285 29.3414 18.5454 29.438 18.4629 29.5351C18.373 29.6476 18.2909 29.7649 18.2083 29.8828C18.1781 29.9253 18.1479 29.9677 18.1177 30.01C17.5093 30.8645 16.9684 31.7369 16.4997 32.676C16.4704 32.7346 16.4411 32.7932 16.4116 32.8517C16.0978 33.4757 15.7998 34.1226 15.6242 34.8009C15.591 34.9245 15.5472 35.0419 15.5016 35.1613C15.4545 35.2934 15.4182 35.4283 15.3815 35.5636C15.3584 35.6463 15.3306 35.7265 15.3012 35.8071C15.2447 35.9663 15.2056 36.1277 15.1682 36.2922C15.1612 36.3229 15.1541 36.3536 15.1468 36.3852C15.0854 36.6554 15.0324 36.9267 14.982 37.1991C14.9673 37.2767 14.9509 37.3539 14.9343 37.4311C14.827 37.9634 14.7791 38.4987 14.7364 39.0392C14.7261 39.1687 14.7145 39.2978 14.7015 39.427C14.6635 39.831 14.6708 40.2303 14.6857 40.6353C14.687 40.675 14.687 40.675 14.6882 40.7156C14.7098 41.3719 14.8321 41.9887 15.2841 42.4895C15.7795 42.938 16.3762 42.9844 17.0145 42.9552C17.3678 42.9371 17.7028 42.8764 18.0453 42.7891C18.0639 42.7843 18.0826 42.7795 18.1018 42.7746C19.1144 42.5157 20.1098 42.2046 21.0978 41.8642C21.1668 41.8406 21.236 41.8173 21.3051 41.7941C22.0499 41.5425 22.7779 41.2354 23.5001 40.9256C23.6171 40.8755 23.7348 40.8274 23.8529 40.78C24.1376 40.6646 24.413 40.5298 24.6862 40.3895C24.812 40.325 24.9382 40.2621 25.0666 40.2027C25.5031 39.9991 25.9275 39.7723 26.3512 39.5435C26.4654 39.4818 26.5798 39.4206 26.6947 39.3602C26.9922 39.2036 27.286 39.0416 27.5777 38.8746C27.594 38.8653 27.6103 38.856 27.627 38.8464C27.84 38.7246 28.049 38.5976 28.2558 38.4657C28.4111 38.3671 28.569 38.273 28.7273 38.1794C28.9292 38.0599 29.1276 37.9363 29.3238 37.8078C29.3535 37.7884 29.3535 37.7884 29.3838 37.7687C29.6853 37.5718 29.9822 37.3698 30.2744 37.1593C30.3517 37.1038 30.4294 37.0488 30.5071 36.9938C30.7232 36.8407 30.9376 36.6853 31.1509 36.5283C31.2071 36.4871 31.2634 36.4459 31.3197 36.4048C31.6295 36.178 31.937 35.9493 32.2323 35.7037C32.3648 35.5937 32.4994 35.4868 32.6349 35.3807C32.9593 35.1258 33.2717 34.8568 33.5813 34.5842C33.6371 34.5354 33.6936 34.4875 33.7503 34.4397C34.0357 34.1976 34.3131 33.9463 34.587 33.6914L34.6643 33.6197L34.7081 33.5779C34.8199 33.4727 34.8199 33.4727 34.882 33.4699L34.8796 33.414C34.917 33.3728 34.917 33.3728 34.9703 33.3241C35.0857 33.2174 35.1965 33.1067 35.307 32.9948C35.3637 32.9441 35.3637 32.9441 35.4197 32.9416L35.4172 32.8856C35.4528 32.8465 35.4528 32.8465 35.5046 32.7994C35.6039 32.7073 35.7001 32.6129 35.7954 32.5168C35.8951 32.4164 35.9954 32.3172 36.1005 32.2223C36.1482 32.1762 36.1926 32.1274 36.2373 32.0784C36.28 32.0317 36.3228 31.9852 36.3656 31.9387C36.4543 31.8424 36.5429 31.7459 36.6315 31.6495C36.6696 31.6081 36.7076 31.5668 36.7457 31.5255C36.8011 31.4653 36.8565 31.405 36.9119 31.3447C36.9286 31.3266 36.9454 31.3084 36.9627 31.2897C37.0638 31.1793 37.1592 31.0659 37.2516 30.9481C37.311 30.8739 37.375 30.8052 37.4401 30.7359C37.5421 30.6261 37.6386 30.5137 37.7307 30.3955C37.773 30.3431 37.8175 30.2946 37.8637 30.2458C37.9422 30.1619 38.0102 30.0732 38.0782 29.9805C38.15 29.8827 38.2227 29.7905 38.3061 29.7024C38.4095 29.5926 38.4982 29.4749 38.5874 29.3534C38.6566 29.2598 38.7276 29.1679 38.7991 29.0761C38.902 28.9438 39.002 28.8098 39.1001 28.674C39.151 28.605 39.2034 28.5374 39.2563 28.4701C39.3996 28.2875 39.534 28.1 39.6658 27.9089C39.747 27.7915 39.8296 27.6758 39.9157 27.562C40.0382 27.4001 40.1524 27.2332 40.2655 27.0647L40.3161 26.9894C40.4367 26.8086 40.5542 26.6258 40.6713 26.4427C40.7319 26.348 40.7927 26.2533 40.8547 26.1595C41.0531 25.8588 41.238 25.5501 41.4236 25.2413C41.4768 25.1529 41.5301 25.0646 41.5836 24.9764C41.6048 24.9414 41.626 24.9064 41.6471 24.8714C41.6924 24.7965 41.7378 24.7217 41.7838 24.6472C41.9583 24.3631 42.1187 24.071 42.2806 23.7796C42.3008 23.7433 42.321 23.7071 42.3412 23.6708C42.3748 23.6106 42.4083 23.5503 42.4417 23.49C42.4725 23.4347 42.5034 23.3796 42.5346 23.3245C42.9001 22.6756 43.2312 22.0091 43.551 21.3368C43.5656 21.3061 43.5656 21.3061 43.5805 21.2748C43.7667 20.8835 43.9464 20.4899 44.1102 20.0887C44.1484 19.9959 44.1878 19.9038 44.2275 19.8117C44.3438 19.5419 44.4573 19.2728 44.5544 18.9955C44.6143 18.8252 44.6825 18.6591 44.7526 18.4928C44.7951 18.3916 44.8356 18.2899 44.8752 18.1875C44.8889 18.1525 44.9037 18.118 44.919 18.0836Z" fill="white"/>
<path d="M30.6858 26.9329C32.0067 26.7225 33.4177 26.8104 34.7294 27.0346C34.8179 27.0497 34.9064 27.0642 34.995 27.0785C35.3276 27.1338 35.647 27.2148 35.9695 27.3123C36.0417 27.3336 36.1142 27.3536 36.1869 27.373C36.7013 27.5117 37.2048 27.6921 37.6882 27.9166C37.8285 27.9817 37.9713 28.0336 38.1183 28.0813C38.1801 28.1095 38.1801 28.1095 38.2118 28.1923C38.177 28.2525 38.177 28.2525 38.1229 28.3224L38.0631 28.4007L38.0002 28.482C37.9621 28.5332 37.924 28.5846 37.886 28.6359C37.7848 28.7711 37.6818 28.9047 37.5782 29.0379C37.5023 29.1358 37.4277 29.2345 37.354 29.334C37.2542 29.4684 37.1512 29.6001 37.0472 29.7313C37.0321 29.7504 37.017 29.7694 37.0015 29.789C36.9466 29.8581 36.8922 29.9262 36.8326 29.9913C36.6984 29.988 36.5766 29.9268 36.4542 29.8765C36.2133 29.7798 35.9709 29.6951 35.7226 29.6194C35.7045 29.6138 35.6864 29.6081 35.6678 29.6024C35.5166 29.5558 35.3644 29.514 35.2115 29.4736L35.1185 29.4488C34.2084 29.2106 33.2767 29.0764 32.3347 29.095C32.302 29.0955 32.302 29.0955 32.2687 29.0961C31.5803 29.1082 30.9156 29.162 30.2405 29.299L30.1466 29.3176C29.3865 29.47 28.6157 29.7041 27.9178 30.0458C27.8732 30.0661 27.8285 30.0862 27.7837 30.106L27.7187 30.1356C27.677 30.1546 27.6352 30.1734 27.5932 30.192C27.2859 30.3281 26.9969 30.4831 26.7109 30.6596C26.6762 30.6809 26.6762 30.6809 26.6408 30.7027C26.3076 30.9085 25.981 31.1205 25.6688 31.3573C25.5941 31.4096 25.5941 31.4096 25.5381 31.4121L25.5405 31.468C25.4929 31.5097 25.4929 31.5097 25.4254 31.559C25.0345 31.8516 24.6383 32.1701 24.3167 32.5392C24.269 32.5924 24.2183 32.6402 24.1657 32.6886C24.054 32.7927 23.9611 32.9092 23.8672 33.0293L23.8169 33.0859L23.7609 33.0884C23.7539 33.1053 23.7469 33.1223 23.7397 33.1398C23.7112 33.1998 23.6812 33.2446 23.6395 33.296C23.6256 33.3134 23.6117 33.3307 23.5974 33.3485C23.575 33.3761 23.575 33.3761 23.5522 33.4042C23.5206 33.4437 23.489 33.4832 23.4575 33.5227C23.4136 33.5774 23.3697 33.632 23.3255 33.6864C23.0185 34.0651 22.7563 34.4817 22.5228 34.9093C22.5137 34.9257 22.5047 34.9421 22.4953 34.959C22.2204 35.4582 21.977 35.974 21.7777 36.5079C21.7546 36.5689 21.7304 36.6292 21.706 36.6896C21.408 37.4392 21.217 38.2738 21.1158 39.0721C21.0732 39.3863 20.9556 39.5695 20.7176 39.7836C20.3645 40.0344 19.9281 40.1179 19.5141 40.2157C19.4522 40.2307 19.3907 40.2465 19.3292 40.2628L19.2221 40.2908L19.1301 40.3154C19.0038 40.3394 18.8796 40.3438 18.7513 40.3465C18.7597 39.3125 18.8418 38.2608 19.1253 37.2619C19.1464 37.1858 19.166 37.1095 19.1856 37.0331C19.2529 36.7729 19.333 36.5181 19.4188 36.2635C19.4258 36.2426 19.4328 36.2217 19.44 36.2001C19.6207 35.662 19.817 35.1362 20.0674 34.6261C20.094 34.5715 20.1201 34.5167 20.1459 34.4617C20.2408 34.2608 20.3455 34.0692 20.4586 33.8782C20.4869 33.829 20.5153 33.7797 20.5436 33.7305C20.5744 33.6772 20.6053 33.624 20.6361 33.5707C20.6511 33.5445 20.6661 33.5183 20.6816 33.4913C20.7029 33.4548 20.7029 33.4548 20.7246 33.4175C20.7374 33.3954 20.7501 33.3733 20.7633 33.3506C20.7747 33.3347 20.7861 33.3188 20.7979 33.3025L20.8538 33.3L20.8729 33.2379C20.9055 33.1528 20.9459 33.0869 20.9972 33.0116L21.0545 32.9271L21.1141 32.8399L21.1695 32.7564C21.3043 32.5548 21.4496 32.3641 21.6008 32.1745C21.6682 32.0912 21.6683 32.0912 21.7153 32.017L21.749 31.9708L21.8049 31.9684L21.8217 31.9219C21.8673 31.8315 21.9301 31.7592 21.9957 31.6831C22.0167 31.6586 22.0167 31.6586 22.0381 31.6335C22.2552 31.3813 22.4757 31.1294 22.7206 30.9037C22.7686 30.8581 22.8122 30.8099 22.8561 30.7603C22.9264 30.6854 22.9264 30.6854 22.9824 30.6829L22.9799 30.6269C23.0731 30.5387 23.0731 30.5387 23.1442 30.5356L23.1417 30.4796C23.1814 30.4403 23.1814 30.4403 23.2396 30.393C23.3317 30.317 23.4227 30.2401 23.5127 30.1616C24.1291 29.625 24.7916 29.164 25.4866 28.7357C25.5299 28.709 25.5732 28.6822 25.6163 28.6553C26.3477 28.1984 27.162 27.8643 27.9718 27.5756C28.0489 27.548 28.1256 27.5198 28.2024 27.4913C28.9187 27.2323 29.6869 27.0911 30.4376 26.9734C30.5204 26.9604 30.6031 26.9467 30.6858 26.9329Z" fill="white"/>
</svg>
