<svg width="180" height="180" viewBox="0 0 180 180" fill="none" xmlns="http://www.w3.org/2000/svg">
<path d="M140 0H40C17.9086 0 0 17.9086 0 40V140C0 162.091 17.9086 180 40 180H140C162.091 180 180 162.091 180 140V40C180 17.9086 162.091 0 140 0Z" fill="#0C0C0E"/>
<path d="M134.736 71.2079C135.143 71.3385 135.398 71.6342 135.69 71.9298C135.745 71.9843 135.8 72.0387 135.856 72.0948C136.247 72.4886 136.62 72.8962 136.985 73.3143C137.204 73.5572 137.433 73.7863 137.666 74.0157C138.069 74.4169 138.428 74.8404 138.784 75.2838C138.998 75.544 139.222 75.7901 139.452 76.0363C140.015 76.6487 140.523 77.3022 141.034 77.9582C141.198 78.1676 141.364 78.3757 141.53 78.5834C142.022 79.2 142.509 79.8151 142.954 80.4679C143.111 80.6954 143.274 80.9176 143.439 81.1394C144.722 82.8643 145.903 84.6764 146.933 86.563C147.048 86.7734 147.165 86.9827 147.283 87.1913C148.132 88.6919 148.895 90.231 149.592 91.8081C149.672 91.9895 149.755 92.1701 149.838 92.3503C150.257 93.2594 150.629 94.1846 150.993 95.1168C151.027 95.2034 151.061 95.2899 151.096 95.3791C151.518 96.4565 151.92 97.5351 152.264 98.6398C152.341 98.8843 152.422 99.1278 152.502 99.3713C153.153 101.357 153.662 103.378 154.137 105.412C154.158 105.5 154.179 105.588 154.2 105.679C155.135 109.761 156.039 114.51 155.103 118.653L155.043 118.93C154.577 121.046 153.806 122.921 152.375 124.566C152.271 124.697 152.167 124.828 152.064 124.959C149.884 127.673 146.593 129.179 143.181 129.586C139.5 129.939 135.658 128.891 132.784 126.54L132.558 126.347C132.371 126.187 132.178 126.039 131.981 125.891C129.798 124.135 128.532 121.487 127.774 118.856C127.755 118.79 127.735 118.724 127.715 118.656C127.578 118.171 127.493 117.69 127.43 117.191C127.418 117.107 127.407 117.024 127.396 116.938C127.313 116.298 127.246 115.658 127.18 115.017C126.926 112.527 126.551 110.098 125.661 107.744C125.577 107.519 125.499 107.295 125.423 107.067C124.636 104.719 123.577 102.502 122.346 100.356C122.294 100.265 122.294 100.265 122.24 100.171C121.239 98.4209 120.129 96.7338 118.778 95.2303L118.617 95.0488L118.477 94.8969C118.35 94.6661 118.397 94.5332 118.459 94.2807C118.583 94.0992 118.583 94.0992 118.743 93.927L118.917 93.7382L119.1 93.5454L119.282 93.3473C119.729 92.8672 119.729 92.8671 119.935 92.8581L119.99 92.7044C120.135 92.4211 120.329 92.2246 120.548 91.9939C121.011 91.4995 121.468 91.0035 121.82 90.4219L122.001 90.4139L122.248 89.86L122.429 89.852L122.494 89.6922C122.598 89.4728 122.72 89.2851 122.859 89.0864L122.998 88.8865L123.104 88.7362C123.374 88.8421 123.544 88.9493 123.736 89.1667C123.784 89.2209 123.833 89.2752 123.882 89.3311C123.959 89.4196 123.959 89.4196 124.037 89.5099C124.091 89.5716 124.145 89.6333 124.201 89.6969C125.104 90.7393 125.941 91.8212 126.711 92.9654C126.886 93.2236 127.071 93.4697 127.265 93.7134C127.668 94.2297 128.003 94.7858 128.341 95.3451C128.486 95.5834 128.632 95.8204 128.779 96.0575C129.392 97.0545 129.948 98.0572 130.44 99.1186C130.612 99.4898 130.801 99.8493 130.996 100.209C131.701 101.549 132.182 102.998 132.663 104.43C132.694 104.52 132.725 104.611 132.756 104.704C133.092 105.698 133.423 106.686 133.657 107.709C133.724 107.998 133.801 108.283 133.88 108.569C134.429 110.682 134.756 112.861 134.971 115.032C135.032 115.647 135.117 116.243 135.273 116.841C135.292 116.917 135.311 116.993 135.331 117.071C135.566 117.96 135.905 118.664 136.487 119.379L136.615 119.54C137.027 120.02 137.545 120.342 138.083 120.667L138.282 120.789C139.378 121.394 140.44 121.51 141.67 121.46C141.776 121.456 141.882 121.452 141.991 121.448C143.61 121.353 145.006 120.704 146.182 119.588C147.423 118.003 147.741 116.37 147.629 114.404C147.626 114.327 147.622 114.249 147.618 114.17C147.446 110.827 146.918 107.317 145.822 104.147C145.636 103.606 145.491 103.056 145.342 102.505C145.071 101.508 144.759 100.538 144.399 99.57L144.288 99.2709C143.469 97.0649 142.568 94.9058 141.478 92.8185C141.405 92.6772 141.332 92.5359 141.259 92.3946C140.778 91.4687 140.264 90.5659 139.733 89.6686C139.613 89.4645 139.495 89.2593 139.379 89.0535C138.204 86.9907 136.813 85.0878 135.354 83.2202L135.147 82.9542C133.987 81.4803 132.718 80.0884 131.429 78.7273C131.307 78.5986 131.187 78.4688 131.066 78.339L130.887 78.1591C130.779 77.9895 130.779 77.9895 130.776 77.7711C130.867 77.4788 131.004 77.2803 131.184 77.0326C131.488 76.606 131.77 76.1717 132.038 75.7222C132.305 75.2746 132.577 74.8306 132.856 74.3907C133.269 73.7377 133.651 73.0696 134.03 72.3969C134.068 72.3291 134.107 72.2614 134.146 72.1916C134.222 72.0567 134.298 71.9217 134.374 71.7866C134.641 71.3126 134.641 71.3125 134.736 71.2079Z" fill="url(#paint0_linear_467_1063)"/>
<path d="M131.274 45.9231C132.277 46.2278 133.252 46.569 134.202 47.0142C134.518 47.1492 134.838 47.2613 135.162 47.3733C135.605 47.5275 136.042 47.6927 136.479 47.8616L136.757 47.9638L137.02 48.0667C137.138 48.1114 137.138 48.1114 137.258 48.157C137.442 48.2777 137.442 48.2776 137.534 48.4829C137.557 48.7806 137.494 48.9585 137.383 49.235C137.326 49.3804 137.326 49.3804 137.268 49.5288C137.209 49.6776 137.208 49.6776 137.148 49.8294C137.079 50.0175 137.011 50.2057 136.943 50.3943L136.739 50.9563L136.636 51.2415C136.495 51.6298 136.355 52.0154 136.182 52.3909C135.951 52.8922 135.766 53.4116 135.572 53.9278C135.179 54.973 134.766 56.0024 134.295 57.0153C134.212 57.2003 134.131 57.3857 134.049 57.5711C133.783 58.1722 133.507 58.7668 133.221 59.3584C133.024 59.7674 132.836 60.1799 132.653 60.595C131.528 63.1332 130.258 65.6065 128.894 68.0243C128.85 68.1021 128.806 68.18 128.761 68.2602C126.822 71.7046 124.772 75.049 122.598 78.3491C122.495 78.505 122.392 78.6609 122.29 78.8169C121.205 80.4651 120.073 82.0839 118.899 83.6703C118.858 83.7255 118.817 83.7808 118.775 83.8376C118.536 84.1597 118.298 84.4815 118.058 84.803C117.898 85.019 117.738 85.2356 117.578 85.4528C117.17 86.0081 116.738 86.5382 116.292 87.0636C116.063 87.3354 115.84 87.6117 115.619 87.8901C114.894 88.7969 114.139 89.6785 113.387 90.5629C113.297 90.6695 113.206 90.7762 113.116 90.8828C113.073 90.9341 113.029 90.9853 112.984 91.0381C112.762 91.3006 112.546 91.5657 112.338 91.8392C112.118 92.1147 112.118 92.1147 111.905 92.2994C111.649 92.5251 111.455 92.7744 111.245 93.0427C110.977 93.3757 110.701 93.7074 110.39 94.0009L110.209 94.0088L110.045 94.3782L109.864 94.3861C109.843 94.44 109.822 94.4938 109.8 94.5493C109.692 94.7701 109.571 94.9179 109.405 95.0982L109.227 95.2918L109.041 95.4915L108.861 95.6876C108.51 96.0673 108.148 96.4299 107.772 96.7843C107.548 96.9995 107.346 97.2319 107.143 97.4668C107.017 97.5887 107.017 97.5887 106.836 97.5966L106.758 97.8716C106.635 98.0071 106.635 98.0071 106.471 98.1558C106.158 98.4454 105.854 98.7422 105.553 99.0447C105.463 99.1351 105.373 99.2256 105.283 99.3161C105.239 99.3602 105.195 99.4044 105.149 99.4498C104.041 100.561 102.879 101.61 101.711 102.657C101.565 102.788 101.421 102.918 101.276 103.049C100.826 103.455 100.368 103.849 99.9024 104.236C99.5155 104.56 99.1394 104.895 98.764 105.232C98.2155 105.723 97.6524 106.19 97.0754 106.647C96.7264 106.923 96.3832 107.207 96.0399 107.49C95.4616 107.966 94.8759 108.432 94.2835 108.891C94.1087 109.027 93.9343 109.163 93.76 109.299C93.0132 109.881 92.2582 110.449 91.4916 111.005C91.303 111.142 91.1151 111.28 90.9273 111.418C89.3855 112.551 87.8241 113.655 86.2235 114.704C86.0089 114.845 85.7946 114.987 85.5802 115.128C85.5302 115.161 85.4803 115.194 85.4288 115.228C85.1684 115.4 84.9091 115.573 84.6518 115.75C83.9443 116.235 83.2228 116.688 82.4884 117.131C82.2735 117.261 82.0587 117.391 81.844 117.521C81.791 117.553 81.738 117.586 81.6834 117.619C81.3114 117.845 80.9431 118.076 80.5759 118.31C80.0187 118.663 79.4519 118.998 78.879 119.326C78.7835 119.381 78.688 119.436 78.5896 119.492C77.8994 119.888 77.2064 120.278 76.5096 120.662C76.298 120.778 76.0869 120.896 75.8758 121.013C75.7639 121.076 75.652 121.138 75.54 121.2C75.1465 121.418 74.7543 121.638 74.3625 121.86C73.2134 122.507 72.0598 123.124 70.8646 123.683C70.3143 123.943 69.7681 124.212 69.2211 124.479C67.7456 125.2 66.257 125.89 64.7633 126.573C64.595 126.649 64.4268 126.727 64.2587 126.804C63.1194 127.328 61.9496 127.77 60.7769 128.213C60.3117 128.389 59.8476 128.568 59.3837 128.747C59.1723 128.829 58.9608 128.911 58.7493 128.992C58.6147 129.044 58.48 129.097 58.3454 129.149C57.4291 129.505 56.5059 129.825 55.5691 130.123C55.3588 130.191 55.1496 130.261 54.9406 130.332C52.6759 131.102 50.3933 131.808 48.0752 132.4C47.9948 132.42 47.9144 132.441 47.8316 132.462C47.317 132.594 46.8012 132.719 46.2841 132.84L46.0365 132.899C43.2574 133.546 40.1928 134.032 37.3516 133.504C37.2715 133.489 37.1915 133.475 37.109 133.46C35.2183 133.105 33.3796 132.459 31.8237 131.302L31.639 131.22L31.6311 131.039L31.4684 130.973C31.1061 130.799 30.8167 130.531 30.5113 130.273L30.3284 130.12C28.8508 128.827 27.7997 127.147 27.0368 125.356C27.011 125.297 26.9852 125.238 26.9586 125.178C26.1766 123.361 26.0888 121.332 26.0166 119.381C26.0123 119.275 26.008 119.169 26.0035 119.06C25.9351 117.359 25.9399 115.689 26.0858 113.992C26.0991 113.818 26.1123 113.644 26.1254 113.469C26.3997 110.046 26.8834 106.57 27.8127 103.258C27.8809 103.008 27.9447 102.757 28.0084 102.505C28.3174 101.287 28.6573 100.086 29.0467 98.8918C29.1259 98.6466 29.2029 98.4007 29.2794 98.1545C29.3166 98.0352 29.3167 98.0352 29.3547 97.9134C29.4013 97.7641 29.4476 97.6147 29.4936 97.4652C29.6092 97.0988 29.7443 96.7799 29.9327 96.4435C29.983 96.2956 30.0291 96.1463 30.0715 95.9961C30.2575 95.3828 30.506 94.801 30.756 94.2118C30.848 93.9925 30.9351 93.7712 31.0222 93.5499C31.4424 92.5046 31.9232 91.4843 32.3974 90.4627C32.4379 90.3749 32.4785 90.2871 32.5203 90.1967C32.7887 89.6213 33.0795 89.0627 33.3866 88.5071C33.4525 88.3846 33.5183 88.2621 33.584 88.1395C34.5318 86.3888 35.5698 84.6769 36.6763 83.022C36.7525 82.9068 36.8287 82.7916 36.9048 82.6764C37.3568 81.9941 37.8192 81.3203 38.2927 80.6527C38.4115 80.4824 38.524 80.3077 38.6315 80.1301L38.8122 80.1222L38.8736 79.9667C39.2469 79.1947 39.9067 78.5219 40.4602 77.8699C40.6759 77.6156 40.8892 77.3597 41.1012 77.1024L41.2718 76.8955C41.3784 76.7645 41.4846 76.633 41.5885 76.4997C42.0069 75.966 42.4566 75.463 42.9145 74.9633C43.0453 74.8202 43.1754 74.6764 43.3055 74.5327C43.3887 74.4415 43.472 74.3504 43.5553 74.2593C43.6302 74.1772 43.705 74.0951 43.7821 74.0105C43.9676 73.8311 43.9676 73.8311 44.1483 73.8231L44.3131 73.4538L44.4938 73.4459L44.4859 73.2652C44.6006 73.1389 44.6006 73.1389 44.7679 72.9869C45.0013 72.7713 45.2301 72.553 45.4525 72.3261C45.4989 72.2788 45.5454 72.2315 45.5932 72.1827C45.686 72.0878 45.7786 71.9925 45.8708 71.897C46.2016 71.5606 46.2016 71.5606 46.4022 71.5518L46.3943 71.3711C46.5724 71.2053 46.7519 71.0494 46.9392 70.8946C47.0523 70.7995 47.1653 70.7042 47.2781 70.6088L47.4507 70.4631C47.6887 70.2591 47.9185 70.0473 48.1487 69.8345C48.653 69.3727 49.1747 68.9369 49.7087 68.5101C49.7671 68.4633 49.8255 68.4165 49.8857 68.3683C51.5519 67.0356 53.2486 65.7455 55.0353 64.5776C55.3623 64.3637 55.6837 64.1438 56.0022 63.9173C58.6227 62.0686 61.6697 60.5043 64.6217 59.2594C64.8794 59.1504 65.1359 59.039 65.3924 58.9273C68.2511 57.6874 71.1707 56.7138 74.1816 55.9203C74.4703 55.8436 74.7582 55.7647 75.046 55.6847C77.065 55.1272 79.1148 54.7952 81.1835 54.4848C81.2754 54.4709 81.3672 54.4571 81.4618 54.4428C83.6143 54.1194 85.7552 53.9626 87.9286 53.8665C88.0291 53.862 88.0291 53.862 88.1317 53.8574C90.1995 53.7656 92.2528 53.7141 94.3198 53.8589C94.516 53.8726 94.7124 53.8856 94.9087 53.8986C95.6699 53.9494 96.4301 54.0088 97.1901 54.0754C97.4636 54.0991 97.7372 54.1208 98.0109 54.1418C100.901 54.3769 103.822 54.9826 106.628 55.6941C106.761 55.7278 106.761 55.7278 106.898 55.7622C107.689 55.9648 108.473 56.1897 109.257 56.4218C109.353 56.4502 109.353 56.4502 109.451 56.4792C110.21 56.7041 110.967 56.9318 111.717 57.1852C111.779 57.2058 111.84 57.2264 111.903 57.2476C112.266 57.3734 112.613 57.5227 112.962 57.6816C113.253 57.8087 113.552 57.91 113.853 58.0137C115.412 58.5664 116.916 59.2536 118.403 59.9754L118.653 60.0966C118.907 60.2201 119.161 60.3441 119.414 60.4685C119.493 60.5067 119.571 60.545 119.652 60.5845C119.761 60.6387 119.761 60.6387 119.874 60.6941C119.97 60.7416 119.97 60.7416 120.069 60.7902C120.265 60.8962 120.445 61.0164 120.626 61.1451C120.464 61.6299 120.245 62.0771 120.02 62.5352C119.975 62.6254 119.931 62.7157 119.885 62.8086C119.477 63.6338 119.041 64.4419 118.598 65.2487C118.347 65.7074 118.102 66.1688 117.857 66.63C117.809 66.7201 117.761 66.8102 117.712 66.903C117.6 67.1132 117.488 67.3234 117.376 67.5337C116.739 67.4122 116.171 67.0954 115.606 66.7853C113.435 65.6307 111.04 64.8047 108.713 64.0212C108.626 63.9917 108.539 63.9621 108.449 63.9316C107.283 63.5369 106.116 63.1829 104.918 62.8981C104.66 62.836 104.404 62.771 104.147 62.7056C102.999 62.4149 101.85 62.1747 100.683 61.9755C100.499 61.9427 100.315 61.9054 100.132 61.8675C99.1259 61.6596 98.1118 61.5206 97.0909 61.4079C97.0288 61.401 96.9666 61.3941 96.9026 61.387C94.6108 61.1341 92.3212 61.0147 90.0173 61.1146C89.8726 61.1206 89.7279 61.1267 89.5833 61.1327C89.282 61.1454 88.9807 61.1584 88.6795 61.1717C88.3755 61.185 88.0715 61.1977 87.7675 61.2098C86.0415 61.2786 84.3384 61.3735 82.6286 61.6349C82.5111 61.6514 82.3935 61.668 82.2724 61.685C81.9879 61.7252 81.7039 61.7679 81.42 61.8124C81.3208 61.8279 81.2215 61.8435 81.1193 61.8595C80.4081 61.9738 79.7009 62.1038 78.995 62.2469C78.9064 62.2647 78.8178 62.2825 78.7265 62.3009C78.1884 62.4134 77.666 62.5561 77.1404 62.7166C76.7789 62.8238 76.4133 62.9079 76.0462 62.9929C75.0567 63.2299 74.095 63.5381 73.131 63.8619L72.9225 63.931C71.9137 64.2661 70.919 64.64 69.9253 65.0171C69.785 65.0703 69.6446 65.1233 69.5042 65.1762C68.7059 65.4773 67.9319 65.7995 67.1666 66.178C66.8496 66.3332 66.5291 66.4668 66.2016 66.5986C65.5749 66.8575 64.9902 67.1714 64.4032 67.5098C64.1725 67.6421 63.9391 67.7632 63.6999 67.8794C63.1467 68.1516 62.6157 68.4627 62.082 68.7707L61.7707 68.9488C61.1675 69.2961 60.5806 69.6586 60.0052 70.0499C59.8746 70.1375 59.7439 70.225 59.6132 70.3125C59.4163 70.445 59.2196 70.5777 59.0229 70.7106C58.7216 70.9141 58.4203 71.1174 58.1155 71.3156C57.5211 71.7065 56.9709 72.1318 56.4256 72.5872C56.0004 72.942 55.5666 73.2829 55.1264 73.6189C54.141 74.3748 53.2152 75.1883 52.3082 76.0359C52.0692 76.2586 51.8242 76.4736 51.5779 76.6882C51.038 77.1682 50.5401 77.6872 50.0385 78.2065C49.7823 78.4716 49.5226 78.7323 49.2598 78.9908C48.8832 79.3614 48.5346 79.7347 48.2134 80.1539C48.0134 80.4027 47.7975 80.6355 47.5803 80.8691C47.2585 81.2162 46.9507 81.569 46.6596 81.9424C46.4043 82.2649 46.1362 82.5766 45.8698 82.89C45.5795 83.2532 45.3146 83.632 45.0478 84.0127C44.9504 84.1496 44.853 84.2865 44.7554 84.4233C42.7913 87.1816 41.0454 89.9977 39.5322 93.0295C39.4378 93.2187 39.343 93.4077 39.2479 93.5965C38.235 95.6108 37.2729 97.6993 36.7061 99.8889C36.5989 100.288 36.4573 100.667 36.3102 101.052C36.1581 101.479 36.0412 101.914 35.9226 102.351C35.848 102.618 35.7581 102.877 35.6633 103.137C35.4811 103.651 35.3546 104.172 35.2341 104.703C35.2113 104.802 35.1885 104.901 35.165 105.003C34.9668 105.875 34.7955 106.751 34.6329 107.631C34.5855 107.881 34.5324 108.13 34.4788 108.38C34.1325 110.098 33.978 111.826 33.8401 113.571C33.8069 113.989 33.7695 114.406 33.7275 114.823C33.6048 116.127 33.6282 117.416 33.6765 118.723C33.6804 118.851 33.6804 118.851 33.6845 118.982C33.7543 121.101 34.1491 123.092 35.608 124.709C37.2072 126.157 39.1336 126.306 41.1942 126.212C42.3346 126.154 43.4159 125.958 44.5215 125.676C44.5818 125.66 44.6421 125.645 44.7042 125.629C47.9729 124.793 51.1861 123.789 54.3757 122.69C54.5985 122.614 54.8216 122.539 55.0449 122.464C57.4492 121.652 59.7993 120.66 62.1304 119.66C62.5081 119.499 62.888 119.343 63.2693 119.19C64.1886 118.818 65.0774 118.383 65.9594 117.93C66.3657 117.721 66.773 117.518 67.1875 117.327C68.5965 116.669 69.9666 115.937 71.3342 115.199C71.703 115 72.0724 114.802 72.4433 114.607C73.4035 114.102 74.3521 113.579 75.2935 113.039C75.3461 113.009 75.3987 112.979 75.4529 112.948C76.1405 112.555 76.815 112.145 77.4826 111.719C77.9838 111.401 78.4937 111.097 79.0048 110.795C79.6564 110.409 80.297 110.01 80.9302 109.595C81.0261 109.533 81.0261 109.533 81.1239 109.469C82.0974 108.834 83.0558 108.182 83.999 107.502C84.2486 107.323 84.4994 107.146 84.7501 106.968C85.4479 106.474 86.1399 105.972 86.8286 105.465C87.0099 105.332 87.1916 105.199 87.3733 105.066C88.3735 104.334 89.3662 103.596 90.3195 102.803C90.7469 102.448 91.1815 102.103 91.619 101.76C92.6661 100.938 93.6747 100.069 94.6741 99.1894C94.8543 99.0318 95.0366 98.877 95.2198 98.7228C96.1409 97.9414 97.0365 97.1301 97.9207 96.3073L98.1701 96.0757L98.3115 95.9408C98.6726 95.6011 98.6726 95.6011 98.8731 95.5923L98.8651 95.4116C98.9859 95.2787 98.9859 95.2787 99.1579 95.1215C99.5305 94.777 99.8883 94.4197 100.245 94.0587C100.428 93.8947 100.428 93.8947 100.609 93.8868L100.601 93.7061C100.715 93.5798 100.715 93.5798 100.883 93.4278C101.203 93.1306 101.514 92.8258 101.822 92.5154C102.143 92.1913 102.467 91.8711 102.806 91.5648C102.96 91.4159 103.104 91.2585 103.248 91.1002C103.386 90.9495 103.524 90.7993 103.662 90.6492C103.949 90.3383 104.235 90.027 104.521 89.7157C104.643 89.5822 104.766 89.4487 104.889 89.3154C105.068 89.1211 105.247 88.9265 105.426 88.7318C105.48 88.6732 105.534 88.6146 105.59 88.5543C105.916 88.198 106.224 87.8317 106.522 87.4515C106.714 87.2118 106.921 86.9903 107.131 86.7663C107.46 86.412 107.772 86.0492 108.069 85.6676C108.205 85.4986 108.349 85.3419 108.498 85.1845C108.752 84.9135 108.971 84.6271 109.191 84.3281C109.423 84.0123 109.657 83.7147 109.926 83.4302C110.26 83.0757 110.547 82.6958 110.835 82.3034C111.058 82.0014 111.287 81.7047 111.518 81.4085C111.85 80.9814 112.173 80.5489 112.49 80.1103C112.654 79.8877 112.823 79.6695 112.994 79.452C113.457 78.8626 113.89 78.2573 114.316 77.6406C114.578 77.2616 114.844 76.8881 115.123 76.5206C115.518 75.998 115.887 75.4593 116.252 74.9153L116.415 74.6723C116.804 74.0886 117.184 73.4985 117.562 72.9075C117.757 72.6017 117.954 72.2961 118.154 71.9931C118.794 71.0223 119.391 70.0259 119.99 69.0293C120.162 68.7438 120.334 68.4587 120.507 68.1739C120.575 68.0609 120.643 67.948 120.712 67.835C120.858 67.5931 121.005 67.3518 121.153 67.1113C121.716 66.1942 122.234 65.2513 122.757 64.3105C122.822 64.1934 122.887 64.0763 122.952 63.9593C123.061 63.7648 123.169 63.5703 123.277 63.3757C123.376 63.1973 123.476 63.0192 123.577 62.8414C124.757 60.7467 125.825 58.5952 126.858 56.4249C126.905 56.3258 126.905 56.3258 126.953 56.2246C127.554 54.9614 128.134 53.6909 128.663 52.3957C128.786 52.0963 128.913 51.7987 129.042 51.5014C129.417 50.6306 129.783 49.7619 130.097 48.8667C130.29 48.317 130.51 47.7807 130.737 47.244C130.874 46.9174 131.005 46.5888 131.132 46.2585C131.177 46.1455 131.224 46.0339 131.274 45.9231Z" fill="url(#paint1_linear_467_1063)"/>
<path d="M85.3271 74.4897C89.591 73.8105 94.146 74.0943 98.3803 74.8182C98.666 74.867 98.9519 74.9136 99.2379 74.9599C100.311 75.1383 101.343 75.3998 102.384 75.7145C102.617 75.7834 102.851 75.8477 103.085 75.9106C104.746 76.3583 106.371 76.9405 107.932 77.6655C108.385 77.8755 108.846 78.0432 109.32 78.1969C109.52 78.2882 109.52 78.2882 109.622 78.5553C109.51 78.7497 109.51 78.7497 109.335 78.9752L109.142 79.228L108.939 79.4905C108.816 79.656 108.693 79.8217 108.57 79.9875C108.244 80.4237 107.911 80.855 107.577 81.2852C107.332 81.6011 107.091 81.9196 106.853 82.241C106.531 82.6747 106.198 83.1 105.863 83.5235C105.814 83.585 105.765 83.6465 105.715 83.7098C105.538 83.9328 105.362 84.1528 105.17 84.3629C104.736 84.3522 104.343 84.1546 103.948 83.9922C103.171 83.68 102.388 83.4067 101.587 83.1622C101.528 83.1441 101.47 83.1259 101.41 83.1072C100.922 82.9569 100.43 82.8219 99.9366 82.6915L99.6364 82.6115C96.6984 81.8427 93.6907 81.4093 90.6498 81.4694C90.5445 81.4712 90.5444 81.4711 90.437 81.473C88.2148 81.512 86.0688 81.6858 83.8895 82.128L83.5864 82.1881C81.1326 82.6801 78.6446 83.4358 76.3914 84.5388C76.2474 84.6042 76.1032 84.669 75.9587 84.7332L75.7489 84.8287C75.6141 84.8898 75.4792 84.9508 75.3438 85.0107C74.3516 85.4502 73.4186 85.9504 72.4954 86.5202C72.3835 86.589 72.3834 86.589 72.2693 86.6593C71.1937 87.3237 70.1392 88.008 69.1313 88.7723C68.8902 88.9413 68.8902 88.9413 68.7095 88.9492L68.7174 89.1299C68.5635 89.2643 68.5635 89.2643 68.3456 89.4235C67.084 90.3682 65.8048 91.3961 64.7666 92.5878C64.6126 92.7595 64.4489 92.9138 64.2793 93.0699C63.9187 93.406 63.6187 93.7821 63.3155 94.1698L63.1531 94.3527L62.9724 94.3606C62.9499 94.4153 62.9274 94.4701 62.9042 94.5264C62.8121 94.7203 62.7151 94.8648 62.5806 95.0309C62.5357 95.0869 62.4908 95.1428 62.4445 95.2004C62.3723 95.2894 62.3723 95.2895 62.2986 95.3803C62.1967 95.5077 62.0947 95.6353 61.9929 95.7628C61.8513 95.9393 61.7096 96.1156 61.567 96.2912C60.576 97.5136 59.7295 98.8585 58.9757 100.239C58.9464 100.292 58.9171 100.345 58.887 100.399C57.9994 102.011 57.2137 103.676 56.5702 105.399C56.4957 105.596 56.4177 105.791 56.3388 105.986C55.377 108.406 54.7605 111.1 54.4336 113.677C54.2961 114.691 53.9164 115.283 53.1482 115.974C52.0085 116.783 50.5997 117.053 49.263 117.369C49.0634 117.417 48.8648 117.468 48.6663 117.521L48.3205 117.611L48.0235 117.691C47.6158 117.768 47.215 117.782 46.8009 117.791C46.828 114.453 47.0929 111.058 48.0082 107.833C48.0761 107.588 48.1394 107.341 48.2027 107.095C48.4201 106.255 48.6785 105.432 48.9554 104.61C48.978 104.543 49.0007 104.475 49.024 104.406C49.6072 102.668 50.2411 100.971 51.0492 99.3247C51.1353 99.1484 51.2195 98.9714 51.3028 98.7939C51.609 98.1455 51.9469 97.5269 52.3121 96.9102C52.4037 96.7514 52.4951 96.5924 52.5864 96.4335C52.686 96.2615 52.7856 96.0895 52.8852 95.9176C52.9336 95.833 52.9821 95.7484 53.032 95.6612C53.1007 95.5434 53.1007 95.5434 53.1708 95.4231C53.212 95.3518 53.2532 95.2804 53.2956 95.207C53.3325 95.1557 53.3694 95.1045 53.4074 95.0517L53.5881 95.0438L53.6496 94.8434C53.7549 94.5685 53.8853 94.3557 54.0508 94.1126L54.2358 93.84L54.4281 93.5586L54.6069 93.2891C55.0422 92.638 55.5114 92.0225 55.9994 91.4105C56.2171 91.1416 56.2171 91.1416 56.3689 90.9021L56.4776 90.753L56.6583 90.7451L56.7125 90.5949C56.8598 90.3033 57.0622 90.0699 57.2742 89.8242C57.3419 89.745 57.3419 89.7449 57.411 89.6641C58.1117 88.85 58.8237 88.0366 59.6143 87.3082C59.7691 87.1608 59.91 87.0054 60.0516 86.8453C60.2786 86.6034 60.2786 86.6034 60.4593 86.5954L60.4514 86.4147C60.7522 86.13 60.7522 86.13 60.9816 86.1199L60.9736 85.9392C61.1017 85.8123 61.1017 85.8123 61.2895 85.6595C61.5868 85.4141 61.8808 85.166 62.1711 84.9124C64.1611 83.1802 66.2997 81.6923 68.5434 80.3097C68.6832 80.2235 68.8228 80.137 68.962 80.05C71.323 78.5749 73.9516 77.4964 76.5659 76.5645C76.8147 76.4755 77.0625 76.3844 77.3102 76.2925C79.6226 75.4563 82.1024 75.0006 84.5258 74.6206C84.7932 74.5786 85.0602 74.5344 85.3271 74.4897Z" fill="url(#paint2_linear_467_1063)"/>
<defs>
<linearGradient id="paint0_linear_467_1063" x1="23.5942" y1="64.2205" x2="146.223" y2="115.266" gradientUnits="userSpaceOnUse">
<stop/>
<stop offset="0.475962" stop-color="#28C35F"/>
<stop offset="1" stop-color="#FF5335"/>
</linearGradient>
<linearGradient id="paint1_linear_467_1063" x1="23.5942" y1="64.2205" x2="146.223" y2="115.266" gradientUnits="userSpaceOnUse">
<stop/>
<stop offset="0.475962" stop-color="#28C35F"/>
<stop offset="1" stop-color="#FF5335"/>
</linearGradient>
<linearGradient id="paint2_linear_467_1063" x1="23.5942" y1="64.2205" x2="146.223" y2="115.266" gradientUnits="userSpaceOnUse">
<stop/>
<stop offset="0.475962" stop-color="#28C35F"/>
<stop offset="1" stop-color="#FF5335"/>
</linearGradient>
</defs>
</svg>
