<svg width="29" height="29" viewBox="0 0 29 29" fill="none" xmlns="http://www.w3.org/2000/svg">
<path d="M21.9335 0.15625H6.37798C2.94155 0.15625 0.155762 2.94203 0.155762 6.37847V21.934C0.155762 25.3705 2.94155 28.1563 6.37798 28.1563H21.9335C25.37 28.1563 28.1558 25.3705 28.1558 21.934V6.37847C28.1558 2.94203 25.37 0.15625 21.9335 0.15625Z" fill="white" stroke="#E5E7EB" stroke-width="0.311111"/>
<path d="M22.2971 10.8814C22.3703 10.905 22.4163 10.9583 22.469 11.0116C22.4788 11.0214 22.4887 11.0312 22.4988 11.0413C22.5694 11.1123 22.6366 11.1858 22.7025 11.2611C22.7419 11.3049 22.7831 11.3462 22.8251 11.3876C22.8978 11.4599 22.9625 11.5362 23.0266 11.6162C23.0652 11.6631 23.1056 11.7074 23.147 11.7518C23.2486 11.8622 23.3401 11.98 23.4323 12.0982C23.4618 12.136 23.4917 12.1735 23.5216 12.2109C23.6104 12.3221 23.6982 12.433 23.7783 12.5506C23.8066 12.5916 23.8361 12.6317 23.8658 12.6717C24.097 12.9826 24.3098 13.3093 24.4957 13.6493C24.5164 13.6873 24.5373 13.725 24.5586 13.7626C24.7117 14.0331 24.8493 14.3105 24.9748 14.5948C24.9893 14.6275 25.0042 14.66 25.0192 14.6925C25.0947 14.8564 25.1618 15.0232 25.2274 15.1912C25.2335 15.2068 25.2396 15.2224 25.2459 15.2385C25.322 15.4327 25.3945 15.6271 25.4566 15.8262C25.4705 15.8703 25.485 15.9142 25.4995 15.9581C25.6168 16.316 25.7084 16.6803 25.7942 17.0469C25.798 17.0628 25.8017 17.0787 25.8056 17.0951C25.974 17.831 26.1369 18.6869 25.9682 19.4338L25.9575 19.4837C25.8735 19.8651 25.7344 20.2031 25.4765 20.4997C25.4577 20.5232 25.439 20.5468 25.4205 20.5705C25.0275 21.0597 24.4342 21.3311 23.8192 21.4046C23.1557 21.4682 22.4632 21.2793 21.9452 20.8555L21.9044 20.8206C21.8706 20.7918 21.8359 20.7651 21.8003 20.7384C21.4069 20.4219 21.1787 19.9446 21.0421 19.4704C21.0386 19.4585 21.0351 19.4465 21.0314 19.4342C21.0067 19.3468 20.9914 19.2603 20.9799 19.1702C20.9779 19.1552 20.9759 19.1401 20.9739 19.1246C20.959 19.0093 20.9468 18.8939 20.935 18.7783C20.8892 18.3296 20.8217 17.8916 20.6612 17.4673C20.6461 17.4268 20.6319 17.3863 20.6182 17.3454C20.4764 16.922 20.2855 16.5225 20.0636 16.1356C20.0542 16.1191 20.0542 16.1191 20.0446 16.1023C19.864 15.7868 19.664 15.4827 19.4204 15.2117L19.3914 15.179L19.3661 15.1516C19.3432 15.11 19.3518 15.086 19.3629 15.0405C19.3853 15.0078 19.3853 15.0078 19.4141 14.9767L19.4454 14.9427L19.4784 14.9079L19.5112 14.8722C19.5919 14.7857 19.5919 14.7857 19.629 14.7841L19.6389 14.7563C19.665 14.7053 19.7 14.6699 19.7395 14.6283C19.823 14.5392 19.9053 14.4498 19.9688 14.3449L20.0013 14.3435L20.0459 14.2436L20.0785 14.2422L20.0903 14.2134C20.109 14.1738 20.131 14.14 20.156 14.1042L20.1811 14.0681L20.2002 14.041C20.249 14.0601 20.2795 14.0795 20.3142 14.1187C20.3229 14.1284 20.3316 14.1382 20.3405 14.1483C20.3544 14.1642 20.3544 14.1642 20.3685 14.1805C20.3782 14.1916 20.3879 14.2028 20.3979 14.2142C20.5608 14.4021 20.7116 14.5972 20.8504 14.8034C20.8819 14.8499 20.9153 14.8943 20.9504 14.9382C21.0229 15.0313 21.0833 15.1315 21.1442 15.2324C21.1703 15.2753 21.1968 15.318 21.2232 15.3608C21.3336 15.5405 21.4339 15.7212 21.5226 15.9126C21.5537 15.9795 21.5876 16.0443 21.6228 16.1091C21.7499 16.3506 21.8366 16.6118 21.9234 16.8699C21.9289 16.8862 21.9344 16.9025 21.9401 16.9193C22.0006 17.0985 22.0604 17.2766 22.1026 17.4611C22.1145 17.5132 22.1284 17.5645 22.1427 17.616C22.2416 17.9969 22.3006 18.3898 22.3393 18.7811C22.3503 18.8919 22.3656 18.9993 22.3937 19.1072C22.3972 19.1209 22.4007 19.1346 22.4043 19.1487C22.4466 19.3089 22.5078 19.4358 22.6126 19.5647L22.6356 19.5936C22.71 19.6802 22.8033 19.7382 22.9002 19.7968L22.9362 19.8188C23.1338 19.9279 23.3252 19.9487 23.5469 19.9398C23.566 19.9391 23.5851 19.9383 23.6048 19.9376C23.8966 19.9205 24.1482 19.8036 24.3602 19.6023C24.5839 19.3166 24.6412 19.0222 24.6211 18.6679C24.6204 18.6539 24.6197 18.64 24.619 18.6256C24.5881 18.0231 24.4929 17.3904 24.2953 16.8189C24.2618 16.7215 24.2356 16.6223 24.2089 16.5229C24.1599 16.3433 24.1038 16.1683 24.0388 15.9939L24.0188 15.94C23.8711 15.5424 23.7088 15.1532 23.5122 14.7769C23.4991 14.7514 23.4859 14.726 23.4728 14.7005C23.3862 14.5336 23.2935 14.3709 23.1977 14.2091C23.1761 14.1723 23.1549 14.1353 23.1339 14.0982C22.9222 13.7264 22.6714 13.3834 22.4084 13.0468L22.371 12.9988C22.1619 12.7331 21.9332 12.4822 21.7009 12.2369C21.679 12.2137 21.6572 12.1903 21.6355 12.1669L21.6032 12.1345C21.5838 12.1039 21.5838 12.1039 21.5831 12.0645C21.5996 12.0118 21.6243 11.9761 21.6568 11.9314C21.7115 11.8545 21.7623 11.7762 21.8106 11.6952C21.8588 11.6145 21.9077 11.5345 21.9582 11.4552C22.0325 11.3375 22.1014 11.217 22.1697 11.0958C22.1766 11.0836 22.1835 11.0713 22.1906 11.0588C22.2044 11.0344 22.218 11.0101 22.2317 10.9858C22.2798 10.9003 22.2798 10.9003 22.2971 10.8814Z" fill="url(#paint0_linear_467_1062)"/>
<path d="M21.6729 6.32368C21.8537 6.37861 22.0295 6.44012 22.2008 6.52037C22.2577 6.54471 22.3153 6.56491 22.3738 6.58509C22.4536 6.6129 22.5324 6.64267 22.6112 6.67312L22.6612 6.69155L22.7087 6.71008C22.73 6.71814 22.73 6.71815 22.7516 6.72637C22.7848 6.74812 22.7848 6.74811 22.8014 6.7851C22.8054 6.83876 22.7942 6.87084 22.7741 6.92068C22.7638 6.94689 22.7638 6.94689 22.7533 6.97363C22.7427 7.00046 22.7427 7.00046 22.7318 7.02783C22.7194 7.06173 22.7071 7.09566 22.6949 7.12965L22.6581 7.23095L22.6395 7.28237C22.6141 7.35235 22.5887 7.42188 22.5576 7.48955C22.5161 7.57992 22.4826 7.67354 22.4476 7.76659C22.3767 7.955 22.3024 8.14055 22.2175 8.32313C22.2026 8.35648 22.1879 8.3899 22.1731 8.42332C22.1253 8.53168 22.0754 8.63886 22.0238 8.7455C21.9883 8.81922 21.9546 8.89357 21.9215 8.96841C21.7187 9.42593 21.4898 9.87176 21.2439 10.3076C21.236 10.3216 21.2281 10.3357 21.22 10.3501C20.8703 10.971 20.501 11.5738 20.109 12.1687C20.0904 12.1968 20.072 12.2249 20.0535 12.253C19.8578 12.5501 19.6538 12.8419 19.4422 13.1279C19.4348 13.1378 19.4275 13.1478 19.4199 13.1581C19.3769 13.2161 19.3338 13.2741 19.2907 13.3321C19.2617 13.371 19.2329 13.41 19.2042 13.4492C19.1305 13.5493 19.0527 13.6448 18.9724 13.7396C18.931 13.7885 18.8908 13.8383 18.851 13.8885C18.7204 14.052 18.5842 14.2109 18.4487 14.3703C18.4324 14.3896 18.4161 14.4088 18.3998 14.428C18.392 14.4372 18.3842 14.4465 18.3761 14.456C18.3361 14.5033 18.2971 14.5511 18.2595 14.6004C18.2199 14.6501 18.2199 14.6501 18.1816 14.6834C18.1353 14.724 18.1004 14.769 18.0625 14.8173C18.0143 14.8774 17.9645 14.9372 17.9084 14.9901L17.8759 14.9915L17.8462 15.0581L17.8136 15.0595C17.8098 15.0692 17.806 15.0789 17.8021 15.0889C17.7826 15.1287 17.7609 15.1553 17.7309 15.1879L17.6988 15.2228L17.6653 15.2587L17.6329 15.2941C17.5696 15.3625 17.5044 15.4279 17.4366 15.4918C17.3961 15.5306 17.3597 15.5725 17.3231 15.6148C17.3004 15.6368 17.3004 15.6368 17.2679 15.6382L17.2537 15.6878C17.2315 15.7122 17.2315 15.7122 17.2019 15.739C17.1456 15.7912 17.0907 15.8447 17.0366 15.8992C17.0203 15.9155 17.0041 15.9318 16.9878 15.9482C16.9799 15.9561 16.972 15.9641 16.9638 15.9723C16.7639 16.1725 16.5545 16.3617 16.3439 16.5504C16.3177 16.5739 16.2916 16.5975 16.2655 16.621C16.1844 16.6942 16.1019 16.7652 16.018 16.8351C15.9482 16.8935 15.8804 16.9538 15.8128 17.0145C15.7139 17.1031 15.6124 17.1872 15.5084 17.2696C15.4455 17.3194 15.3836 17.3705 15.3217 17.4216C15.2175 17.5075 15.1119 17.5914 15.0051 17.6741C14.9736 17.6985 14.9422 17.7231 14.9108 17.7476C14.7761 17.8525 14.6401 17.9549 14.5019 18.0551C14.4679 18.0798 14.434 18.1046 14.4001 18.1295C14.1222 18.3338 13.8408 18.5329 13.5523 18.722C13.5136 18.7474 13.4749 18.7729 13.4363 18.7984C13.4273 18.8044 13.4183 18.8103 13.409 18.8164C13.3621 18.8474 13.3153 18.8786 13.269 18.9104C13.1414 18.9979 13.0114 19.0796 12.879 19.1594C12.8402 19.1828 12.8015 19.2063 12.7628 19.2298C12.7533 19.2356 12.7437 19.2414 12.7339 19.2473C12.6668 19.2881 12.6004 19.3298 12.5342 19.3719C12.4338 19.4357 12.3316 19.496 12.2284 19.5551C12.2111 19.565 12.1939 19.5749 12.1762 19.5851C12.0518 19.6564 11.9269 19.7267 11.8012 19.7959C11.7631 19.8169 11.725 19.8381 11.687 19.8592C11.6668 19.8705 11.6467 19.8817 11.6265 19.8929C11.5555 19.9322 11.4848 19.9719 11.4142 20.0118C11.2071 20.1284 10.9991 20.2397 10.7837 20.3405C10.6845 20.3874 10.586 20.4359 10.4875 20.484C10.2215 20.6139 9.95315 20.7384 9.68391 20.8613C9.65357 20.8752 9.62324 20.8891 9.59295 20.903C9.38758 20.9975 9.1767 21.0772 8.96533 21.1571C8.88146 21.1888 8.7978 21.221 8.71419 21.2534C8.67608 21.2681 8.63796 21.2828 8.59984 21.2975C8.57556 21.3069 8.55129 21.3163 8.52703 21.3257C8.36185 21.3899 8.19543 21.4476 8.02657 21.5014C7.98868 21.5135 7.95096 21.5262 7.91328 21.539C7.50505 21.6777 7.0936 21.8051 6.67575 21.9117C6.66126 21.9154 6.64677 21.9191 6.63184 21.923C6.53908 21.9467 6.44611 21.9693 6.35289 21.9911L6.30826 22.0016C5.80731 22.1184 5.25489 22.2059 4.74273 22.1107C4.72831 22.1081 4.71388 22.1055 4.69901 22.1028C4.35819 22.0389 4.02676 21.9224 3.74629 21.7138L3.71301 21.699L3.71158 21.6664L3.68225 21.6546C3.61694 21.6232 3.56478 21.5749 3.50972 21.5284L3.47677 21.5008C3.21041 21.2677 3.02094 20.9649 2.88343 20.6421C2.87878 20.6315 2.87412 20.6208 2.86933 20.6099C2.72837 20.2824 2.71254 19.9166 2.69953 19.5651C2.69875 19.546 2.69797 19.5268 2.69717 19.5071C2.68484 19.2005 2.6857 18.8995 2.712 18.5937C2.71439 18.5622 2.71678 18.5308 2.71915 18.4994C2.76858 17.8822 2.85577 17.2557 3.02329 16.6587C3.03558 16.6136 3.04708 16.5683 3.05856 16.523C3.11427 16.3035 3.17554 16.087 3.24572 15.8717C3.26 15.8275 3.27388 15.7832 3.28766 15.7388C3.29438 15.7173 3.29439 15.7173 3.30124 15.6953C3.30965 15.6684 3.31799 15.6415 3.32629 15.6145C3.34711 15.5485 3.37147 15.491 3.40544 15.4303C3.41449 15.4037 3.42281 15.3768 3.43045 15.3497C3.46397 15.2391 3.50878 15.1343 3.55383 15.0281C3.57042 14.9885 3.58612 14.9487 3.60182 14.9088C3.67757 14.7203 3.76424 14.5364 3.84971 14.3523C3.85702 14.3365 3.86433 14.3206 3.87186 14.3043C3.92024 14.2006 3.97266 14.0999 4.02801 13.9998C4.0399 13.9777 4.05177 13.9556 4.06361 13.9335C4.23444 13.6179 4.42157 13.3093 4.62102 13.011C4.63476 12.9903 4.64848 12.9695 4.66221 12.9487C4.74368 12.8257 4.82703 12.7043 4.91238 12.5839C4.93379 12.5533 4.95408 12.5218 4.97345 12.4897L5.00603 12.4883L5.0171 12.4603C5.08439 12.3211 5.20332 12.1998 5.30309 12.0823C5.34196 12.0365 5.38042 11.9904 5.41864 11.944L5.44938 11.9067C5.46861 11.8831 5.48775 11.8594 5.50647 11.8353C5.58189 11.7391 5.66296 11.6485 5.74549 11.5584C5.76907 11.5326 5.79253 11.5067 5.81597 11.4808C5.83098 11.4643 5.84599 11.4479 5.86101 11.4315C5.8745 11.4167 5.88799 11.4019 5.90189 11.3866C5.93532 11.3543 5.93532 11.3543 5.96789 11.3529L5.99761 11.2863L6.03018 11.2849L6.02875 11.2523C6.04942 11.2295 6.04942 11.2295 6.07958 11.2021C6.12165 11.1633 6.1629 11.1239 6.20298 11.083C6.21135 11.0745 6.21973 11.066 6.22835 11.0572C6.24508 11.0401 6.26177 11.0229 6.27839 11.0057C6.33802 10.945 6.33802 10.945 6.37418 10.9434L6.37276 10.9109C6.40486 10.881 6.43721 10.8529 6.47097 10.825C6.49136 10.8078 6.51172 10.7907 6.53207 10.7735L6.56318 10.7472C6.60608 10.7104 6.64749 10.6722 6.68899 10.6339C6.7799 10.5506 6.87394 10.4721 6.97019 10.3951C6.98072 10.3867 6.99125 10.3783 7.0021 10.3696C7.30246 10.1294 7.60828 9.89682 7.93036 9.68629C7.9893 9.64773 8.04723 9.6081 8.10464 9.56726C8.577 9.23403 9.12626 8.95205 9.65838 8.72765C9.70482 8.708 9.75107 8.68793 9.7973 8.66779C10.3126 8.44428 10.8389 8.2688 11.3816 8.12574C11.4337 8.11192 11.4856 8.09771 11.5374 8.08328C11.9014 7.98279 12.2709 7.92295 12.6438 7.867C12.6603 7.8645 12.6769 7.862 12.6939 7.85943C13.0819 7.80114 13.4678 7.77287 13.8596 7.75554C13.8777 7.75473 13.8777 7.75473 13.8962 7.7539C14.269 7.73735 14.6391 7.72808 15.0117 7.75417C15.047 7.75665 15.0824 7.75899 15.1178 7.76132C15.255 7.77049 15.3921 7.7812 15.5291 7.79319C15.5784 7.79747 15.6277 7.80139 15.677 7.80516C16.1981 7.84754 16.7245 7.95673 17.2303 8.08498C17.2544 8.09106 17.2544 8.09106 17.2789 8.09726C17.4216 8.13378 17.563 8.17431 17.7042 8.21615C17.7215 8.22128 17.7215 8.22128 17.7392 8.22651C17.876 8.26704 18.0125 8.30808 18.1477 8.35375C18.1587 8.35747 18.1698 8.36119 18.1812 8.36502C18.2466 8.38769 18.3091 8.4146 18.372 8.44324C18.4245 8.46615 18.4785 8.48441 18.5326 8.5031C18.8136 8.60274 19.0847 8.72661 19.3528 8.85671L19.3979 8.87857C19.4437 8.90081 19.4894 8.92317 19.5351 8.94559C19.5492 8.95249 19.5634 8.95939 19.5779 8.9665C19.5977 8.97628 19.5977 8.97628 19.6179 8.98626C19.6353 8.99483 19.6353 8.99484 19.6531 9.00358C19.6884 9.0227 19.7209 9.04437 19.7536 9.06757C19.7244 9.15495 19.6849 9.23557 19.6443 9.31814C19.6363 9.3344 19.6283 9.35067 19.6201 9.36742C19.5465 9.51616 19.4678 9.66183 19.3879 9.80727C19.3428 9.88994 19.2987 9.97312 19.2544 10.0563C19.2458 10.0725 19.2371 10.0887 19.2282 10.1055C19.2081 10.1434 19.1879 10.1812 19.1678 10.2192C19.0528 10.1973 18.9506 10.1401 18.8487 10.0842C18.4573 9.87612 18.0256 9.72724 17.6062 9.586C17.5905 9.58067 17.5748 9.57534 17.5586 9.56986C17.3483 9.49869 17.138 9.43488 16.922 9.38355C16.8756 9.37236 16.8293 9.36064 16.7831 9.34885C16.5761 9.29645 16.3691 9.25316 16.1587 9.21724C16.1255 9.21134 16.0924 9.20462 16.0594 9.19779C15.878 9.1603 15.6952 9.13526 15.5112 9.11494C15.5 9.1137 15.4888 9.11245 15.4772 9.11117C15.0641 9.06558 14.6514 9.04405 14.2361 9.06206C14.21 9.06315 14.184 9.06425 14.1579 9.06533C14.1036 9.06762 14.0493 9.06996 13.995 9.07235C13.9402 9.07475 13.8854 9.07705 13.8306 9.07923C13.5195 9.09162 13.2124 9.10873 12.9043 9.15585C12.8831 9.15883 12.8619 9.16181 12.84 9.16488C12.7888 9.17212 12.7376 9.17982 12.6864 9.18784C12.6685 9.19065 12.6506 9.19345 12.6322 9.19634C12.504 9.21693 12.3765 9.24038 12.2493 9.26616C12.2333 9.26937 12.2173 9.27259 12.2009 9.2759C12.1039 9.29618 12.0097 9.3219 11.915 9.35084C11.8498 9.37015 11.7839 9.38533 11.7177 9.40064C11.5394 9.44336 11.366 9.49891 11.1922 9.55728L11.1547 9.56973C10.9728 9.63015 10.7935 9.69754 10.6144 9.76551C10.5891 9.7751 10.5638 9.78466 10.5385 9.79419C10.3946 9.84848 10.2551 9.90654 10.1171 9.97478C10.06 10.0027 10.0022 10.0268 9.94317 10.0506C9.83019 10.0973 9.72479 10.1538 9.61899 10.2149C9.5774 10.2387 9.53533 10.2605 9.49221 10.2815C9.39249 10.3305 9.29679 10.3866 9.20057 10.4421L9.14446 10.4742C9.03573 10.5368 8.92994 10.6022 8.82621 10.6727C8.80267 10.6885 8.77912 10.7043 8.75556 10.7201C8.72007 10.7439 8.6846 10.7679 8.64916 10.7918C8.59485 10.8285 8.54053 10.8651 8.48559 10.9009C8.37844 10.9713 8.27925 11.048 8.18096 11.1301C8.10432 11.194 8.02612 11.2555 7.94678 11.316C7.76915 11.4523 7.60227 11.599 7.43877 11.7517C7.39569 11.7919 7.35153 11.8306 7.30714 11.8693C7.20981 11.9558 7.12006 12.0494 7.02964 12.143C6.98347 12.1908 6.93664 12.2378 6.88927 12.2844C6.82139 12.3512 6.75855 12.4185 6.70065 12.494C6.66461 12.5389 6.62569 12.5808 6.58654 12.623C6.52853 12.6855 6.47305 12.7491 6.42057 12.8164C6.37456 12.8745 6.32622 12.9307 6.27821 12.9872C6.22587 13.0527 6.17813 13.121 6.13004 13.1896C6.11249 13.2143 6.09492 13.239 6.07732 13.2636C5.72329 13.7608 5.40857 14.2684 5.13581 14.815C5.11879 14.8491 5.10171 14.8831 5.08456 14.9172C4.90197 15.2803 4.72856 15.6567 4.62638 16.0514C4.60706 16.1233 4.58153 16.1916 4.55501 16.2611C4.5276 16.338 4.50652 16.4165 4.48516 16.4952C4.47171 16.5434 4.4555 16.59 4.43841 16.6369C4.40557 16.7295 4.38277 16.8234 4.36104 16.9192C4.35693 16.9371 4.35282 16.9549 4.34858 16.9733C4.31286 17.1305 4.28199 17.2884 4.25268 17.4469C4.24414 17.4921 4.23456 17.537 4.2249 17.5819C4.16247 17.8917 4.13462 18.2031 4.10976 18.5177C4.10378 18.593 4.09705 18.6682 4.08946 18.7433C4.06735 18.9784 4.07157 19.2108 4.08027 19.4464C4.08099 19.4695 4.08099 19.4695 4.08172 19.4931C4.0943 19.8751 4.16546 20.234 4.42844 20.5254C4.71671 20.7863 5.06395 20.8134 5.43539 20.7964C5.64096 20.7858 5.83588 20.7505 6.03518 20.6997C6.04604 20.6969 6.0569 20.6941 6.0681 20.6913C6.65731 20.5406 7.2365 20.3596 7.81146 20.1615C7.85161 20.1478 7.89184 20.1342 7.93209 20.1207C8.36547 19.9743 8.7891 19.7956 9.2093 19.6154C9.27738 19.5862 9.34587 19.5582 9.4146 19.5306C9.5803 19.4635 9.74052 19.385 9.8995 19.3034C9.97274 19.2659 10.0462 19.2292 10.1209 19.1947C10.3749 19.0762 10.6218 18.9443 10.8684 18.8111C10.9348 18.7752 11.0014 18.7396 11.0683 18.7044C11.2414 18.6133 11.4123 18.5191 11.582 18.4219C11.5915 18.4164 11.601 18.411 11.6108 18.4055C11.7347 18.3346 11.8563 18.2607 11.9766 18.1839C12.067 18.1266 12.1589 18.0718 12.251 18.0173C12.3685 17.9478 12.484 17.8759 12.5981 17.8011C12.6154 17.7898 12.6154 17.7898 12.633 17.7783C12.8085 17.6638 12.9812 17.5463 13.1513 17.4238C13.1963 17.3915 13.2415 17.3595 13.2867 17.3275C13.4124 17.2384 13.5372 17.148 13.6613 17.0566C13.694 17.0326 13.7268 17.0086 13.7595 16.9847C13.9398 16.8527 14.1187 16.7197 14.2906 16.5768C14.3676 16.5127 14.446 16.4505 14.5248 16.3888C14.7136 16.2405 14.8954 16.0839 15.0755 15.9253C15.108 15.8969 15.1409 15.869 15.1739 15.8412C15.3399 15.7004 15.5014 15.5541 15.6608 15.4058L15.7057 15.3641L15.7312 15.3397C15.7963 15.2785 15.7963 15.2785 15.8324 15.2769L15.831 15.2443C15.8528 15.2204 15.8528 15.2204 15.8838 15.1921C15.9509 15.13 16.0154 15.0655 16.0797 15.0005C16.1127 14.9709 16.1127 14.9709 16.1453 14.9695L16.1439 14.9369C16.1645 14.9141 16.1645 14.9141 16.1947 14.8868C16.2525 14.8332 16.3085 14.7782 16.3639 14.7223C16.4219 14.6639 16.4803 14.6061 16.5414 14.5509C16.5692 14.5241 16.595 14.4957 16.6211 14.4672C16.6459 14.44 16.6708 14.4129 16.6957 14.3859C16.7474 14.3298 16.7989 14.2737 16.8505 14.2176C16.8726 14.1936 16.8947 14.1695 16.9169 14.1455C16.9492 14.1104 16.9814 14.0754 17.0136 14.0403C17.0233 14.0297 17.0331 14.0191 17.0431 14.0083C17.102 13.944 17.1575 13.878 17.2113 13.8095C17.2459 13.7663 17.2831 13.7263 17.3209 13.686C17.3803 13.6221 17.4365 13.5567 17.4901 13.4879C17.5147 13.4575 17.5406 13.4292 17.5675 13.4008C17.6131 13.352 17.6527 13.3004 17.6923 13.2465C17.7341 13.1895 17.7764 13.1359 17.8249 13.0846C17.8851 13.0207 17.9367 12.9522 17.9886 12.8815C18.0288 12.8271 18.0702 12.7736 18.1118 12.7202C18.1717 12.6432 18.2298 12.5652 18.2869 12.4862C18.3165 12.4461 18.347 12.4067 18.3778 12.3675C18.4612 12.2613 18.5394 12.1522 18.6161 12.041C18.6633 11.9727 18.7114 11.9053 18.7615 11.8391C18.8328 11.7449 18.8992 11.6478 18.965 11.5497L18.9945 11.5059C19.0646 11.4007 19.133 11.2944 19.2012 11.1878C19.2365 11.1327 19.2718 11.0776 19.3079 11.023C19.4233 10.848 19.531 10.6684 19.6389 10.4887C19.6699 10.4373 19.7009 10.3859 19.732 10.3345C19.7444 10.3142 19.7567 10.2938 19.769 10.2735C19.7953 10.2299 19.8218 10.1864 19.8485 10.143C19.9501 9.97769 20.0434 9.80773 20.1376 9.63814C20.1494 9.61704 20.1611 9.59594 20.1729 9.57483C20.1924 9.53979 20.2119 9.50473 20.2314 9.46965C20.2493 9.43748 20.2673 9.40537 20.2854 9.37333C20.4981 8.99575 20.6908 8.60793 20.8769 8.21672C20.8854 8.19884 20.8854 8.19884 20.8941 8.1806C21.0024 7.95291 21.1069 7.72389 21.2023 7.49042C21.2245 7.43645 21.2474 7.38281 21.2705 7.32922C21.3382 7.17224 21.4042 7.01567 21.4608 6.85429C21.4956 6.75521 21.5353 6.65854 21.5761 6.56179C21.6008 6.50292 21.6244 6.44369 21.6474 6.38414C21.6554 6.36378 21.664 6.34366 21.6729 6.32368Z" fill="url(#paint1_linear_467_1062)"/>
<path d="M13.3907 11.473C14.1593 11.3506 14.9803 11.4017 15.7436 11.5322C15.7951 11.541 15.8466 11.5494 15.8982 11.5578C16.0917 11.5899 16.2776 11.6371 16.4652 11.6938C16.5073 11.7062 16.5494 11.7178 16.5917 11.7292C16.8911 11.8098 17.1841 11.9148 17.4653 12.0455C17.547 12.0833 17.63 12.1136 17.7156 12.1413C17.7516 12.1577 17.7516 12.1577 17.77 12.2059C17.7498 12.2409 17.7498 12.2409 17.7183 12.2816L17.6835 12.3271L17.6469 12.3744C17.6247 12.4043 17.6025 12.4341 17.5804 12.464C17.5216 12.5427 17.4616 12.6204 17.4013 12.698C17.3572 12.7549 17.3138 12.8123 17.2709 12.8703C17.2128 12.9484 17.1529 13.0251 17.0924 13.1014C17.0836 13.1125 17.0748 13.1236 17.0657 13.135C17.0338 13.1752 17.0021 13.2149 16.9674 13.2527C16.8894 13.2508 16.8185 13.2152 16.7473 13.1859C16.6071 13.1296 16.466 13.0804 16.3216 13.0363C16.311 13.033 16.3005 13.0298 16.2897 13.0264C16.2017 12.9993 16.1131 12.975 16.0241 12.9514L15.97 12.937C15.4404 12.7985 14.8983 12.7203 14.3501 12.7312C14.3311 12.7315 14.3311 12.7315 14.3118 12.7318C13.9112 12.7388 13.5244 12.7702 13.1315 12.8499L13.0769 12.8607C12.6346 12.9494 12.1861 13.0856 11.78 13.2845C11.754 13.2962 11.728 13.3079 11.7019 13.3195L11.6641 13.3367C11.6398 13.3477 11.6155 13.3587 11.5911 13.3695C11.4123 13.4487 11.2441 13.5389 11.0777 13.6416C11.0575 13.654 11.0575 13.654 11.0369 13.6667C10.843 13.7865 10.6529 13.9098 10.4713 14.0476C10.4278 14.078 10.4278 14.078 10.3952 14.0795L10.3967 14.112C10.3689 14.1363 10.3689 14.1363 10.3296 14.1649C10.1022 14.3352 9.87163 14.5205 9.68449 14.7353C9.65673 14.7663 9.62723 14.7941 9.59665 14.8222C9.53166 14.8828 9.47758 14.9506 9.42292 15.0205L9.39364 15.0535L9.36107 15.0549C9.35701 15.0648 9.35296 15.0746 9.34877 15.0848C9.33219 15.1197 9.31469 15.1458 9.29046 15.1757C9.28236 15.1858 9.27426 15.1959 9.26592 15.2063C9.2529 15.2223 9.2529 15.2223 9.23961 15.2387C9.22124 15.2617 9.20287 15.2847 9.18451 15.3077C9.15899 15.3395 9.13344 15.3712 9.10774 15.4029C8.92911 15.6233 8.77652 15.8657 8.64063 16.1145C8.63536 16.124 8.63008 16.1336 8.62465 16.1434C8.46465 16.4339 8.32303 16.734 8.20704 17.0447C8.19361 17.0802 8.17954 17.1153 8.16532 17.1504C7.99195 17.5866 7.88082 18.0723 7.82189 18.5368C7.79711 18.7196 7.72866 18.8262 7.59019 18.9508C7.38476 19.0967 7.1308 19.1453 6.88986 19.2023C6.85388 19.211 6.81807 19.2202 6.78229 19.2296L6.71997 19.246L6.66642 19.2603C6.59293 19.2743 6.52069 19.2768 6.44604 19.2784C6.45093 18.6767 6.49868 18.0647 6.66367 17.4834C6.67591 17.4392 6.68732 17.3948 6.69873 17.3503C6.73791 17.1989 6.78449 17.0507 6.83441 16.9025C6.83849 16.8903 6.84257 16.8782 6.84677 16.8656C6.95191 16.5524 7.06617 16.2465 7.21183 15.9497C7.22735 15.9179 7.24253 15.886 7.25754 15.854C7.31274 15.7371 7.37365 15.6256 7.43948 15.5145C7.45598 15.4858 7.47247 15.4572 7.48893 15.4286C7.50688 15.3975 7.52483 15.3665 7.54279 15.3356C7.55152 15.3203 7.56025 15.305 7.56924 15.2893C7.58163 15.2681 7.58163 15.2681 7.59427 15.2464C7.6017 15.2336 7.60912 15.2207 7.61677 15.2075C7.62341 15.1982 7.63006 15.189 7.63691 15.1795L7.66948 15.178L7.68058 15.1419C7.69956 15.0924 7.72306 15.054 7.75288 15.0102L7.78623 14.9611L7.82091 14.9103L7.85314 14.8617C7.9316 14.7444 8.01617 14.6334 8.10414 14.5231C8.14338 14.4746 8.14338 14.4746 8.17074 14.4315L8.19034 14.4046L8.22292 14.4032L8.23269 14.3761C8.25923 14.3235 8.29572 14.2815 8.33394 14.2372C8.34614 14.2229 8.34614 14.2229 8.3586 14.2083C8.48489 14.0616 8.61324 13.9149 8.75576 13.7837C8.78366 13.7571 8.80906 13.7291 8.83457 13.7002C8.87549 13.6566 8.87549 13.6566 8.90807 13.6552L8.90664 13.6226C8.96087 13.5713 8.96087 13.5713 9.00221 13.5695L9.00078 13.5369C9.02387 13.514 9.02387 13.514 9.05772 13.4865C9.11131 13.4422 9.1643 13.3975 9.21664 13.3518C9.57535 13.0395 9.96085 12.7713 10.3653 12.5221C10.3905 12.5066 10.4156 12.491 10.4407 12.4753C10.8663 12.2094 11.3401 12.015 11.8114 11.847C11.8562 11.831 11.9009 11.8145 11.9456 11.798C12.3624 11.6473 12.8094 11.5651 13.2462 11.4966C13.2944 11.4891 13.3426 11.4811 13.3907 11.473Z" fill="url(#paint2_linear_467_1062)"/>
<defs>
<linearGradient id="paint0_linear_467_1062" x1="6.75029" y1="0.877806" x2="24.9748" y2="20.3994" gradientUnits="userSpaceOnUse">
<stop stop-color="white"/>
<stop offset="0.397542" stop-color="#5DD286"/>
<stop offset="0.545685" stop-color="#28C35F"/>
<stop offset="1" stop-color="#FF5335"/>
</linearGradient>
<linearGradient id="paint1_linear_467_1062" x1="6.75029" y1="0.877806" x2="24.9748" y2="20.3994" gradientUnits="userSpaceOnUse">
<stop stop-color="white"/>
<stop offset="0.397542" stop-color="#5DD286"/>
<stop offset="0.545685" stop-color="#28C35F"/>
<stop offset="1" stop-color="#FF5335"/>
</linearGradient>
<linearGradient id="paint2_linear_467_1062" x1="6.75029" y1="0.877806" x2="24.9748" y2="20.3994" gradientUnits="userSpaceOnUse">
<stop stop-color="white"/>
<stop offset="0.397542" stop-color="#5DD286"/>
<stop offset="0.545685" stop-color="#28C35F"/>
<stop offset="1" stop-color="#FF5335"/>
</linearGradient>
</defs>
</svg>
