<svg width="192" height="192" viewBox="0 0 192 192" fill="none" xmlns="http://www.w3.org/2000/svg">
<path d="M149.333 0H42.6667C19.1025 0 0 19.1025 0 42.6667V149.333C0 172.897 19.1025 192 42.6667 192H149.333C172.897 192 192 172.897 192 149.333V42.6667C192 19.1025 172.897 0 149.333 0Z" fill="#0C0C0E"/>
<path d="M151.826 69.7741C152.328 69.9356 152.643 70.301 153.005 70.6665C153.072 70.7338 153.14 70.8011 153.209 70.8705C153.693 71.3572 154.154 71.861 154.606 72.3777C154.876 72.678 155.159 72.9612 155.446 73.2447C155.945 73.7407 156.389 74.2641 156.828 74.8122C157.093 75.1338 157.37 75.438 157.654 75.7423C158.351 76.4992 158.978 77.307 159.61 78.1179C159.813 78.3767 160.017 78.6339 160.223 78.8906C160.832 79.6528 161.433 80.413 161.983 81.22C162.177 81.5011 162.379 81.7759 162.583 82.0499C164.168 84.182 165.627 86.422 166.902 88.7539C167.044 89.0139 167.187 89.2726 167.334 89.5304C168.383 91.3853 169.327 93.2877 170.187 95.237C170.287 95.4613 170.389 95.6845 170.492 95.9072C171.01 97.031 171.469 98.1745 171.919 99.3268C171.961 99.4337 172.003 99.5407 172.046 99.651C172.568 100.983 173.065 102.316 173.491 103.681C173.586 103.984 173.686 104.284 173.785 104.585C174.59 107.04 175.218 109.538 175.806 112.052C175.832 112.161 175.857 112.27 175.884 112.382C177.039 117.428 178.156 123.297 176.999 128.419L176.926 128.761C176.35 131.376 175.396 133.694 173.628 135.728C173.499 135.889 173.371 136.051 173.243 136.213C170.549 139.568 166.481 141.429 162.263 141.933C157.714 142.369 152.965 141.074 149.413 138.168L149.133 137.928C148.901 137.731 148.663 137.548 148.419 137.365C145.722 135.194 144.157 131.921 143.22 128.67C143.196 128.588 143.172 128.506 143.147 128.422C142.977 127.823 142.873 127.229 142.794 126.611C142.78 126.508 142.767 126.405 142.752 126.299C142.65 125.508 142.567 124.716 142.486 123.924C142.172 120.847 141.709 117.844 140.608 114.934C140.505 114.656 140.407 114.379 140.314 114.098C139.341 111.195 138.032 108.456 136.511 105.803C136.446 105.69 136.446 105.69 136.38 105.574C135.142 103.411 133.77 101.325 132.1 99.467L131.901 99.2427L131.728 99.055C131.571 98.7697 131.629 98.6054 131.706 98.2933C131.859 98.069 131.859 98.0689 132.057 97.8561L132.272 97.6227L132.498 97.3844L132.723 97.1396C133.276 96.5461 133.276 96.546 133.531 96.5349L133.598 96.3449C133.777 95.9948 134.017 95.7518 134.288 95.4667C134.86 94.8556 135.425 94.2425 135.86 93.5236L136.083 93.5138L136.389 92.829L136.612 92.8192L136.694 92.6216C136.822 92.3505 136.973 92.1184 137.144 91.8728L137.316 91.6258L137.447 91.44C137.782 91.5709 137.991 91.7034 138.229 91.9721C138.288 92.0392 138.348 92.1062 138.41 92.1753C138.504 92.2847 138.504 92.2847 138.601 92.3964C138.668 92.4726 138.734 92.5489 138.803 92.6274C139.92 93.916 140.954 95.2532 141.906 96.6676C142.122 96.9866 142.351 97.2908 142.591 97.5921C143.088 98.2302 143.503 98.9177 143.921 99.609C144.099 99.9035 144.281 100.196 144.462 100.489C145.219 101.722 145.907 102.961 146.515 104.273C146.728 104.732 146.961 105.176 147.202 105.621C148.074 107.277 148.668 109.068 149.263 110.838C149.301 110.95 149.339 111.062 149.378 111.177C149.793 112.405 150.203 113.627 150.492 114.892C150.574 115.249 150.669 115.601 150.767 115.954C151.445 118.566 151.85 121.26 152.115 123.943C152.191 124.703 152.296 125.44 152.488 126.179C152.512 126.273 152.536 126.367 152.561 126.464C152.851 127.562 153.271 128.433 153.99 129.316L154.147 129.515C154.657 130.108 155.297 130.506 155.962 130.908L156.209 131.059C157.563 131.807 158.876 131.95 160.396 131.889C160.527 131.883 160.658 131.878 160.793 131.873C162.794 131.756 164.519 130.954 165.973 129.574C167.507 127.615 167.9 125.596 167.762 123.167C167.757 123.071 167.752 122.975 167.747 122.877C167.535 118.745 166.883 114.407 165.528 110.488C165.298 109.82 165.118 109.14 164.935 108.458C164.599 107.227 164.215 106.027 163.769 104.831L163.632 104.461C162.619 101.735 161.506 99.0659 160.158 96.4859C160.068 96.3113 159.978 96.1366 159.888 95.9619C159.294 94.8175 158.658 93.7016 158.001 92.5925C157.853 92.3403 157.708 92.0866 157.564 91.8322C156.112 89.2824 154.392 86.9304 152.589 84.6219L152.333 84.2931C150.899 82.4713 149.331 80.7508 147.738 79.0685C147.587 78.9094 147.438 78.749 147.289 78.5886L147.067 78.3662C146.935 78.1566 146.935 78.1566 146.93 77.8866C147.043 77.5253 147.212 77.28 147.435 76.9738C147.81 76.4465 148.158 75.9097 148.49 75.354C148.82 74.8009 149.156 74.252 149.502 73.7082C150.012 72.9011 150.484 72.0753 150.953 71.2438C151 71.1601 151.047 71.0763 151.096 70.99C151.19 70.8233 151.284 70.6564 151.377 70.4895C151.707 69.9036 151.707 69.9035 151.826 69.7741Z" fill="url(#paint0_linear_467_1063)"/>
<path d="M147.546 38.5209C148.786 38.8975 149.991 39.3193 151.165 39.8696C151.556 40.0365 151.951 40.175 152.352 40.3134C152.899 40.504 153.44 40.7082 153.98 40.917L154.323 41.0434L154.649 41.1705C154.794 41.2257 154.794 41.2258 154.943 41.2821C155.17 41.4313 155.17 41.4312 155.284 41.6849C155.311 42.0529 155.234 42.2728 155.097 42.6146C155.026 42.7943 155.026 42.7943 154.954 42.9777C154.881 43.1616 154.881 43.1616 154.807 43.3493C154.721 43.5817 154.637 43.8145 154.554 44.0475L154.301 44.7421L154.174 45.0947C153.999 45.5746 153.826 46.0513 153.612 46.5154C153.327 47.1351 153.098 47.777 152.858 48.4151C152.372 49.707 151.862 50.9794 151.28 52.2314C151.178 52.46 151.077 52.6892 150.976 52.9184C150.648 53.6614 150.306 54.3963 149.952 55.1276C149.709 55.6331 149.477 56.143 149.25 56.6561C147.86 59.7934 146.29 62.8505 144.604 65.839C144.55 65.9353 144.496 66.0315 144.44 66.1307C142.042 70.3881 139.51 74.522 136.821 78.6011C136.695 78.7937 136.568 78.9865 136.441 79.1793C135.1 81.2166 133.7 83.2175 132.249 85.1783C132.199 85.2466 132.148 85.3148 132.096 85.3851C131.802 85.7832 131.506 86.181 131.211 86.5784C131.012 86.8454 130.814 87.113 130.617 87.3815C130.112 88.0679 129.579 88.7232 129.028 89.3726C128.744 89.7085 128.469 90.05 128.195 90.3942C127.3 91.5151 126.366 92.6048 125.437 93.6979C125.325 93.8297 125.214 93.9615 125.102 94.0933C125.048 94.1567 124.994 94.22 124.939 94.2852C124.665 94.6097 124.397 94.9375 124.14 95.2754C123.868 95.616 123.868 95.616 123.605 95.8443C123.288 96.1233 123.049 96.4315 122.789 96.763C122.458 97.1747 122.117 97.5847 121.732 97.9475L121.509 97.9573L121.305 98.4137L121.082 98.4235C121.056 98.4901 121.03 98.5567 121.003 98.6253C120.869 98.8982 120.72 99.0809 120.515 99.3038L120.295 99.5431L120.065 99.7898L119.843 100.032C119.409 100.502 118.961 100.95 118.497 101.388C118.219 101.654 117.97 101.941 117.718 102.232C117.563 102.382 117.563 102.382 117.34 102.392L117.243 102.732C117.091 102.899 117.091 102.899 116.888 103.083C116.501 103.441 116.125 103.808 115.754 104.182C115.642 104.294 115.531 104.405 115.419 104.517C115.365 104.572 115.311 104.626 115.255 104.683C113.884 106.056 112.448 107.353 111.004 108.647C110.825 108.808 110.645 108.97 110.467 109.131C109.91 109.633 109.344 110.12 108.769 110.599C108.291 110.999 107.826 111.413 107.362 111.83C106.684 112.437 105.988 113.014 105.275 113.579C104.843 113.92 104.419 114.27 103.995 114.621C103.28 115.21 102.556 115.785 101.824 116.352C101.608 116.52 101.392 116.688 101.177 116.856C100.254 117.576 99.3204 118.278 98.3729 118.965C98.1398 119.134 97.9075 119.305 97.6753 119.475C95.7697 120.876 93.8396 122.241 91.8613 123.538C91.596 123.712 91.331 123.887 91.0661 124.062C91.0043 124.103 90.9426 124.143 90.879 124.185C90.557 124.398 90.2366 124.612 89.9186 124.83C89.044 125.43 88.1523 125.99 87.2445 126.537C86.9789 126.698 86.7134 126.859 86.4479 127.02C86.3824 127.059 86.3169 127.099 86.2494 127.14C85.7896 127.419 85.3344 127.705 84.8805 127.994C84.1918 128.432 83.4912 128.845 82.783 129.251C82.665 129.318 82.547 129.386 82.4254 129.456C81.5723 129.945 80.7157 130.427 79.8543 130.901C79.5928 131.046 79.3318 131.191 79.0709 131.336C78.9327 131.413 78.7943 131.49 78.6559 131.567C78.1696 131.836 77.6847 132.109 77.2005 132.382C75.7802 133.182 74.3542 133.945 72.8769 134.636C72.1966 134.958 71.5216 135.29 70.8455 135.62C69.0217 136.511 67.1817 137.365 65.3354 138.208C65.1274 138.303 64.9194 138.398 64.7117 138.494C63.3035 139.141 61.8575 139.688 60.408 140.235C59.833 140.453 59.2593 140.674 58.686 140.896C58.4246 140.997 58.1632 141.098 57.9018 141.199C57.7353 141.263 57.5689 141.327 57.4026 141.392C56.2699 141.832 55.1288 142.228 53.9709 142.597C53.711 142.68 53.4524 142.766 53.194 142.854C50.3947 143.806 47.5734 144.679 44.7081 145.41C44.6087 145.436 44.5094 145.461 44.407 145.487C43.7709 145.65 43.1334 145.805 42.4942 145.955L42.1881 146.027C38.7531 146.828 34.965 147.428 31.4531 146.775C31.3542 146.757 31.2552 146.739 31.1533 146.721C28.8163 146.282 26.5435 145.484 24.6204 144.053L24.3921 143.952L24.3823 143.728L24.1812 143.647C23.7334 143.432 23.3757 143.101 22.9982 142.782L22.7722 142.592C20.9457 140.994 19.6465 138.918 18.7036 136.704C18.6717 136.631 18.6398 136.559 18.6069 136.483C17.6403 134.238 17.5318 131.729 17.4426 129.319C17.4372 129.188 17.4319 129.057 17.4264 128.922C17.3418 126.819 17.3477 124.755 17.5281 122.658C17.5445 122.442 17.5608 122.227 17.5771 122.011C17.916 117.779 18.5139 113.483 19.6626 109.39C19.7469 109.08 19.8258 108.77 19.9045 108.459C20.2865 106.954 20.7066 105.469 21.1878 103.993C21.2858 103.69 21.381 103.386 21.4755 103.082C21.5215 102.934 21.5216 102.934 21.5686 102.784C21.6262 102.599 21.6835 102.414 21.7403 102.229C21.8831 101.777 22.0501 101.382 22.2831 100.967C22.3451 100.784 22.4022 100.599 22.4546 100.414C22.6845 99.6555 22.9917 98.9364 23.3006 98.2082C23.4144 97.937 23.522 97.6636 23.6297 97.39C24.1491 96.098 24.7434 94.8368 25.3295 93.5741C25.3796 93.4656 25.4297 93.357 25.4814 93.2452C25.8132 92.534 26.1726 91.8435 26.5522 91.1568C26.6337 91.0055 26.715 90.854 26.7962 90.7025C27.9677 88.5385 29.2508 86.4225 30.6185 84.377C30.7127 84.2346 30.8068 84.0922 30.9009 83.9498C31.4596 83.1065 32.0311 82.2735 32.6164 81.4484C32.7632 81.238 32.9023 81.022 33.0352 80.8024L33.2585 80.7926L33.3345 80.6005C33.7959 79.6463 34.6114 78.8146 35.2956 78.0088C35.5621 77.6945 35.8258 77.3781 36.0879 77.0601L36.2987 76.8043C36.4305 76.6424 36.5618 76.4799 36.6901 76.3151C37.2073 75.6554 37.7632 75.0337 38.3291 74.416C38.4909 74.2391 38.6517 74.0615 38.8124 73.8837C38.9153 73.7711 39.0183 73.6584 39.1213 73.5459C39.2138 73.4444 39.3063 73.3429 39.4016 73.2384C39.6308 73.0165 39.6309 73.0165 39.8542 73.0067L40.058 72.5502L40.2813 72.5405L40.2715 72.3171C40.4133 72.161 40.4133 72.161 40.6201 71.9731C40.9085 71.7066 41.1914 71.4368 41.4662 71.1563C41.5236 71.0978 41.581 71.0393 41.6402 70.9791C41.7549 70.8618 41.8693 70.744 41.9833 70.626C42.3922 70.2101 42.3922 70.2101 42.6402 70.1992L42.6304 69.9759C42.8505 69.771 43.0723 69.5782 43.3039 69.3869C43.4437 69.2693 43.5833 69.1516 43.7228 69.0337L43.9362 68.8536C44.2304 68.6014 44.5143 68.3395 44.7989 68.0765C45.4222 67.5057 46.0671 66.9671 46.7271 66.4395C46.7993 66.3816 46.8715 66.3238 46.9459 66.2642C49.0055 64.617 51.1026 63.0224 53.3111 61.5788C53.7153 61.3144 54.1125 61.0426 54.5062 60.7626C57.7452 58.4776 61.5116 56.544 65.1604 55.0052C65.4788 54.8705 65.796 54.7328 66.113 54.5948C69.6464 53.0621 73.2552 51.8588 76.9769 50.8779C77.3337 50.7831 77.6896 50.6856 78.0453 50.5867C80.5409 49.8976 83.0746 49.4873 85.6316 49.1036C85.7451 49.0865 85.8586 49.0693 85.9756 49.0517C88.6362 48.652 91.2824 48.4581 93.9688 48.3393C94.093 48.3338 94.0931 48.3338 94.2198 48.3281C96.7758 48.2146 99.3138 48.151 101.869 48.3299C102.111 48.3469 102.354 48.363 102.597 48.379C103.537 48.4418 104.477 48.5153 105.417 48.5975C105.755 48.6268 106.093 48.6537 106.431 48.6796C110.004 48.9702 113.614 49.7189 117.082 50.5984C117.247 50.64 117.247 50.64 117.415 50.6825C118.394 50.933 119.363 51.2109 120.331 51.4978C120.45 51.533 120.45 51.5329 120.572 51.5688C121.509 51.8468 122.446 52.1282 123.373 52.4414C123.449 52.4669 123.524 52.4923 123.603 52.5186C124.051 52.674 124.48 52.8586 124.911 53.055C125.271 53.2121 125.641 53.3373 126.012 53.4655C127.939 54.1487 129.798 54.9981 131.636 55.8902L131.945 56.0401C132.259 56.1926 132.573 56.346 132.887 56.4997C132.983 56.547 133.08 56.5943 133.18 56.6431C133.316 56.7101 133.316 56.7101 133.454 56.7785C133.574 56.8373 133.574 56.8374 133.696 56.8973C133.938 57.0284 134.16 57.177 134.385 57.3361C134.184 57.9353 133.914 58.4881 133.635 59.0543C133.58 59.1658 133.526 59.2773 133.469 59.3922C132.964 60.4121 132.425 61.411 131.877 62.4083C131.568 62.9752 131.265 63.5456 130.962 64.1157C130.903 64.227 130.843 64.3384 130.782 64.4531C130.644 64.7129 130.506 64.9728 130.368 65.2327C129.58 65.0825 128.878 64.6909 128.18 64.3076C125.496 62.8804 122.536 61.8595 119.659 60.8911C119.552 60.8545 119.444 60.818 119.333 60.7803C117.891 60.2924 116.449 59.8548 114.968 59.5028C114.65 59.4261 114.333 59.3457 114.016 59.2649C112.596 58.9056 111.177 58.6087 109.734 58.3624C109.506 58.322 109.279 58.2759 109.053 58.229C107.809 57.972 106.556 57.8002 105.294 57.6609C105.217 57.6524 105.14 57.6439 105.061 57.6351C102.228 57.3225 99.3983 57.1748 96.5506 57.2983C96.3717 57.3058 96.1929 57.3133 96.0141 57.3208C95.6417 57.3364 95.2693 57.3525 94.897 57.3689C94.5213 57.3854 94.1455 57.4011 93.7697 57.416C91.6363 57.501 89.5312 57.6184 87.4178 57.9415C87.2725 57.9619 87.1272 57.9823 86.9775 58.0034C86.6258 58.053 86.2748 58.1058 85.9239 58.1608C85.8012 58.1801 85.6785 58.1993 85.5521 58.2191C84.6731 58.3603 83.799 58.5211 82.9265 58.6979C82.817 58.7199 82.7074 58.742 82.5946 58.7647C81.9295 58.9037 81.2837 59.0801 80.6341 59.2786C80.1872 59.411 79.7354 59.515 79.2816 59.62C78.0585 59.9129 76.8698 60.2939 75.6783 60.6941L75.4205 60.7795C74.1736 61.1938 72.9441 61.6559 71.7158 62.122C71.5424 62.1877 71.3689 62.2533 71.1954 62.3187C70.2086 62.6909 69.2519 63.0891 68.306 63.5569C67.9141 63.7488 67.5179 63.914 67.1132 64.0768C66.3385 64.3968 65.6158 64.7848 64.8903 65.2032C64.6051 65.3667 64.3166 65.5164 64.0209 65.66C63.3371 65.9964 62.6809 66.3809 62.0211 66.7617L61.6363 66.9818C60.8908 67.4111 60.1654 67.8591 59.4541 68.3429C59.2926 68.4511 59.1311 68.5593 58.9696 68.6674C58.7262 68.8312 58.4831 68.9952 58.24 69.1595C57.8676 69.411 57.4951 69.6622 57.1184 69.9073C56.3836 70.3904 55.7035 70.9162 55.0295 71.479C54.504 71.9176 53.9677 72.3389 53.4237 72.7543C52.2057 73.6886 51.0614 74.6942 49.9402 75.7419C49.6448 76.0171 49.342 76.2828 49.0376 76.5481C48.3702 77.1414 47.7547 77.7829 47.1348 78.4248C46.8181 78.7524 46.4971 79.0747 46.1722 79.3942C45.7067 79.8523 45.2759 80.3137 44.8788 80.8319C44.6317 81.1394 44.3648 81.4271 44.0964 81.7159C43.6985 82.1449 43.3181 82.581 42.9583 83.0425C42.6428 83.4411 42.3113 83.8265 41.9821 84.2138C41.6232 84.6628 41.2958 85.1309 40.966 85.6015C40.8457 85.7708 40.7252 85.94 40.6046 86.109C38.1769 89.5185 36.0188 92.9993 34.1485 96.7468C34.0318 96.9806 33.9146 97.2142 33.797 97.4475C32.545 99.9374 31.3559 102.519 30.6553 105.225C30.5228 105.718 30.3477 106.187 30.1659 106.663C29.9779 107.191 29.8334 107.729 29.6869 108.269C29.5946 108.599 29.4835 108.918 29.3663 109.24C29.1411 109.875 28.9848 110.519 28.8358 111.176C28.8076 111.298 28.7794 111.421 28.7504 111.547C28.5054 112.625 28.2937 113.708 28.0927 114.794C28.0341 115.104 27.9685 115.412 27.9022 115.72C27.4742 117.844 27.2832 119.98 27.1127 122.137C27.0717 122.653 27.0255 123.169 26.9735 123.684C26.8219 125.296 26.8509 126.89 26.9105 128.505C26.9154 128.664 26.9154 128.664 26.9204 128.826C27.0067 131.445 27.4947 133.906 29.298 135.904C31.2747 137.693 33.6558 137.879 36.2028 137.762C37.6124 137.69 38.9489 137.448 40.3156 137.099C40.3901 137.08 40.4645 137.061 40.5413 137.042C44.5816 136.008 48.5532 134.767 52.4958 133.409C52.7711 133.315 53.047 133.222 53.323 133.129C56.2947 132.125 59.1996 130.9 62.081 129.664C62.5479 129.464 63.0175 129.272 63.4887 129.083C64.625 128.622 65.7236 128.084 66.8138 127.525C67.316 127.267 67.8194 127.016 68.3318 126.779C70.0734 125.967 71.7669 125.062 73.4574 124.149C73.9131 123.903 74.3698 123.659 74.8283 123.418C76.0151 122.793 77.1876 122.146 78.3513 121.48C78.4163 121.443 78.4813 121.406 78.5483 121.367C79.3982 120.881 80.2319 120.375 81.0571 119.848C81.6766 119.455 82.3069 119.079 82.9386 118.706C83.7439 118.229 84.5358 117.736 85.3185 117.223C85.437 117.146 85.437 117.146 85.5578 117.067C86.7611 116.282 87.9458 115.476 89.1117 114.636C89.4201 114.414 89.7301 114.195 90.0401 113.975C90.9025 113.364 91.7579 112.744 92.6091 112.118C92.8333 111.953 93.0579 111.789 93.2824 111.625C94.5188 110.72 95.7458 109.808 96.9241 108.828C97.4524 108.389 97.9895 107.962 98.5303 107.539C99.8246 106.522 101.071 105.448 102.307 104.361C102.529 104.166 102.755 103.975 102.981 103.784C104.12 102.818 105.227 101.815 106.32 100.798L106.628 100.512L106.803 100.345C107.249 99.9254 107.249 99.9254 107.497 99.9145L107.487 99.6911C107.636 99.5268 107.636 99.5268 107.849 99.3326C108.309 98.9067 108.752 98.4651 109.192 98.0189C109.419 97.8162 109.419 97.8162 109.642 97.8064L109.632 97.583C109.774 97.4269 109.774 97.4269 109.981 97.2391C110.377 96.8717 110.761 96.4949 111.141 96.1113C111.539 95.7107 111.939 95.3148 112.358 94.9363C112.549 94.7522 112.726 94.5576 112.905 94.362C113.075 94.1757 113.246 93.9901 113.417 93.8046C113.77 93.4203 114.124 93.0355 114.478 92.6507C114.629 92.4857 114.781 92.3207 114.933 92.1559C115.154 91.9157 115.375 91.6752 115.596 91.4346C115.663 91.3622 115.73 91.2898 115.799 91.2152C116.202 90.7747 116.583 90.322 116.952 89.8521C117.189 89.5558 117.444 89.282 117.704 89.0052C118.111 88.5672 118.496 88.1187 118.864 87.647C119.032 87.4382 119.21 87.2445 119.394 87.0499C119.707 86.715 119.979 86.361 120.25 85.9913C120.536 85.6011 120.827 85.2332 121.159 84.8815C121.572 84.4434 121.926 83.9738 122.282 83.4887C122.558 83.1154 122.841 82.7487 123.127 82.3826C123.537 81.8547 123.936 81.3201 124.328 80.7779C124.531 80.5028 124.74 80.2331 124.951 79.9643C125.523 79.2358 126.059 78.4875 126.585 77.7253C126.909 77.2568 127.238 76.7952 127.582 76.341C128.07 75.695 128.526 75.0291 128.977 74.3567L129.179 74.0563C129.661 73.3348 130.129 72.6055 130.597 71.875C130.839 71.4969 131.081 71.1192 131.329 70.7448C132.12 69.5448 132.858 68.3131 133.599 67.0812C133.811 66.7285 134.024 66.3761 134.237 66.0239C134.322 65.8844 134.406 65.7447 134.49 65.605C134.671 65.3062 134.852 65.0078 135.036 64.7106C135.732 63.577 136.372 62.4115 137.018 61.2486C137.099 61.1039 137.179 60.9592 137.26 60.8145C137.394 60.5742 137.528 60.3338 137.661 60.0932C137.784 59.8726 137.907 59.6525 138.031 59.4327C139.49 56.8436 140.811 54.1843 142.087 51.5017C142.145 51.3791 142.146 51.3791 142.205 51.2541C142.948 49.6927 143.665 48.1223 144.318 46.5213C144.471 46.1513 144.628 45.7834 144.787 45.416C145.251 44.3396 145.703 43.2659 146.091 42.1593C146.33 41.4799 146.602 40.817 146.882 40.1536C147.051 39.7499 147.213 39.3438 147.371 38.9354C147.426 38.7958 147.485 38.6578 147.546 38.5209Z" fill="url(#paint1_linear_467_1063)"/>
<path d="M90.7533 73.8307C96.0236 72.9911 101.654 73.3418 106.888 74.2367C107.241 74.2969 107.594 74.3546 107.948 74.4118C109.275 74.6323 110.549 74.9555 111.836 75.3445C112.124 75.4297 112.413 75.5092 112.703 75.5869C114.756 76.1403 116.765 76.86 118.694 77.7561C119.254 78.0157 119.823 78.2229 120.41 78.4129C120.657 78.5257 120.657 78.5258 120.783 78.8559C120.644 79.0962 120.644 79.0962 120.428 79.3749L120.19 79.6874L119.939 80.0118C119.787 80.2164 119.635 80.4212 119.483 80.6262C119.079 81.1654 118.668 81.6984 118.255 82.2302C117.952 82.6206 117.654 83.0144 117.36 83.4116C116.962 83.9477 116.551 84.4734 116.136 84.9968C116.076 85.0728 116.016 85.1489 115.954 85.2272C115.734 85.5027 115.518 85.7746 115.28 86.0344C114.744 86.0212 114.258 85.7769 113.77 85.5761C112.809 85.1903 111.841 84.8525 110.851 84.5503C110.779 84.5279 110.706 84.5054 110.632 84.4823C110.029 84.2966 109.421 84.1296 108.811 83.9684L108.44 83.8696C104.809 82.9193 101.091 82.3836 97.3324 82.4579C97.2022 82.4601 97.2021 82.46 97.0693 82.4623C94.3226 82.5105 91.6701 82.7254 88.9764 83.2719L88.6017 83.3463C85.5686 83.9543 82.4933 84.8885 79.7083 86.2519C79.5303 86.3326 79.352 86.4127 79.1734 86.4921L78.9142 86.6101C78.7475 86.6857 78.5807 86.761 78.4134 86.8351C77.187 87.3783 76.0337 87.9966 74.8926 88.7009C74.7543 88.786 74.7542 88.786 74.6131 88.8729C73.2837 89.6941 71.9803 90.5399 70.7345 91.4847C70.4364 91.6935 70.4364 91.6935 70.213 91.7033L70.2228 91.9267C70.0326 92.0928 70.0326 92.0928 69.7632 92.2895C68.2038 93.4572 66.6227 94.7278 65.3394 96.2008C65.1491 96.413 64.9468 96.6037 64.7371 96.7967C64.2915 97.2121 63.9206 97.677 63.5458 98.1562L63.3451 98.3823L63.1217 98.3921C63.0939 98.4597 63.0661 98.5273 63.0374 98.597C62.9236 98.8366 62.8036 99.0153 62.6375 99.2206C62.582 99.2897 62.5264 99.3588 62.4692 99.4301C62.3799 99.5401 62.38 99.5402 62.2889 99.6524C62.1629 99.81 62.0369 99.9676 61.911 100.125C61.736 100.343 61.5608 100.561 61.3846 100.778C60.1597 102.289 59.1133 103.952 58.1816 105.658C58.1454 105.723 58.1092 105.789 58.0719 105.856C56.9748 107.848 56.0037 109.906 55.2083 112.037C55.1162 112.28 55.0198 112.521 54.9223 112.761C53.7335 115.753 52.9714 119.083 52.5673 122.268C52.3974 123.522 51.928 124.253 50.9785 125.107C49.5698 126.108 47.8284 126.441 46.1763 126.831C45.9295 126.891 45.684 126.954 45.4386 127.019L45.0113 127.131L44.6441 127.229C44.1402 127.325 43.6448 127.342 43.1329 127.353C43.1664 123.227 43.4938 119.031 44.6252 115.045C44.7092 114.742 44.7874 114.437 44.8657 114.132C45.1343 113.094 45.4537 112.077 45.796 111.061C45.824 110.978 45.852 110.894 45.8808 110.808C46.6017 108.661 47.3852 106.563 48.3841 104.528C48.4905 104.31 48.5945 104.091 48.6975 103.872C49.076 103.07 49.4937 102.306 49.9451 101.543C50.0582 101.347 50.1713 101.151 50.2842 100.954C50.4072 100.742 50.5304 100.529 50.6535 100.317C50.7133 100.212 50.7732 100.107 50.8349 99.9997C50.9198 99.854 50.9198 99.854 51.0065 99.7053C51.0574 99.6172 51.1083 99.529 51.1608 99.4382C51.2063 99.3749 51.2519 99.3115 51.2989 99.2463L51.5222 99.2365L51.5983 98.9888C51.7285 98.6491 51.8896 98.386 52.0941 98.0855L52.3228 97.7485L52.5606 97.4007L52.7816 97.0676C53.3196 96.2628 53.8995 95.5021 54.5027 94.7456C54.7718 94.4132 54.7718 94.4132 54.9595 94.1171L55.0939 93.9329L55.3172 93.9231L55.3842 93.7375C55.5662 93.377 55.8165 93.0886 56.0785 92.7848C56.1622 92.6869 56.1622 92.6868 56.2476 92.5869C57.1136 91.5807 57.9938 90.5753 58.971 89.675C59.1623 89.4927 59.3365 89.3006 59.5114 89.1027C59.792 88.8037 59.792 88.8037 60.0154 88.7939L60.0056 88.5706C60.3775 88.2186 60.3775 88.2186 60.6609 88.2062L60.6511 87.9828C60.8095 87.826 60.8095 87.8259 61.0416 87.637C61.409 87.3337 61.7724 87.027 62.1313 86.7137C64.591 84.5725 67.2345 82.7334 70.0078 81.0244C70.1805 80.9178 70.3531 80.8109 70.5252 80.7034C73.4434 78.8801 76.6925 77.547 79.924 76.3951C80.2314 76.2852 80.5377 76.1725 80.8439 76.059C83.7022 75.0254 86.7674 74.4621 89.7628 73.9924C90.0933 73.9406 90.4233 73.8859 90.7533 73.8307Z" fill="url(#paint2_linear_467_1063)"/>
<defs>
<linearGradient id="paint0_linear_467_1063" x1="14.4484" y1="61.1374" x2="166.024" y2="124.233" gradientUnits="userSpaceOnUse">
<stop/>
<stop offset="0.475962" stop-color="#28C35F"/>
<stop offset="1" stop-color="#FF5335"/>
</linearGradient>
<linearGradient id="paint1_linear_467_1063" x1="14.4484" y1="61.1374" x2="166.024" y2="124.233" gradientUnits="userSpaceOnUse">
<stop/>
<stop offset="0.475962" stop-color="#28C35F"/>
<stop offset="1" stop-color="#FF5335"/>
</linearGradient>
<linearGradient id="paint2_linear_467_1063" x1="14.4484" y1="61.1374" x2="166.024" y2="124.233" gradientUnits="userSpaceOnUse">
<stop/>
<stop offset="0.475962" stop-color="#28C35F"/>
<stop offset="1" stop-color="#FF5335"/>
</linearGradient>
</defs>
</svg>
