<svg width="512" height="512" viewBox="0 0 512 512" fill="none" xmlns="http://www.w3.org/2000/svg">
<path d="M398.222 0H113.778C50.94 0 0 50.94 0 113.778V398.222C0 461.06 50.94 512 113.778 512H398.222C461.06 512 512 461.06 512 398.222V113.778C512 50.94 461.06 0 398.222 0Z" fill="#0C0C0E"/>
<path d="M404.869 186.072C406.208 186.503 407.048 187.477 408.013 188.452C408.192 188.631 408.373 188.811 408.558 188.996C409.848 190.294 411.077 191.637 412.282 193.015C413.003 193.816 413.756 194.571 414.524 195.327C415.853 196.65 417.036 198.045 418.209 199.507C418.915 200.365 419.652 201.176 420.411 201.987C422.268 204.006 423.941 206.16 425.627 208.322C426.167 209.012 426.713 209.698 427.26 210.383C428.884 212.415 430.489 214.443 431.953 216.594C432.472 217.344 433.01 218.077 433.555 218.808C437.782 224.493 441.673 230.466 445.071 236.685C445.45 237.378 445.833 238.068 446.223 238.756C449.022 243.702 451.537 248.775 453.833 253.973C454.099 254.571 454.37 255.166 454.645 255.76C456.026 258.757 457.251 261.806 458.451 264.879C458.563 265.164 458.675 265.45 458.791 265.744C460.181 269.295 461.506 272.85 462.642 276.491C462.897 277.297 463.161 278.1 463.427 278.902C465.572 285.448 467.248 292.108 468.816 298.812C468.885 299.103 468.953 299.393 469.024 299.693C472.105 313.15 475.083 328.801 471.999 342.458L471.801 343.371C470.267 350.345 467.722 356.525 463.007 361.949C462.663 362.378 462.322 362.81 461.982 363.243C454.797 372.188 443.948 377.152 432.702 378.495C420.57 379.659 407.907 376.205 398.434 368.454L397.689 367.817C397.07 367.29 396.435 366.802 395.785 366.314C388.592 360.526 384.418 351.798 381.92 343.127C381.856 342.909 381.792 342.691 381.726 342.466C381.273 340.868 380.994 339.285 380.784 337.638C380.747 337.363 380.711 337.088 380.673 336.804C380.401 334.697 380.178 332.585 379.963 330.471C379.126 322.266 377.89 314.258 374.955 306.499C374.679 305.758 374.42 305.019 374.17 304.27C371.576 296.528 368.086 289.223 364.028 282.149C363.856 281.847 363.856 281.847 363.68 281.539C360.379 275.77 356.721 270.209 352.266 265.253L351.736 264.655L351.274 264.154C350.855 263.394 351.012 262.956 351.215 262.123C351.624 261.525 351.624 261.525 352.151 260.957L352.725 260.335L353.328 259.699L353.927 259.047C355.402 257.464 355.403 257.464 356.082 257.434L356.261 256.927C356.739 255.994 357.38 255.346 358.101 254.586C359.628 252.956 361.134 251.321 362.294 249.404L362.889 249.378L363.704 247.552L364.3 247.526L364.517 246.999C364.859 246.276 365.26 245.657 365.718 245.002L366.177 244.343L366.526 243.848C367.418 244.197 367.976 244.55 368.61 245.267C368.769 245.446 368.928 245.624 369.092 245.809C369.345 246.1 369.345 246.1 369.602 246.398C369.78 246.601 369.958 246.805 370.142 247.014C373.12 250.45 375.877 254.016 378.416 257.788C378.991 258.639 379.602 259.45 380.243 260.253C381.569 261.955 382.674 263.788 383.788 265.632C384.265 266.417 384.749 267.198 385.232 267.98C387.251 271.266 389.085 274.571 390.707 278.07C391.275 279.293 391.896 280.478 392.539 281.663C394.863 286.079 396.449 290.856 398.035 295.576C398.136 295.874 398.237 296.172 398.341 296.479C399.447 299.755 400.541 303.012 401.312 306.386C401.531 307.339 401.785 308.276 402.046 309.218C403.854 316.183 404.933 323.367 405.641 330.523C405.842 332.548 406.122 334.513 406.636 336.486C406.7 336.736 406.764 336.986 406.829 337.244C407.603 340.174 408.722 342.495 410.639 344.851L411.06 345.381C412.419 346.964 414.124 348.024 415.897 349.096L416.556 349.497C420.169 351.493 423.669 351.874 427.723 351.71C428.072 351.697 428.421 351.683 428.781 351.67C434.118 351.358 438.718 349.219 442.595 345.538C446.685 340.315 447.733 334.931 447.365 328.452C447.353 328.197 447.34 327.942 447.327 327.68C446.761 316.662 445.02 305.092 441.407 294.642C440.795 292.861 440.316 291.048 439.827 289.23C438.931 285.946 437.905 282.747 436.717 279.558L436.352 278.571C433.65 271.3 430.683 264.184 427.088 257.304C426.848 256.838 426.608 256.372 426.368 255.906C424.784 252.855 423.089 249.879 421.337 246.921C420.942 246.249 420.555 245.572 420.17 244.894C416.299 238.094 411.713 231.822 406.903 225.666L406.22 224.79C402.397 219.931 398.216 215.343 393.967 210.857C393.566 210.433 393.168 210.005 392.771 209.577L392.18 208.984C391.825 208.425 391.825 208.425 391.814 207.706C392.115 206.742 392.566 206.088 393.16 205.271C394.16 203.865 395.089 202.434 395.973 200.952C396.854 199.477 397.749 198.013 398.671 196.563C400.031 194.411 401.29 192.209 402.54 189.991C402.666 189.768 402.793 189.545 402.922 189.315C403.173 188.87 403.423 188.425 403.673 187.98C404.552 186.417 404.553 186.417 404.869 186.072Z" fill="url(#paint0_linear_467_1063)"/>
<path d="M393.456 102.73C396.762 103.735 399.976 104.859 403.108 106.327C404.149 106.772 405.202 107.141 406.272 107.51C407.73 108.019 409.173 108.563 410.612 109.12L411.528 109.457L412.396 109.796C412.784 109.943 412.784 109.943 413.18 110.094C413.787 110.491 413.787 110.491 414.09 111.168C414.164 112.149 413.958 112.735 413.591 113.647C413.403 114.126 413.403 114.126 413.212 114.615C413.017 115.106 413.017 115.106 412.818 115.606C412.591 116.226 412.366 116.846 412.143 117.468L411.47 119.32L411.131 120.26C410.665 121.54 410.202 122.811 409.632 124.049C408.873 125.701 408.261 127.413 407.622 129.115C406.325 132.56 404.966 135.953 403.414 139.291C403.141 139.901 402.871 140.512 402.602 141.123C401.727 143.105 400.815 145.065 399.872 147.015C399.223 148.363 398.605 149.722 398.001 151.091C394.293 159.457 390.106 167.609 385.611 175.579C385.466 175.835 385.322 176.092 385.173 176.356C378.78 187.709 372.026 198.733 364.857 209.611C364.519 210.124 364.181 210.638 363.843 211.153C360.266 216.585 356.534 221.921 352.665 227.15C352.53 227.332 352.396 227.514 352.257 227.701C351.471 228.763 350.684 229.824 349.895 230.883C349.365 231.596 348.838 232.309 348.313 233.025C346.965 234.856 345.544 236.603 344.074 238.335C343.317 239.23 342.583 240.141 341.854 241.059C339.466 244.048 336.976 246.954 334.499 249.869C334.201 250.22 333.903 250.572 333.605 250.923C333.461 251.092 333.318 251.261 333.171 251.435C332.439 252.3 331.726 253.174 331.039 254.076C330.314 254.984 330.314 254.984 329.614 255.593C328.768 256.337 328.13 257.158 327.437 258.042C326.555 259.14 325.644 260.234 324.619 261.201L324.024 261.227L323.481 262.444L322.885 262.471C322.815 262.648 322.746 262.826 322.674 263.009C322.318 263.736 321.921 264.223 321.372 264.818L320.786 265.456L320.173 266.114L319.58 266.761C318.424 268.012 317.231 269.207 315.991 270.375C315.251 271.085 314.585 271.851 313.915 272.625C313.502 273.027 313.502 273.027 312.906 273.053L312.647 273.959C312.242 274.406 312.242 274.406 311.7 274.896C310.669 275.851 309.667 276.829 308.677 277.826C308.38 278.124 308.082 278.422 307.785 278.72C307.64 278.866 307.495 279.012 307.345 279.161C303.691 282.823 299.862 286.282 296.011 289.733C295.532 290.163 295.055 290.594 294.577 291.025C293.094 292.362 291.585 293.661 290.051 294.939C288.776 296.006 287.536 297.11 286.299 298.22C284.491 299.839 282.635 301.378 280.733 302.884C279.582 303.795 278.451 304.728 277.319 305.663C275.413 307.233 273.483 308.769 271.53 310.281C270.954 310.727 270.379 311.176 269.805 311.624C267.343 313.543 264.854 315.416 262.328 317.247C261.706 317.699 261.087 318.154 260.467 318.609C255.386 322.343 250.239 325.985 244.963 329.441C244.256 329.907 243.549 330.373 242.843 330.84C242.678 330.948 242.514 331.057 242.344 331.168C241.485 331.735 240.631 332.306 239.783 332.888C237.451 334.487 235.073 335.981 232.652 337.441C231.944 337.869 231.236 338.298 230.528 338.727C230.353 338.833 230.178 338.939 229.998 339.048C228.772 339.793 227.558 340.556 226.348 341.326C224.511 342.492 222.643 343.596 220.755 344.676C220.44 344.857 220.125 345.038 219.801 345.224C217.526 346.528 215.242 347.814 212.945 349.078C212.248 349.463 211.552 349.85 210.856 350.237C210.487 350.443 210.118 350.648 209.749 350.852C208.452 351.571 207.159 352.298 205.868 353.027C202.08 355.16 198.278 357.195 194.338 359.037C192.524 359.895 190.724 360.781 188.921 361.662C184.058 364.037 179.151 366.313 174.228 368.561C173.673 368.815 173.119 369.069 172.565 369.324C168.809 371.051 164.953 372.51 161.088 373.969C159.555 374.549 158.025 375.138 156.496 375.73C155.799 375.999 155.102 376.268 154.405 376.537C153.961 376.709 153.517 376.881 153.073 377.053C150.053 378.228 147.01 379.283 143.922 380.265C143.229 380.488 142.54 380.718 141.851 380.953C134.386 383.49 126.862 385.82 119.222 387.768C118.957 387.836 118.692 387.904 118.419 387.974C116.722 388.408 115.022 388.821 113.318 389.221L112.502 389.413C103.341 391.548 93.24 393.148 83.8749 391.407C83.6111 391.359 83.3473 391.312 83.0755 391.263C76.8434 390.094 70.7828 387.964 65.6543 384.15L65.0457 383.879L65.0195 383.283L64.4832 383.066C63.289 382.493 62.3352 381.61 61.3284 380.759L60.7258 380.254C55.8553 375.993 52.3907 370.455 49.8762 364.553C49.7912 364.358 49.7061 364.164 49.6184 363.964C47.0409 357.975 46.7514 351.286 46.5136 344.859C46.4993 344.509 46.485 344.159 46.4703 343.799C46.2448 338.192 46.2606 332.688 46.7415 327.096C46.7853 326.521 46.8289 325.946 46.8722 325.372C47.7761 314.086 49.3705 302.629 52.4336 291.714C52.6584 290.889 52.8687 290.061 53.0786 289.232C54.0973 285.218 55.2176 281.26 56.5009 277.322C56.7621 276.514 57.016 275.703 57.2679 274.892C57.3908 274.499 57.3909 274.499 57.5163 274.097C57.67 273.605 57.8226 273.112 57.9742 272.62C58.355 271.412 58.8003 270.361 59.4215 269.252C59.5871 268.765 59.7392 268.273 59.879 267.777C60.4919 265.756 61.3112 263.838 62.135 261.896C62.4384 261.173 62.7254 260.444 63.0126 259.714C64.3976 256.269 65.9824 252.906 67.5453 249.539C67.679 249.249 67.8126 248.96 67.9504 248.662C68.8351 246.765 69.7936 244.924 70.8058 243.093C71.0232 242.689 71.2401 242.285 71.4566 241.881C74.5805 236.11 78.0022 230.468 81.6493 225.013C81.9005 224.633 82.1515 224.254 82.4024 223.874C83.8922 221.625 85.4163 219.404 86.9771 217.204C87.3686 216.642 87.7395 216.066 88.0938 215.481L88.6894 215.455L88.8919 214.942C90.1223 212.398 92.2971 210.18 94.1215 208.031C94.8323 207.193 95.5355 206.349 96.2343 205.501L96.7965 204.819C97.1481 204.387 97.4981 203.954 97.8404 203.515C99.2195 201.756 100.702 200.098 102.211 198.45C102.642 197.979 103.071 197.505 103.5 197.031C103.774 196.731 104.049 196.43 104.323 196.13C104.57 195.86 104.817 195.589 105.071 195.31C105.682 194.719 105.682 194.719 106.278 194.692L106.821 193.475L107.417 193.449L107.391 192.853C107.769 192.437 107.769 192.437 108.32 191.936C109.089 191.225 109.844 190.506 110.577 189.758C110.73 189.602 110.883 189.446 111.04 189.285C111.347 188.973 111.652 188.659 111.955 188.344C113.046 187.235 113.046 187.235 113.707 187.206L113.681 186.61C114.268 186.064 114.86 185.55 115.477 185.039C115.85 184.726 116.222 184.412 116.594 184.098L117.163 183.617C117.948 182.945 118.705 182.247 119.464 181.545C121.126 180.023 122.846 178.587 124.606 177.18C124.798 177.026 124.991 176.871 125.189 176.712C130.681 172.32 136.274 168.068 142.163 164.218C143.241 163.513 144.3 162.788 145.35 162.041C153.987 155.948 164.031 150.792 173.761 146.688C174.61 146.329 175.456 145.962 176.301 145.594C185.724 141.507 195.347 138.298 205.272 135.682C206.223 135.429 207.172 135.169 208.121 134.906C214.776 133.068 221.532 131.974 228.351 130.951C228.654 130.905 228.956 130.859 229.268 130.812C236.363 129.746 243.42 129.23 250.583 128.913C250.915 128.898 250.915 128.898 251.253 128.883C258.069 128.58 264.837 128.411 271.65 128.888C272.296 128.933 272.944 128.976 273.591 129.018C276.1 129.186 278.606 129.382 281.111 129.601C282.012 129.679 282.914 129.751 283.816 129.82C293.344 130.595 302.969 132.592 312.219 134.937C312.659 135.048 312.659 135.048 313.108 135.161C315.717 135.829 318.302 136.57 320.884 137.335C321.201 137.429 321.201 137.429 321.524 137.525C324.025 138.266 326.522 139.016 328.994 139.851C329.196 139.919 329.399 139.987 329.607 140.057C330.803 140.472 331.946 140.964 333.097 141.488C334.057 141.907 335.043 142.241 336.033 142.582C341.171 144.404 346.128 146.669 351.03 149.048L351.855 149.448C352.692 149.855 353.528 150.264 354.364 150.674C354.623 150.8 354.881 150.926 355.147 151.056C355.509 151.235 355.509 151.235 355.878 151.417C356.197 151.574 356.197 151.574 356.522 151.734C357.168 152.084 357.761 152.48 358.36 152.904C357.825 154.502 357.103 155.976 356.36 157.486C356.214 157.783 356.068 158.081 355.918 158.387C354.572 161.107 353.133 163.77 351.673 166.43C350.848 167.942 350.041 169.463 349.232 170.983C349.074 171.28 348.915 171.577 348.752 171.883C348.384 172.576 348.015 173.269 347.647 173.962C345.546 173.561 343.676 172.517 341.813 171.495C334.655 167.689 326.761 164.967 319.092 162.384C318.805 162.287 318.518 162.189 318.223 162.089C314.377 160.787 310.532 159.621 306.582 158.682C305.733 158.477 304.887 158.263 304.041 158.047C300.257 157.089 296.471 156.298 292.623 155.641C292.016 155.533 291.412 155.41 290.808 155.285C287.491 154.6 284.149 154.142 280.784 153.77C280.579 153.748 280.374 153.725 280.163 153.701C272.609 152.868 265.062 152.474 257.468 152.803C256.991 152.823 256.514 152.843 256.038 152.863C255.044 152.905 254.051 152.948 253.059 152.992C252.057 153.035 251.055 153.077 250.053 153.117C244.363 153.344 238.75 153.657 233.114 154.518C232.727 154.573 232.339 154.627 231.94 154.684C231.002 154.816 230.066 154.957 229.13 155.103C228.803 155.155 228.476 155.206 228.139 155.259C225.795 155.635 223.464 156.064 221.137 156.536C220.845 156.594 220.553 156.653 220.252 156.714C218.479 157.084 216.757 157.555 215.024 158.084C213.833 158.437 212.628 158.714 211.417 158.994C208.156 159.776 204.986 160.791 201.809 161.859L201.121 162.087C197.796 163.191 194.518 164.423 191.242 165.666C190.78 165.842 190.317 166.017 189.854 166.191C187.223 167.184 184.672 168.245 182.149 169.493C181.104 170.005 180.048 170.445 178.969 170.879C176.903 171.733 174.975 172.767 173.041 173.883C172.28 174.319 171.511 174.718 170.722 175.101C168.899 175.998 167.149 177.024 165.39 178.039L164.364 178.626C162.375 179.771 160.441 180.965 158.544 182.255C158.114 182.544 157.683 182.833 157.252 183.121C156.603 183.558 155.955 183.995 155.307 184.433C154.314 185.104 153.32 185.774 152.316 186.427C150.356 187.716 148.543 189.118 146.745 190.619C145.344 191.788 143.914 192.912 142.463 194.019C139.215 196.511 136.164 199.192 133.174 201.986C132.386 202.72 131.579 203.429 130.767 204.136C128.987 205.718 127.346 207.429 125.693 209.141C124.848 210.014 123.992 210.874 123.126 211.726C121.885 212.947 120.736 214.178 119.677 215.56C119.018 216.38 118.306 217.147 117.59 217.917C116.529 219.061 115.515 220.224 114.555 221.454C113.714 222.517 112.83 223.545 111.952 224.578C110.995 225.775 110.122 227.024 109.243 228.278C108.922 228.73 108.601 229.181 108.279 229.632C101.805 238.724 96.0502 248.006 91.0627 257.999C90.7515 258.623 90.439 259.246 90.1254 259.868C86.7867 266.507 83.6157 273.391 81.7474 280.609C81.3941 281.924 80.9273 283.172 80.4423 284.443C79.941 285.849 79.5557 287.285 79.165 288.724C78.919 289.604 78.6226 290.457 78.3101 291.315C77.7096 293.009 77.2927 294.726 76.8955 296.477C76.8203 296.803 76.7451 297.13 76.6676 297.466C76.0144 300.341 75.4499 303.228 74.9139 306.126C74.7577 306.952 74.5825 307.773 74.406 308.595C73.2645 314.259 72.7552 319.954 72.3006 325.706C72.1913 327.083 72.0681 328.458 71.9294 329.832C71.525 334.13 71.6023 338.38 71.7613 342.688C71.7744 343.111 71.7744 343.111 71.7878 343.543C72.0179 350.527 73.3191 357.09 78.1279 362.419C83.3992 367.19 89.7487 367.684 96.5407 367.373C100.3 367.18 103.864 366.535 107.508 365.606C107.707 365.555 107.905 365.504 108.11 365.452C118.884 362.697 129.475 359.387 139.989 355.765C140.723 355.513 141.459 355.266 142.195 355.019C150.119 352.342 157.866 349.074 165.549 345.778C166.794 345.245 168.047 344.733 169.303 344.228C172.333 343.001 175.263 341.566 178.17 340.074C179.509 339.387 180.852 338.718 182.218 338.086C186.862 335.919 191.378 333.507 195.886 331.072C197.102 330.415 198.319 329.764 199.542 329.121C202.707 327.455 205.834 325.731 208.937 323.954C209.11 323.855 209.283 323.756 209.462 323.654C211.728 322.358 213.952 321.007 216.152 319.603C217.804 318.554 219.485 317.553 221.17 316.557C223.317 315.285 225.429 313.971 227.516 312.603C227.832 312.397 227.832 312.397 228.154 312.187C231.363 310.092 234.522 307.943 237.631 305.703C238.454 305.113 239.28 304.528 240.107 303.942C242.407 302.313 244.688 300.66 246.958 298.989C247.555 298.55 248.154 298.112 248.753 297.675C252.05 295.261 255.322 292.828 258.464 290.215C259.873 289.044 261.305 287.907 262.747 286.777C266.199 284.066 269.523 281.203 272.818 278.303C273.412 277.784 274.013 277.273 274.616 276.765C277.652 274.189 280.604 271.515 283.519 268.803L284.341 268.04L284.807 267.595C285.997 266.475 285.997 266.475 286.658 266.446L286.632 265.851C287.03 265.413 287.03 265.413 287.597 264.895C288.825 263.759 290.004 262.581 291.18 261.391C291.783 260.851 291.783 260.851 292.379 260.825L292.353 260.229C292.731 259.813 292.731 259.813 293.282 259.312C294.339 258.332 295.362 257.328 296.376 256.304C297.437 255.236 298.505 254.181 299.622 253.171C300.13 252.68 300.603 252.162 301.079 251.64C301.533 251.143 301.988 250.648 302.444 250.153C303.388 249.128 304.331 248.103 305.273 247.076C305.678 246.636 306.083 246.196 306.488 245.757C307.078 245.116 307.667 244.475 308.256 243.833C308.434 243.64 308.613 243.447 308.797 243.248C309.873 242.074 310.888 240.867 311.871 239.613C312.504 238.823 313.184 238.093 313.876 237.355C314.963 236.187 315.989 234.991 316.969 233.733C317.419 233.176 317.892 232.66 318.384 232.141C319.219 231.248 319.943 230.304 320.666 229.318C321.43 228.277 322.204 227.296 323.091 226.359C324.192 225.19 325.136 223.938 326.085 222.644C326.821 221.649 327.577 220.671 328.338 219.695C329.432 218.287 330.496 216.861 331.54 215.416C332.082 214.682 332.639 213.963 333.202 213.246C334.727 211.303 336.157 209.308 337.559 207.275C338.423 206.026 339.302 204.795 340.219 203.584C341.521 201.861 342.737 200.085 343.94 198.292L344.478 197.491C345.761 195.567 347.012 193.623 348.258 191.674C348.903 190.666 349.55 189.659 350.21 188.661C352.32 185.461 354.288 182.176 356.263 178.891C356.829 177.95 357.396 177.011 357.965 176.072C358.191 175.699 358.416 175.327 358.641 174.955C359.123 174.158 359.606 173.362 360.095 172.569C361.952 169.546 363.659 166.438 365.381 163.337C365.596 162.952 365.811 162.566 366.026 162.18C366.383 161.539 366.74 160.898 367.096 160.256C367.423 159.668 367.753 159.081 368.084 158.495C371.973 151.591 375.497 144.499 378.899 137.346C379.055 137.019 379.055 137.019 379.214 136.685C381.195 132.522 383.106 128.334 384.849 124.065C385.255 123.078 385.675 122.097 386.098 121.117C387.335 118.247 388.542 115.384 389.576 112.433C390.213 110.621 390.939 108.853 391.685 107.084C392.137 106.008 392.568 104.925 392.989 103.836C393.135 103.463 393.292 103.095 393.456 102.73Z" fill="url(#paint1_linear_467_1063)"/>
<path d="M242.009 196.89C256.063 194.651 271.077 195.586 285.034 197.972C285.975 198.133 286.918 198.287 287.861 198.439C291.399 199.027 294.798 199.889 298.229 200.926C298.998 201.154 299.769 201.366 300.542 201.573C306.016 203.049 311.374 204.968 316.517 207.357C318.01 208.05 319.529 208.602 321.093 209.109C321.751 209.41 321.751 209.41 322.088 210.29C321.718 210.931 321.718 210.931 321.142 211.674L320.506 212.508L319.836 213.373C319.431 213.918 319.026 214.464 318.622 215.011C317.545 216.449 316.449 217.87 315.346 219.288C314.539 220.329 313.745 221.38 312.961 222.439C311.898 223.868 310.803 225.27 309.697 226.666C309.536 226.869 309.375 227.071 309.21 227.28C308.625 228.015 308.047 228.74 307.412 229.433C305.985 229.398 304.688 228.746 303.387 228.211C300.823 227.182 298.244 226.281 295.602 225.475C295.41 225.416 295.217 225.356 295.019 225.294C293.41 224.799 291.791 224.353 290.164 223.924L289.174 223.66C279.49 221.126 269.576 219.697 259.553 219.895C259.206 219.901 259.206 219.901 258.852 219.907C251.527 220.036 244.453 220.609 237.27 222.066L236.271 222.264C228.183 223.886 219.982 226.377 212.556 230.013C212.081 230.228 211.605 230.442 211.129 230.653L210.438 230.968C209.993 231.17 209.549 231.371 209.102 231.568C205.832 233.017 202.757 234.665 199.714 236.543C199.345 236.771 199.345 236.771 198.968 237.002C195.423 239.192 191.947 241.448 188.625 243.967C187.83 244.524 187.83 244.524 187.235 244.55L187.261 245.146C186.754 245.589 186.754 245.589 186.035 246.113C181.877 249.227 177.66 252.615 174.238 256.543C173.731 257.109 173.191 257.618 172.632 258.132C171.444 259.24 170.455 260.48 169.455 261.758L168.92 262.361L168.325 262.387C168.25 262.567 168.176 262.747 168.1 262.933C167.796 263.572 167.476 264.049 167.033 264.596C166.885 264.78 166.737 264.965 166.585 265.155C166.346 265.448 166.347 265.448 166.104 265.748C165.768 266.168 165.432 266.588 165.096 267.008C164.629 267.59 164.162 268.171 163.692 268.75C160.426 272.779 157.636 277.212 155.151 281.762C155.054 281.936 154.958 282.111 154.858 282.291C151.933 287.602 149.343 293.091 147.222 298.772C146.977 299.42 146.719 300.063 146.459 300.705C143.289 308.681 141.257 317.562 140.18 326.055C139.726 329.399 138.475 331.348 135.943 333.626C132.186 336.295 127.542 337.183 123.137 338.224C122.479 338.383 121.824 338.552 121.17 338.725L120.03 339.023L119.051 339.285C117.707 339.541 116.386 339.587 115.021 339.616C115.111 328.613 115.984 317.423 119.001 306.794C119.224 305.985 119.433 305.173 119.642 304.36C120.358 301.591 121.21 298.881 122.123 296.171C122.197 295.949 122.272 295.726 122.349 295.497C124.271 289.77 126.361 284.177 129.024 278.749C129.308 278.168 129.585 277.585 129.86 276.999C130.869 274.862 131.983 272.823 133.187 270.79C133.489 270.267 133.79 269.743 134.091 269.219C134.419 268.652 134.748 268.085 135.076 267.519C135.236 267.24 135.395 266.961 135.56 266.674C135.786 266.285 135.786 266.285 136.017 265.889C136.153 265.654 136.289 265.419 136.429 265.176C136.55 265.007 136.672 264.839 136.797 264.665L137.393 264.638L137.596 263.978C137.943 263.072 138.372 262.371 138.918 261.569L139.527 260.671L140.162 259.743L140.751 258.855C142.186 256.709 143.732 254.68 145.341 252.663C146.058 251.776 146.058 251.776 146.559 250.987L146.917 250.496L147.513 250.469L147.691 249.974C148.177 249.013 148.844 248.244 149.543 247.434C149.766 247.173 149.766 247.173 149.994 246.906C152.303 244.223 154.65 241.542 157.256 239.141C157.766 238.655 158.231 238.143 158.697 237.615C159.445 236.818 159.445 236.818 160.041 236.792L160.015 236.196C161.007 235.257 161.007 235.257 161.763 235.224L161.736 234.629C162.159 234.21 162.159 234.21 162.778 233.707C163.757 232.898 164.726 232.08 165.684 231.244C172.243 225.535 179.292 220.63 186.687 216.073C187.148 215.789 187.608 215.504 188.067 215.217C195.849 210.355 204.513 206.8 213.131 203.728C213.951 203.435 214.767 203.135 215.584 202.832C223.206 200.076 231.38 198.573 239.367 197.321C240.249 197.183 241.129 197.037 242.009 196.89Z" fill="url(#paint2_linear_467_1063)"/>
<defs>
<linearGradient id="paint0_linear_467_1063" x1="38.529" y1="163.041" x2="442.73" y2="331.295" gradientUnits="userSpaceOnUse">
<stop/>
<stop offset="0.475962" stop-color="#28C35F"/>
<stop offset="1" stop-color="#FF5335"/>
</linearGradient>
<linearGradient id="paint1_linear_467_1063" x1="38.529" y1="163.041" x2="442.73" y2="331.295" gradientUnits="userSpaceOnUse">
<stop/>
<stop offset="0.475962" stop-color="#28C35F"/>
<stop offset="1" stop-color="#FF5335"/>
</linearGradient>
<linearGradient id="paint2_linear_467_1063" x1="38.529" y1="163.041" x2="442.73" y2="331.295" gradientUnits="userSpaceOnUse">
<stop/>
<stop offset="0.475962" stop-color="#28C35F"/>
<stop offset="1" stop-color="#FF5335"/>
</linearGradient>
</defs>
</svg>
